<svg width="369" height="72" viewBox="0 0 369 72" fill="none" xmlns="http://www.w3.org/2000/svg">
<path d="M78.5244 39.4362V67.3949L85.2344 67.336L91.9151 67.2477L92.0622 51.2083L92.2094 35.1689L99.7435 46.7938C106.66 57.4769 107.336 58.4187 108.072 58.4187C108.926 58.4187 110.544 56.0937 121.434 39.1125L123.994 35.0806L124.141 51.1789L124.288 67.2477L130.998 67.336L137.679 67.3949V39.4362V11.4776L130.881 11.5364L124.053 11.6247L116.96 22.5433C113.046 28.5471 109.455 34.0505 108.955 34.8157L108.072 36.1989L104.599 30.8132C102.687 27.8702 99.1255 22.3373 96.6533 18.5408L92.1505 11.6247L85.3227 11.5364L78.5244 11.4776V39.4362Z" fill="white"/>
<path d="M149.451 39.4362V67.3949H156.22H162.989V58.5953V49.7957L169.405 49.6485C176.762 49.5014 177.88 49.2659 182.089 47.1764C189.623 43.4093 193.714 35.5809 192.301 27.517C191.006 20.0123 185.238 14.0674 177.292 12.0662C175.143 11.5364 173.966 11.4776 162.194 11.4776H149.451V39.4362ZM173.26 23.5439C179.028 24.6329 181 31.9904 176.586 35.9635C175.938 36.5521 174.879 37.1701 174.261 37.3467C173.643 37.5233 170.847 37.6704 168.08 37.6704H162.989V30.46V23.2496H167.374C169.758 23.2496 172.436 23.3674 173.26 23.5439Z" fill="white"/>
<path d="M248.925 39.4362V67.3949H255.253H261.58V58.713C261.58 53.9453 261.668 50.0311 261.815 50.0311C261.933 50.0605 264.994 53.9453 268.643 58.713L275.265 67.3949H282.417C288.479 67.3949 289.539 67.336 289.333 66.9829C289.215 66.7474 285.86 62.5095 281.887 57.5064C277.914 52.5327 274.5 48.177 274.264 47.8238C273.911 47.2352 274.323 46.6172 281.416 37.4644C285.566 32.1081 288.95 27.6347 288.95 27.5464C288.95 27.4581 285.654 27.3699 281.651 27.3699H274.323L270.321 32.8733C268.143 35.934 265.259 39.8483 263.964 41.6435L261.58 44.8808V28.1645V11.4776H255.253H248.925V39.4362Z" fill="white"/>
<path d="M213.52 26.6341C205.692 28.1351 199.423 33.2854 196.745 40.4369C196.009 42.4381 195.833 43.3799 195.715 46.2641C195.45 52.827 197.128 57.1532 201.66 61.6855C203.926 63.9222 204.809 64.5991 207.134 65.7468C210.989 67.6304 213.756 68.2778 218.023 68.2778C222.291 68.2778 225.028 67.6304 228.912 65.7174C231.267 64.5696 232.12 63.9516 234.357 61.6855C236.505 59.5371 237.271 58.5364 238.271 56.5058C240.037 52.8859 240.478 50.6492 240.302 46.3524C240.184 43.8508 239.978 42.3204 239.537 41.1138C238.153 37.229 235.681 33.6091 232.797 31.343C230.678 29.636 226.411 27.5465 223.909 26.9284C221.084 26.2515 216.257 26.1044 213.52 26.6341ZM222.438 38.8771C224.351 39.76 225.999 41.3787 226.911 43.2622C227.853 45.234 227.853 49.2659 226.882 51.4143C226.058 53.2979 224.41 54.8282 222.173 55.8583C220.79 56.5058 220.113 56.6529 218.023 56.6235C215.904 56.6235 215.257 56.5058 213.697 55.7994C210.342 54.2691 208.311 51.0906 208.311 47.4118C208.311 43.2033 210.43 40.1132 214.374 38.5239C216.493 37.6999 220.26 37.847 222.438 38.8771Z" fill="white"/>
<path d="M309.051 26.6047C303.165 27.7231 298.544 30.3718 295.395 34.4331C289.097 42.497 289.656 54.5045 296.69 61.5972C301.193 66.1589 306.814 68.2778 314.436 68.2778C320.087 68.2778 324.295 67.1889 328.033 64.7462C329.652 63.6867 332.801 60.7731 332.801 60.3317C332.801 60.1257 331.094 59.1545 323.942 55.2697L322.883 54.6811L321.617 55.5934C317.438 58.6247 309.374 58.2421 306.284 54.8282C305.372 53.857 304.548 52.6504 304.548 52.3267C304.548 52.1795 311.287 52.0912 319.528 52.0912C333.507 52.0912 334.508 52.0618 334.714 51.5615C335.096 50.502 335.214 46.2641 334.89 44.1451C334.125 39.2597 332.359 35.7869 328.945 32.373C326.444 29.842 323.413 28.1057 319.852 27.0756C316.997 26.281 311.964 26.0455 309.051 26.6047ZM317.232 37.5233C319.057 38.1413 320.882 39.76 321.764 41.5258C322.177 42.291 322.5 43.0267 322.5 43.115C322.5 43.2033 318.409 43.2622 313.377 43.2622C308.374 43.2622 304.254 43.2033 304.254 43.1445C304.254 43.0856 304.46 42.5559 304.695 41.9673C305.254 40.6723 307.02 38.6711 308.138 38.0825C310.699 36.7581 314.378 36.5227 317.232 37.5233Z" fill="white"/>
<path d="M365.527 26.9287C361.672 27.7822 358.287 30.0777 356.963 32.7559L356.345 33.992V30.6663V27.3702H349.87H343.396L343.455 47.2944L343.543 67.248H349.87H356.198L356.345 56.8003C356.492 46.6175 356.522 46.3232 357.169 44.9694C358.641 41.9675 361.672 40.3194 366.145 40.084L369 39.9368V33.2268V26.4873L368.205 26.5167C367.735 26.5167 366.557 26.7227 365.527 26.9287Z" fill="white"/>
<path d="M30.9945 1.00066C30.347 1.55983 27.3157 3.73767 24.2256 5.88607C14.3664 12.7727 9.5399 17.0695 5.86112 22.2492C2.77095 26.6049 1.21115 30.2248 0.38711 34.9925C-0.613516 40.6137 0.32825 45.4991 3.18298 49.737C6.65574 54.8285 12.218 57.8009 18.3395 57.8303C22.4597 57.8303 23.8724 57.33 28.6401 54.1221L32.5543 51.444L35.9093 53.7984C39.9118 56.6237 40.5593 56.9769 42.9726 57.536C47.2399 58.5367 52.0371 57.6832 56.1867 55.1522C58.6589 53.6807 61.8079 50.2079 63.044 47.6181C64.6038 44.3513 65.0746 41.9675 64.8981 38.1121C64.692 34.0802 63.9269 31.0783 62.1022 27.2524C58.6883 20.1891 52.7434 14.1559 41.5894 6.47467C39.1761 4.79715 36.1448 2.67818 34.9087 1.70699C33.6726 0.765221 32.5249 3.43323e-05 32.4071 3.43323e-05C32.2894 0.0294647 31.642 0.470917 30.9945 1.00066ZM33.7315 12.4196C43.5612 25.2806 47.3577 30.4308 47.2399 30.7251C47.0634 31.1666 33.6138 49.3839 32.9075 50.1491C32.4071 50.6788 32.3189 50.5905 30.3765 47.9418C29.2581 46.4114 25.9325 41.938 22.9895 37.965C20.0465 33.9919 17.6038 30.6663 17.6038 30.578C17.6038 30.4897 19.2519 28.2236 21.2825 25.5749C23.3132 22.9261 26.6388 18.541 28.6989 15.804C30.7296 13.0965 32.4366 10.8892 32.466 10.8892C32.5249 10.8892 33.084 11.5955 33.7315 12.4196Z" fill="white"/>
<path d="M26.8151 25.6041C25.0787 26.487 24.2252 27.9585 24.2546 30.0186C24.2841 32.8439 25.8144 35.0218 29.7287 37.8176L32.3774 39.7012L34.8789 37.8765C38.7343 35.0806 40.1469 33.1677 40.4412 30.3718C40.8827 26.5165 36.5859 23.6912 33.5251 25.869C33.0543 26.2222 32.5245 26.487 32.3185 26.487C32.1125 26.487 31.5828 26.2222 31.1119 25.869C29.8169 24.9567 28.2866 24.8684 26.8151 25.6041Z" fill="white"/>
<path d="M28.3457 61.3913C26.0796 62.4508 23.8723 63.4514 23.4603 63.5985C22.8129 63.834 22.5774 64.3343 21.6356 67.601C21.047 69.6611 20.6056 71.3681 20.6644 71.427C20.7233 71.4858 22.0771 71.3092 23.6663 71.0149C27.7277 70.3086 37.2042 70.3086 41.2656 71.0149C42.8548 71.3092 44.238 71.4858 44.2969 71.3975C44.4146 71.3092 42.4428 64.1577 42.2662 64.0106C42.1779 63.9223 32.5248 59.4489 32.4954 59.4489C32.4659 59.4489 30.6118 60.3318 28.3457 61.3913Z" fill="white"/>
</svg>
