<svg width="16" height="16" viewBox="0 0 16 16" fill="none" xmlns="http://www.w3.org/2000/svg">
<path fill-rule="evenodd" clip-rule="evenodd" d="M4.57667 13.7219C3.63266 13.1583 2.81517 12.3529 2.22641 11.3331C1.63812 10.3142 1.34938 9.20447 1.33289 8.10599L1.42925 8.12497C3.39528 8.51218 5.63193 7.81213 7.47037 6.68338C7.71216 6.53494 7.94922 6.37774 8.17986 6.21296C8.45532 6.55695 8.70199 6.9058 8.90072 7.25002C9.14986 7.68154 9.37524 8.19489 9.57664 8.74327C9.23177 8.91017 8.89549 9.094 8.57145 9.29118C6.71023 10.4237 5.12235 12.0757 4.57695 13.721L4.57667 13.7219ZM10.8399 14.0317C9.10333 14.8517 7.16106 14.8569 5.48078 14.1725L5.52616 14.0356C5.96853 12.7011 7.33912 11.2116 9.09127 10.1455C9.35448 9.98529 9.62335 9.83648 9.89577 9.70045C10.0639 10.2537 10.2095 10.8148 10.3325 11.3419C10.492 12.0256 10.6104 12.6384 10.6889 13.0801C10.7281 13.3008 10.7573 13.4784 10.7766 13.6003C10.7862 13.6612 10.7934 13.7082 10.7981 13.7397L10.8034 13.7751L10.8046 13.7837L10.8049 13.786L10.8399 14.0317Z" fill="#FE643D"/>
<path d="M10.8174 9.295C12.0758 8.81574 13.3585 8.63155 14.4687 8.8751L14.6052 8.90504C14.5239 9.49456 14.3644 10.0714 14.1309 10.619C13.648 11.7518 12.8488 12.7597 11.7726 13.4967L11.7643 13.444C11.7441 13.3165 11.7139 13.1327 11.6735 12.9052C11.5927 12.4504 11.4708 11.8196 11.3063 11.1146C11.1737 10.5461 11.0113 9.92023 10.8174 9.295Z" fill="#FE643D"/>
<path d="M8.96857 5.59829C10.121 4.6188 11.0266 3.45768 11.4166 2.29879L11.4236 2.27804C12.3674 2.84161 13.1848 3.64688 13.7734 4.66648C14.3619 5.68582 14.6507 6.79597 14.667 7.89485C13.3365 7.60729 11.8761 7.82749 10.4964 8.34756C10.2825 7.7718 10.0398 7.22299 9.76675 6.75002C9.54262 6.36183 9.26921 5.97462 8.96857 5.59829Z" fill="#FE643D"/>
<path d="M5.54593 2.3027C5.37791 2.16982 5.24108 2.06496 5.14577 1.99296L5.13086 1.98172C6.30583 1.42001 7.57638 1.23262 8.79711 1.38059C9.38867 1.45229 9.96852 1.60275 10.5201 1.82753L10.4689 1.97982C10.1507 2.92512 9.36878 3.94692 8.31663 4.84029C7.82971 4.31025 7.31615 3.8192 6.84827 3.39955C6.34347 2.94679 5.88172 2.56825 5.54593 2.3027Z" fill="#FE643D"/>
<path d="M6.94715 5.83119C5.22274 6.88992 3.2469 7.46374 1.62249 7.14382L1.39409 7.09884C1.64028 5.30325 2.61315 3.62497 4.18781 2.53013L4.40644 2.68907L4.4078 2.69007L4.41402 2.69462L4.44005 2.71381C4.46327 2.73101 4.49802 2.75691 4.54302 2.7909C4.63304 2.8589 4.76397 2.95922 4.92563 3.08706C5.2492 3.34295 5.69453 3.70804 6.18057 4.14398C6.62044 4.53851 7.0857 4.9841 7.52188 5.45371C7.33572 5.5843 7.14388 5.7104 6.94715 5.83119Z" fill="#FE643D"/>
</svg>
