<svg width="14" height="14" viewBox="0 0 14 14" fill="none" xmlns="http://www.w3.org/2000/svg">
<rect x="0.744385" y="0.82959" width="12.8074" height="12.8074" rx="3.55761" fill="#697786"/>
<path d="M5.11398 10.0794C4.52785 10.0794 4.21588 9.38781 4.6038 8.94841L6.12813 7.22182L4.64786 5.56851C4.23921 5.11208 4.56317 4.38721 5.1758 4.38721V4.38721C5.378 4.38721 5.57056 4.47358 5.70502 4.62458L7.23091 6.33816L8.65917 4.63026C8.78799 4.47622 8.97846 4.38721 9.17927 4.38721V4.38721C9.76448 4.38721 10.0748 5.07881 9.68574 5.51596L8.16752 7.22182L9.66149 8.90396C10.0661 9.35956 9.7427 10.0794 9.13335 10.0794V10.0794C8.93214 10.0794 8.74049 9.99358 8.60647 9.8435L7.06474 8.11696L5.63731 9.83391C5.50801 9.98943 5.31623 10.0794 5.11398 10.0794V10.0794Z" fill="#16222D"/>
</svg>
