<svg width="44" height="44" viewBox="0 0 44 44" fill="none" xmlns="http://www.w3.org/2000/svg">
<mask id="mask0_1976_1723" style="mask-type:luminance" maskUnits="userSpaceOnUse" x="0" y="0" width="44" height="44">
<path d="M43.7143 0.285721H0.285706V43.7143H43.7143V0.285721Z" fill="white"/>
</mask>
<g mask="url(#mask0_1976_1723)">
<path d="M30.3576 0.285721C30.4587 0.285721 30.5598 0.285721 30.6665 0.285721C30.9145 3.34835 29.7455 5.63681 28.3247 7.29406C26.9307 8.93978 25.0218 10.536 21.9343 10.2937C21.7283 7.27498 22.8993 5.15624 24.318 3.50286C25.6339 1.96195 28.0463 0.590864 30.3576 0.285721Z" fill="white"/>
<path d="M39.7038 32.1634C39.7038 32.194 39.7038 32.2207 39.7038 32.2493C38.836 34.8772 37.5984 37.1294 36.088 39.2194C34.7092 41.1169 33.0196 43.6704 30.0027 43.6704C27.3958 43.6704 25.6642 41.9942 22.9924 41.9484C20.1663 41.9026 18.6121 43.3501 16.0281 43.7143C15.7324 43.7143 15.4369 43.7143 15.1471 43.7143C13.2496 43.4397 11.7182 41.9369 10.6026 40.583C7.31301 36.5821 4.77096 31.414 4.29793 24.8005C4.29793 24.152 4.29793 23.5056 4.29793 22.8572C4.49816 18.124 6.79804 14.2756 9.85507 12.4105C11.4683 11.4189 13.6863 10.5741 16.1559 10.9517C17.2143 11.1157 18.2955 11.478 19.2433 11.8366C20.1415 12.1817 21.2648 12.7938 22.3289 12.7614C23.0497 12.7405 23.7667 12.3648 24.4934 12.0997C26.6216 11.3312 28.7079 10.4501 31.4578 10.8639C34.7626 11.3636 37.1082 12.832 38.5576 15.0975C35.7619 16.8768 33.5516 19.5581 33.9292 24.1368C34.2649 28.296 36.683 30.7294 39.7038 32.1634Z" fill="white"/>
</g>
</svg>
