<svg width="39" height="40" viewBox="0 0 39 40" fill="none" xmlns="http://www.w3.org/2000/svg">
<path d="M37.2857 18.7857H21.4994C20.7714 18.7857 20.2857 18.3 20.2857 17.5714V4.57851C20.2857 3.97143 20.7714 3.48571 21.2571 3.36423L37.0423 0.571426C37.4068 0.571426 37.7714 0.571426 38.0149 0.814283C38.3783 1.05714 38.5005 1.42137 38.5005 1.78571V17.5714C38.5005 18.3 38.0148 18.7857 37.2857 18.7857Z" fill="#00ADEF"/>
<path d="M16.6423 18.7857H2.07084C1.34284 18.7857 0.857117 18.3 0.857117 17.5714V7.85715C0.857117 7.25007 1.34284 6.76435 1.82855 6.64287L16.4 4.21429C16.7646 4.21429 17.1291 4.21429 17.3714 4.45715C17.736 4.70001 17.8571 5.06424 17.8571 5.42858V17.5714C17.8571 18.3 17.3714 18.7857 16.6423 18.7857Z" fill="#00ADEF"/>
<path d="M37.2857 39.4286C37.1646 39.4286 37.1645 39.4286 37.0423 39.4286L21.2571 36.6358C20.6503 36.5143 20.2857 36.0286 20.2857 35.4215V22.4286C20.2857 21.7 20.7714 21.2143 21.4994 21.2143H37.2857C38.0148 21.2143 38.5005 21.7 38.5005 22.4286V38.2143C38.5005 38.5786 38.3783 38.9429 38.0149 39.1857C37.8926 39.3071 37.5291 39.4286 37.2857 39.4286Z" fill="#00ADEF"/>
<path d="M16.6423 35.7857C16.5211 35.7857 16.5211 35.7857 16.4 35.7857L1.82855 33.3572C1.34284 33.2357 0.857117 32.75 0.857117 32.1429V22.4286C0.857117 21.7 1.34284 21.2143 2.07084 21.2143H16.6423C17.3714 21.2143 17.8571 21.7 17.8571 22.4286V34.5714C17.8571 34.9358 17.736 35.3 17.3714 35.5429C17.2503 35.6642 16.8857 35.7857 16.6423 35.7857Z" fill="#00ADEF"/>
</svg>
