<svg width="40" height="40" viewBox="0 0 40 40" fill="none" xmlns="http://www.w3.org/2000/svg">
<mask id="mask0_1976_1731" style="mask-type:luminance" maskUnits="userSpaceOnUse" x="0" y="0" width="40" height="40">
<path d="M39.7143 0.571426H0.857132V39.4286H39.7143V0.571426Z" fill="white"/>
</mask>
<g mask="url(#mask0_1976_1731)">
<path fill-rule="evenodd" clip-rule="evenodd" d="M24.9223 8.34353C24.2811 8.34353 23.7623 7.83862 23.7623 7.21496C23.7623 6.59131 24.2811 6.08868 24.9223 6.08868C25.5623 6.08868 26.0811 6.59131 26.0811 7.21496C26.0811 7.83862 25.5623 8.34353 24.9223 8.34353ZM15.6491 8.34353C15.0091 8.34353 14.4903 7.83862 14.4903 7.21496C14.4903 6.59131 15.0091 6.08868 15.6491 6.08868C16.2903 6.08868 16.8091 6.59131 16.8091 7.21496C16.8091 7.83862 16.2903 8.34353 15.6491 8.34353ZM25.6069 3.82456L26.0388 3.18948L26.4709 2.56342L27.4331 1.15611C27.5531 0.982506 27.504 0.749361 27.3257 0.63519C27.1497 0.518619 26.9074 0.566619 26.7931 0.740218L25.3234 2.88102L24.8823 3.52525C23.4857 2.99748 21.9291 2.70285 20.2857 2.70285C18.6446 2.70285 17.0857 2.99748 15.6891 3.52525L15.2503 2.88102L14.816 2.2481L13.7828 0.740218C13.664 0.566619 13.424 0.520904 13.2457 0.63519C13.0697 0.749361 13.0206 0.982506 13.1383 1.15611L14.1006 2.56342L14.5326 3.18948L14.9668 3.82456C11.6868 5.31188 9.46857 8.12879 9.46857 11.3524H31.1028C31.1028 8.12879 28.8846 5.31188 25.6069 3.82456ZM9.63542 12.8558H9.46857V29.4012C9.46857 30.7148 10.5646 31.7841 11.9177 31.7841H13.6823C13.6217 31.983 13.5886 32.1907 13.5886 32.4102V37.1736C13.5886 38.4187 14.6286 39.4286 15.9074 39.4286C17.1874 39.4286 18.2274 38.4187 18.2274 37.1736V32.4102C18.2274 32.1907 18.192 31.983 18.1337 31.7841H22.4377C22.3794 31.983 22.3463 32.1907 22.3463 32.4102V37.1736C22.3463 38.4187 23.384 39.4286 24.664 39.4286C25.9451 39.4286 26.9851 38.4187 26.9851 37.1736V32.4102C26.9851 32.1907 26.9497 31.983 26.8891 31.7841H28.6571C30.0091 31.7841 31.1028 30.7148 31.1028 29.4012V12.8558H9.63542ZM5.60457 12.8558C4.32343 12.8558 3.28571 13.8656 3.28571 15.1107V24.7633C3.28571 26.0084 4.32343 27.0184 5.60457 27.0184C6.88457 27.0184 7.92229 26.0084 7.92229 24.7633V15.1107C7.92229 13.8656 6.88457 12.8558 5.60457 12.8558ZM34.9691 12.8558C33.6869 12.8558 32.6491 13.8656 32.6491 15.1107V24.7633C32.6491 26.0084 33.6869 27.0184 34.9691 27.0184C36.248 27.0184 37.2857 26.0084 37.2857 24.7633V15.1107C37.2857 13.8656 36.248 12.8558 34.9691 12.8558Z" fill="#95CF00"/>
</g>
</svg>
