<svg width="20" height="20" viewBox="0 0 20 20" fill="none" xmlns="http://www.w3.org/2000/svg">
<path d="M17.3583 6.67498L11.9 2.30831C10.8333 1.45831 9.16665 1.44997 8.10832 2.29997L2.64999 6.67498C1.86666 7.29998 1.39166 8.54997 1.55832 9.53331L2.60832 15.8166C2.84999 17.225 4.15832 18.3333 5.58332 18.3333H14.4167C15.825 18.3333 17.1583 17.2 17.4 15.8083L18.45 9.52498C18.6 8.54998 18.125 7.29998 17.3583 6.67498ZM10.625 15C10.625 15.3416 10.3417 15.625 9.99999 15.625C9.65832 15.625 9.37499 15.3416 9.37499 15V12.5C9.37499 12.1583 9.65832 11.875 9.99999 11.875C10.3417 11.875 10.625 12.1583 10.625 12.5V15Z" fill="white"/>
</svg>
