<svg width="15" height="18" viewBox="0 0 15 18" fill="none" xmlns="http://www.w3.org/2000/svg">
<path d="M13.369 5.97677L6.21551 0.731271C5.65677 0.322135 4.99566 0.0757051 4.30545 0.0192981C3.61524 -0.037109 2.92289 0.0987095 2.30514 0.411699C1.6874 0.724688 1.16839 1.20262 0.805636 1.79253C0.442887 2.38243 0.250571 3.06126 0.250005 3.75377V14.25C0.248927 14.9432 0.440238 15.6231 0.802642 16.214C1.16505 16.8049 1.68432 17.2837 2.30267 17.597C2.92103 17.9103 3.61419 18.0458 4.30501 17.9885C4.99583 17.9313 5.6572 17.6834 6.21551 17.2725L13.369 12.027C13.8437 11.6787 14.2296 11.2235 14.4957 10.6983C14.7617 10.173 14.9003 9.59253 14.9003 9.00377C14.9003 8.41501 14.7617 7.83452 14.4957 7.30929C14.2296 6.78407 13.8437 6.32886 13.369 5.98052V5.97677Z" fill="white"/>
</svg>
