<svg width="166" height="33" viewBox="0 0 166 33" fill="none" xmlns="http://www.w3.org/2000/svg">
<path d="M35.3253 18.6035V31.1812L38.3439 31.1547L41.3493 31.115L41.4155 23.8994L41.4817 16.6838L44.871 21.9134C47.9823 26.7194 48.2868 27.1431 48.6178 27.1431C49.0018 27.1431 49.7299 26.0971 54.6286 18.4579L55.7804 16.6441L55.8466 23.8861L55.9128 31.115L58.9314 31.1547L61.9368 31.1812V18.6035V6.02593L58.8785 6.05241L55.8069 6.09213L52.6162 11.004C50.8553 13.7049 49.2401 16.1807 49.015 16.5249L48.6178 17.1472L47.0555 14.7243C46.195 13.4004 44.593 10.9113 43.4808 9.20343L41.4552 6.09213L38.3836 6.05241L35.3253 6.02593V18.6035Z" fill="white"/>
<path d="M67.2327 18.6035V31.1812H70.2778H73.3229V27.2225V23.2639L76.2091 23.1977C79.519 23.1315 80.0221 23.0256 81.9154 22.0856C85.3047 20.3909 87.145 16.8692 86.5095 13.2415C85.927 9.86541 83.332 7.19102 79.7573 6.29072C78.7908 6.05241 78.2612 6.02593 72.9654 6.02593H67.2327V18.6035ZM77.9435 11.4542C80.5385 11.944 81.4255 15.2539 79.4396 17.0413C79.1483 17.3061 78.6717 17.5841 78.3936 17.6635C78.1156 17.743 76.8578 17.8092 75.6133 17.8092H73.3229V14.5655V11.3218H75.2956C76.368 11.3218 77.5728 11.3747 77.9435 11.4542Z" fill="#D24C35"/>
<path d="M111.982 18.6035V31.1812H114.829H117.676V27.2755C117.676 25.1307 117.715 23.3698 117.781 23.3698C117.834 23.383 119.211 25.1307 120.853 27.2755L123.832 31.1812H127.049C129.776 31.1812 130.253 31.1547 130.16 30.9958C130.107 30.8899 128.598 28.9834 126.811 26.7327C125.023 24.4952 123.488 22.5357 123.382 22.3768C123.223 22.112 123.408 21.834 126.599 17.7165C128.466 15.3069 129.988 13.2945 129.988 13.2547C129.988 13.215 128.505 13.1753 126.705 13.1753H123.408L121.608 15.6511C120.628 17.028 119.33 18.7889 118.748 19.5965L117.676 21.0529V13.5328V6.02593H114.829H111.982V18.6035Z" fill="#D24C35"/>
<path d="M96.0553 12.8443C92.5335 13.5196 89.7135 15.8365 88.5087 19.0537C88.1777 19.954 88.0983 20.3777 88.0453 21.6752C87.9262 24.6276 88.6808 26.5738 90.7197 28.6127C91.7392 29.6189 92.1364 29.9234 93.1823 30.4398C94.9167 31.2871 96.1612 31.5784 98.0809 31.5784C100.001 31.5784 101.232 31.2871 102.98 30.4265C104.039 29.9102 104.423 29.6321 105.429 28.6127C106.395 27.6462 106.74 27.1961 107.19 26.2825C107.984 24.6541 108.183 23.6479 108.103 21.7149C108.05 20.5895 107.958 19.9011 107.759 19.3582C107.137 17.6106 106.025 15.9821 104.727 14.9627C103.774 14.1948 101.854 13.2548 100.729 12.9767C99.4578 12.6722 97.2866 12.606 96.0553 12.8443ZM100.067 18.352C100.927 18.7492 101.669 19.4774 102.079 20.3247C102.503 21.2118 102.503 23.0256 102.066 23.9921C101.695 24.8394 100.954 25.5279 99.9477 25.9913C99.3255 26.2825 99.0209 26.3487 98.0809 26.3355C97.1277 26.3355 96.8364 26.2825 96.1347 25.9648C94.6254 25.2763 93.7119 23.8464 93.7119 22.1915C93.7119 20.2982 94.6651 18.9081 96.4392 18.1931C97.3925 17.8224 99.0871 17.8886 100.067 18.352Z" fill="#D24C35"/>
<path d="M139.031 12.8311C136.383 13.3342 134.304 14.5258 132.888 16.3528C130.055 19.9805 130.306 25.3822 133.47 28.573C135.496 30.6251 138.025 31.5784 141.454 31.5784C143.996 31.5784 145.889 31.0885 147.571 29.9896C148.299 29.513 149.715 28.2023 149.715 28.0037C149.715 27.911 148.947 27.4741 145.73 25.7265L145.254 25.4617L144.684 25.8721C142.804 27.2358 139.177 27.0637 137.786 25.5279C137.376 25.091 137.005 24.5481 137.005 24.4025C137.005 24.3363 140.037 24.2966 143.744 24.2966C150.033 24.2966 150.483 24.2834 150.576 24.0583C150.748 23.5817 150.801 21.6752 150.655 20.7219C150.311 18.5241 149.517 16.9619 147.981 15.4261C146.856 14.2875 145.492 13.5063 143.89 13.0429C142.606 12.6855 140.342 12.5796 139.031 12.8311ZM142.712 17.743C143.532 18.021 144.353 18.7492 144.75 19.5436C144.936 19.8878 145.081 20.2188 145.081 20.2585C145.081 20.2982 143.241 20.3247 140.977 20.3247C138.726 20.3247 136.873 20.2982 136.873 20.2718C136.873 20.2453 136.966 20.007 137.072 19.7422C137.323 19.1596 138.117 18.2593 138.621 17.9946C139.772 17.3988 141.427 17.2929 142.712 17.743Z" fill="#D24C35"/>
<path d="M164.438 12.9768C162.703 13.3607 161.181 14.3934 160.585 15.5982L160.307 16.1543V14.6582V13.1753H157.394H154.482L154.508 22.1385L154.548 31.115H157.394H160.241L160.307 26.4149C160.373 21.834 160.386 21.7016 160.678 21.0926C161.34 19.7422 162.703 19.0008 164.716 18.8948L166 18.8287V15.81V12.7782L165.643 12.7914C165.431 12.7914 164.901 12.8841 164.438 12.9768Z" fill="#D24C35"/>
<path d="M13.9433 1.31264C13.652 1.56419 12.2884 2.54392 10.8982 3.51041C6.46295 6.60848 4.29166 8.54146 2.63671 10.8716C1.24655 12.8311 0.544855 14.4596 0.174147 16.6044C-0.275999 19.1331 0.147668 21.3309 1.43191 23.2374C2.99418 25.5279 5.49646 26.8651 8.2503 26.8783C10.1038 26.8783 10.7393 26.6532 12.8842 25.2101L14.645 24.0053L16.1543 25.0645C17.9549 26.3355 18.2462 26.4943 19.3318 26.7459C21.2516 27.196 23.4096 26.8121 25.2764 25.6735C26.3885 25.0115 27.8052 23.4492 28.3612 22.2842C29.0629 20.8146 29.2748 19.7422 29.1953 18.0078C29.1027 16.1939 28.7584 14.8435 27.9376 13.1224C26.4018 9.94485 23.7274 7.23074 18.7096 3.77521C17.6239 3.02055 16.2602 2.0673 15.7042 1.63039C15.1481 1.20672 14.6318 0.862495 14.5788 0.862495C14.5259 0.875735 14.2346 1.07433 13.9433 1.31264ZM15.1746 6.4496C19.5966 12.2353 21.3045 14.5522 21.2516 14.6846C21.1721 14.8832 15.1216 23.0785 14.8039 23.4228C14.5788 23.6611 14.5391 23.6214 13.6653 22.4298C13.1622 21.7413 11.6661 19.7289 10.3422 17.9416C9.01819 16.1542 7.91931 14.6581 7.91931 14.6184C7.91931 14.5787 8.66072 13.5593 9.57426 12.3677C10.4878 11.1761 11.9839 9.20344 12.9106 7.97216C13.8242 6.75411 14.5921 5.76114 14.6053 5.76114C14.6318 5.76114 14.8833 6.07889 15.1746 6.4496Z" fill="url(#paint0_radial_1973_4435)"/>
<path d="M12.0633 12.3809C11.2822 12.7781 10.8982 13.4401 10.9115 14.3668C10.9247 15.6378 11.6132 16.6176 13.374 17.8753L14.5656 18.7227L15.691 17.9018C17.4253 16.644 18.0608 15.7835 18.1932 14.5257C18.3918 12.7913 16.4589 11.5203 15.0819 12.5001C14.8701 12.6589 14.6318 12.7781 14.5391 12.7781C14.4464 12.7781 14.2081 12.6589 13.9963 12.5001C13.4137 12.0896 12.7253 12.0499 12.0633 12.3809Z" fill="white"/>
<path d="M12.7518 28.4802C11.7324 28.9569 10.7394 29.407 10.5541 29.4732C10.2628 29.5791 10.1569 29.8042 9.73322 31.2738C9.46843 32.2006 9.26984 32.9684 9.29632 32.9949C9.32279 33.0214 9.93182 32.942 10.6468 32.8096C12.4738 32.4918 16.737 32.4918 18.564 32.8096C19.279 32.942 19.9012 33.0214 19.9277 32.9817C19.9807 32.942 19.0936 29.7247 19.0142 29.6586C18.9745 29.6188 14.6319 27.6064 14.6186 27.6064C14.6054 27.6064 13.7713 28.0036 12.7518 28.4802Z" fill="#D24C35"/>
<defs>
<radialGradient id="paint0_radial_1973_4435" cx="0" cy="0" r="1" gradientUnits="userSpaceOnUse" gradientTransform="translate(14.6871 26.9297) scale(13.9528 26.0672)">
<stop stop-color="#DE823E"/>
<stop offset="1" stop-color="#CB2F2F"/>
</radialGradient>
</defs>
</svg>
