<svg width="43" height="43" viewBox="0 0 43 43" fill="none" xmlns="http://www.w3.org/2000/svg">
<rect width="43" height="43" rx="21.5" fill="#FF0000"/>
<path d="M36.2258 14.1152C35.8716 12.7995 34.8342 11.7621 33.5185 11.4079C31.1148 10.75 21.4999 10.75 21.4999 10.75C21.4999 10.75 11.885 10.75 9.48132 11.3826C8.1909 11.7368 7.12821 12.7995 6.77398 14.1152C6.14142 16.5189 6.14142 21.5035 6.14142 21.5035C6.14142 21.5035 6.14142 26.5133 6.77398 28.8917C7.12821 30.2075 8.1656 31.2449 9.48132 31.5991C11.9103 32.257 21.4999 32.257 21.4999 32.257C21.4999 32.257 31.1148 32.257 33.5185 31.6244C34.8342 31.2702 35.8716 30.2328 36.2258 28.917C36.8584 26.5133 36.8584 21.5288 36.8584 21.5288C36.8584 21.5288 36.8837 16.5189 36.2258 14.1152Z" fill="white"/>
<path d="M18.4384 26.1085L26.4339 21.5035L18.4384 16.8984V26.1085Z" fill="#FF0000"/>
</svg>
