<svg width="43" height="43" viewBox="0 0 43 43" fill="none" xmlns="http://www.w3.org/2000/svg">
<rect width="43" height="43" rx="21.5" fill="#2AABEE"/>
<path fill-rule="evenodd" clip-rule="evenodd" d="M9.73244 21.2731C16.0001 18.5424 20.1796 16.7421 22.2708 15.8723C28.2415 13.3889 29.4822 12.9575 30.2909 12.9432C30.4687 12.9401 30.8664 12.9842 31.124 13.1932C31.3415 13.3697 31.4014 13.6081 31.43 13.7754C31.4586 13.9428 31.4943 14.3239 31.466 14.6218C31.1424 18.0215 29.7424 26.2715 29.0301 30.0792C28.7287 31.6904 28.1353 32.2306 27.5608 32.2834C26.3122 32.3983 25.3641 31.4583 24.1549 30.6656C22.2626 29.4252 21.1936 28.6531 19.3568 27.4426C17.2341 26.0438 18.6101 25.275 19.8199 24.0185C20.1365 23.6897 25.6376 18.686 25.744 18.2321C25.7574 18.1753 25.7697 17.9637 25.644 17.8519C25.5183 17.7402 25.3328 17.7784 25.1989 17.8088C25.0091 17.8519 21.9861 19.8499 16.13 23.803C15.272 24.3922 14.4948 24.6792 13.7984 24.6642C13.0308 24.6476 11.5541 24.2301 10.4564 23.8733C9.10992 23.4356 8.03979 23.2042 8.13298 22.4609C8.18151 22.0738 8.71467 21.6778 9.73244 21.2731Z" fill="white"/>
</svg>
