<svg width="43" height="43" viewBox="0 0 43 43" fill="none" xmlns="http://www.w3.org/2000/svg">
<rect width="43" height="43" rx="21.5" fill="black"/>
<path d="M28.4956 17.3156C30.4312 18.7042 32.8024 19.5212 35.3634 19.5212V14.5755C34.8788 14.5756 34.3953 14.5249 33.9211 14.424V18.3171C31.3603 18.3171 28.9894 17.5 27.0532 16.1116V26.2044C27.0532 31.2534 22.9748 35.3461 17.9441 35.3461C16.067 35.3461 14.3223 34.7766 12.873 33.7999C14.5272 35.4972 16.834 36.5502 19.3861 36.5502C24.4171 36.5502 28.4958 32.4575 28.4958 27.4083V17.3156H28.4956ZM30.2748 12.326C29.2856 11.2414 28.6361 9.83983 28.4956 8.29031V7.65417H27.1288C27.4728 9.62362 28.6463 11.3062 30.2748 12.326ZM16.055 29.9255C15.5023 29.1982 15.2036 28.3086 15.205 27.3938C15.205 25.0846 17.0704 23.2123 19.3719 23.2123C19.8008 23.2122 20.2271 23.2781 20.6359 23.4083V18.352C20.1582 18.2863 19.6761 18.2584 19.1942 18.2686V22.2042C18.7852 22.074 18.3586 22.0079 17.9296 22.0083C15.6281 22.0083 13.7628 23.8805 13.7628 26.19C13.7628 27.823 14.6952 29.2367 16.055 29.9255Z" fill="#FF004F"/>
<path d="M27.0536 16.1115C28.9897 17.4999 31.3606 18.317 33.9215 18.317V14.4239C32.492 14.1184 31.2266 13.3687 30.2751 12.326C28.6465 11.3061 27.4731 9.62351 27.1291 7.65417H23.5389V27.4081C23.5308 29.711 21.6685 31.5757 19.372 31.5757C18.0187 31.5757 16.8164 30.9283 16.055 29.9255C14.6953 29.2367 13.7629 27.8229 13.7629 26.1901C13.7629 23.8808 15.6283 22.0084 17.9297 22.0084C18.3707 22.0084 18.7957 22.0773 19.1943 22.2043V18.2687C14.252 18.3712 10.2772 22.4239 10.2772 27.4082C10.2772 29.8963 11.267 32.1519 12.8735 33.8C14.3228 34.7766 16.0675 35.3462 17.9445 35.3462C22.9753 35.3462 27.0537 31.2533 27.0537 26.2044V16.1115H27.0536Z" fill="white"/>
<path d="M33.9215 14.4239V13.3713C32.6325 13.3733 31.3688 13.011 30.2751 12.3259C31.2432 13.3896 32.518 14.123 33.9215 14.4239ZM27.1291 7.65417C27.0963 7.46596 27.0711 7.2765 27.0536 7.08633V6.4502H22.0965V26.2043C22.0886 28.5069 20.2264 30.3716 17.9297 30.3716C17.2554 30.3716 16.6188 30.211 16.055 29.9256C16.8164 30.9283 18.0187 31.5756 19.372 31.5756C21.6683 31.5756 23.5309 29.7111 23.5389 27.4082V7.65417H27.1291ZM19.1945 18.2687V17.1481C18.7803 17.0913 18.3627 17.0628 17.9446 17.063C12.9134 17.0629 8.83496 21.1558 8.83496 26.2043C8.83496 29.3695 10.4379 32.1589 12.8736 33.7998C11.2671 32.1518 10.2773 29.8961 10.2773 27.4081C10.2773 22.4239 14.252 18.3712 19.1945 18.2687Z" fill="#00F2EA"/>
</svg>
