<svg width="306" height="180" viewBox="0 0 306 180" fill="none" xmlns="http://www.w3.org/2000/svg">
<g clip-path="url(#clip0)">
<path d="M70.5229 71.2119H97.6878V77.342H77.5828V86.283H90.9674V92.4132H77.5828V102.424H98.3106V108.554H70.5229V71.2119Z" fill="white"/>
<path d="M96.354 82.0083H103.582L109.907 100.51L115.78 82.0083H122.784L113.069 108.552H106.574L96.354 82.0083Z" fill="white"/>
<path d="M121.677 95.3358C121.677 87.2386 127.326 81.5024 135.401 81.5024C143.421 81.5024 149.069 87.2386 149.069 95.3358C149.069 103.321 143.309 109.057 135.233 109.057C127.211 109.057 121.677 103.433 121.677 95.3358ZM141.951 95.5035V95.2799C141.951 90.2198 139.465 87.1827 135.399 87.1827C131.277 87.1827 128.791 90.2198 128.791 95.2799V95.5035C128.791 100.452 131.218 103.377 135.286 103.377C139.408 103.377 141.951 100.454 141.951 95.5035Z" fill="white"/>
<path d="M152.25 70.7061H159.31V108.552H152.25V70.7061Z" fill="white"/>
<path d="M163.338 97.9232V82.0083H170.342V97.5293C170.342 101.072 172.037 103.154 175.199 103.154C178.87 103.154 180.396 100.061 180.396 95.5063V82.011H187.4V108.554H180.396V104.788C178.984 107.543 176.555 109.063 173.112 109.063C167.065 109.058 163.338 104.783 163.338 97.9232Z" fill="white"/>
<path d="M193.799 101.522V87.6323H190.014V82.0079H193.799V77.0037L200.632 73.1787V82.0079H205.885V87.6323H200.576V100.848C200.576 102.142 201.196 102.703 202.495 102.759H205.601V108.551H200.18C195.04 108.269 193.912 105.908 193.799 101.522Z" fill="white"/>
<path d="M209.066 71.3237H216.35V78.1273H209.066V71.3237ZM209.181 82.0082H216.241V108.552H209.181V82.0082Z" fill="white"/>
<path d="M219.421 95.3358C219.421 87.2386 225.07 81.5024 233.146 81.5024C241.165 81.5024 246.814 87.2386 246.814 95.3358C246.814 103.321 241.053 109.057 232.977 109.057C224.958 109.057 219.421 103.433 219.421 95.3358ZM239.697 95.5035V95.2799C239.697 90.2198 237.211 87.1827 233.146 87.1827C229.023 87.1827 226.537 90.2198 226.537 95.2799V95.5035C226.537 100.452 228.965 103.377 233.031 103.377C237.155 103.377 239.697 100.454 239.697 95.5035Z" fill="white"/>
<path d="M249.939 82.0079H256.943V86.3387C258.354 83.2457 260.952 81.4463 264.738 81.4463C270.554 81.4463 274 85.3272 274 92.6365V108.551H266.996V93.0305C266.996 89.3199 265.585 87.4061 262.31 87.4061C258.977 87.4061 256.945 90.1051 256.945 95.0534V108.549H249.942L249.939 82.0079Z" fill="white"/>
<path d="M60.5709 113.446C59.3679 113.446 58.3949 112.475 58.3949 111.277C58.3976 110.076 59.3706 109.108 60.5709 109.108C61.7765 109.108 62.7468 110.076 62.7495 111.277C62.7468 112.475 61.7738 113.446 60.5709 113.446ZM60.5709 108.551C59.0632 108.551 57.8389 109.773 57.8389 111.277C57.8389 112.781 59.0632 114 60.5709 114C62.0812 114 63.3055 112.781 63.3055 111.277C63.3055 109.773 62.0812 108.551 60.5709 108.551Z" fill="white"/>
<path d="M56.1064 88.5823C58.2824 88.6515 60.6696 88.593 63.3053 88.3853C62.9257 83.1016 61.1988 78.7123 58.6112 75.3105C58.7342 76.2422 58.8037 77.1898 58.8037 78.156C58.8037 81.9384 57.8226 85.4919 56.1064 88.5823Z" fill="white"/>
<path d="M55.1949 90.0814C51.3135 95.9001 44.676 99.7357 37.1349 99.7357C36.5976 99.7357 36.0657 99.7091 35.5391 99.6718C33.6144 102.61 32.3713 105.874 31 108.943C44.5263 116.135 61.9928 108.552 63.3054 90.2411C60.2954 90.0042 57.6088 89.9616 55.1949 90.0814Z" fill="white"/>
<path d="M31 69.6863C34.7612 78.1135 37.5787 88.0048 56.1065 88.5824C57.8227 85.4921 58.8037 81.9386 58.8037 78.1561C58.8037 77.1899 58.7342 76.2423 58.6113 75.3107C52.2331 66.934 40.6208 64.5703 31 69.6863Z" fill="url(#paint0_radial)"/>
<path d="M55.1949 90.0811C44.0451 90.6294 38.8084 94.678 35.5391 99.6715C36.0657 99.7088 36.5976 99.7354 37.135 99.7354C44.676 99.7354 51.3135 95.8971 55.1949 90.0811Z" fill="url(#paint1_radial)"/>
<path d="M59.5252 110.836H59.1162V110.567H60.2764V110.836H59.87V111.989H59.5252V110.836Z" fill="white"/>
<path d="M60.4209 110.563H60.9662L61.2282 111.471L61.5009 110.563H62.0328V111.985H61.6933V110.838L61.3325 111.985H61.0625L60.715 110.843V111.985H60.4209V110.563V110.563Z" fill="white"/>
</g>
<defs>
<radialGradient id="paint0_radial" cx="0" cy="0" r="1" gradientUnits="userSpaceOnUse" gradientTransform="translate(60.0849 84.049) rotate(-151.079) scale(25.7258 23.0565)">
<stop stop-color="#080808"/>
<stop offset="0.8387" stop-color="white"/>
</radialGradient>
<radialGradient id="paint1_radial" cx="0" cy="0" r="1" gradientUnits="userSpaceOnUse" gradientTransform="translate(48.3572 99.7157) rotate(-118.07) scale(10.9664 28.9234)">
<stop stop-color="#080808"/>
<stop offset="0.8387" stop-color="white"/>
</radialGradient>
<clipPath id="clip0">
<rect width="243" height="47" fill="white" transform="translate(31 67)"/>
</clipPath>
</defs>
</svg>
