<svg width="306" height="180" viewBox="0 0 306 180" fill="none" xmlns="http://www.w3.org/2000/svg">
<path d="M85.2241 92.6616C87.9982 92.6625 90.7732 92.6877 93.5473 92.6443C94.2724 92.633 94.6735 92.8909 94.9783 93.5151C95.6876 94.9652 96.0697 96.4855 96.0731 98.0961C96.0836 102.816 96.0237 107.537 96.1053 112.256C96.2086 118.205 91.2742 123.194 85.449 122.857C82.5759 122.692 79.6854 122.794 76.8036 122.847C76.0048 122.862 75.8225 122.587 75.8234 121.862C75.8373 112.457 75.8381 103.054 75.8164 93.6497C75.8147 92.8257 76.1064 92.6269 76.9009 92.6408C79.675 92.692 82.45 92.6608 85.2241 92.6616ZM82.595 105.291C82.595 108.496 82.6141 111.702 82.5811 114.908C82.5733 115.689 82.7947 116.041 83.6222 115.98C84.3741 115.924 85.1347 115.98 85.8901 115.963C87.7334 115.921 89.2147 114.546 89.2355 112.687C89.2902 107.862 89.298 103.034 89.2668 98.2081C89.2538 96.2502 87.848 94.9087 85.904 94.8445C85.1842 94.8202 84.4574 94.8992 83.7446 94.8262C82.8121 94.7316 82.5698 95.1197 82.5811 95.9975C82.6219 99.0947 82.5976 102.193 82.595 105.291Z" fill="white"/>
<path d="M75.835 75.0236C75.8359 70.3748 75.8541 65.7261 75.8185 61.0783C75.8124 60.2465 76.0034 59.9504 76.8986 59.9712C79.6354 60.0338 82.3757 59.9843 85.1142 59.9964C91.0427 60.0225 95.4084 64.4229 95.4015 70.3358C95.3954 74.9845 95.3988 79.6323 95.418 84.2811C95.4258 86.1192 95.0524 87.8479 94.1676 89.4707C93.9098 89.9439 93.5929 90.1375 93.0571 90.1367C87.5801 90.1236 82.103 90.1132 76.626 90.1445C75.7412 90.1497 75.8385 89.6096 75.8376 89.0774C75.8324 85.5817 75.835 82.0869 75.8359 78.5913C75.835 77.4018 75.835 76.2131 75.835 75.0236ZM82.5268 77.4148C82.5268 80.2558 82.5172 83.0967 82.5294 85.9386C82.5389 88.1778 82.215 87.9868 84.6323 87.9755C87.3309 87.9625 88.5552 86.7192 88.5595 83.9884C88.5647 79.8885 88.5482 75.7885 88.5456 71.6885C88.543 67.7205 87.6096 66.8236 83.6407 66.8314C82.7169 66.8332 82.4946 67.1544 82.5085 68.0279C82.5563 71.1563 82.5276 74.2855 82.5268 77.4148Z" fill="white"/>
<path d="M171.637 103.547C171.638 100.342 171.677 97.1359 171.615 93.9311C171.595 92.8666 171.953 92.5436 172.983 92.6104C174.238 92.6912 175.502 92.6304 176.763 92.6304C178.335 92.6295 178.341 92.6287 178.34 94.1551C178.337 100.098 178.334 106.041 178.321 111.983C178.317 113.481 178.73 114.782 180.103 115.553C182.304 116.787 185.03 115.196 185.046 112.639C185.083 106.517 185.066 100.394 185.07 94.2706C185.071 92.6295 185.067 92.6278 186.729 92.6261C188.098 92.6243 189.467 92.6521 190.834 92.6139C191.597 92.5931 191.943 92.8197 191.94 93.6506C191.914 99.989 191.987 106.329 191.896 112.667C191.816 118.283 187.444 122.726 181.919 122.85C176.095 122.981 171.769 118.27 171.65 113.163C171.575 109.959 171.636 106.753 171.637 103.547Z" fill="#FAC533"/>
<path d="M171.644 79.2495C171.644 76.188 171.624 73.1256 171.648 70.0649C171.686 65.4092 175.019 61.2554 179.531 60.1962C185.632 58.7626 191.81 63.4435 191.905 69.7107C192.003 76.1567 191.919 82.6053 191.937 89.0531C191.939 89.8094 191.648 90.0751 190.914 90.0603C189.365 90.029 187.814 90.0021 186.268 90.0672C185.305 90.1081 185.044 89.7547 185.049 88.8187C185.087 82.6592 185.087 76.4997 185.066 70.341C185.058 68.0679 183.548 66.7229 181.32 66.9061C179.63 67.0451 178.373 68.6279 178.366 70.6788C178.35 76.082 178.349 81.4844 178.343 86.8876C178.342 87.6083 178.321 88.329 178.352 89.0488C178.384 89.7981 178.054 90.0733 177.319 90.0586C175.771 90.0273 174.221 90.0152 172.673 90.0603C171.855 90.0837 171.616 89.7573 171.623 88.9767C171.653 85.7355 171.635 82.4933 171.635 79.2512C171.638 79.2495 171.641 79.2495 171.644 79.2495Z" fill="#FAC533"/>
<path d="M147.452 75.4499C147.581 73.1273 147.152 70.4756 147.825 67.8908C148.888 63.8064 151.466 61.074 155.585 60.1936C159.446 59.3687 162.843 60.5157 165.5 63.5598C167.25 65.5647 167.886 67.9429 167.897 70.539C167.902 71.6921 167.907 72.8451 167.88 73.9973C167.863 74.7605 167.535 75.1512 166.667 75.1096C165.229 75.0401 163.783 75.0488 162.345 75.1078C161.326 75.1504 161.002 74.7076 161.041 73.7551C161.086 72.6402 161.072 71.521 161.043 70.4044C160.987 68.2103 159.687 66.8732 157.661 66.8871C155.732 66.9001 154.35 68.397 154.336 70.5051C154.322 72.6307 154.421 74.7623 154.295 76.8817C154.002 81.8013 155.848 85.6373 159.848 88.4809C160.359 88.8439 161.259 89.2728 161.062 89.8172C160.855 90.3902 159.904 90.0247 159.288 90.0334C156.695 90.0672 154.1 90.0186 151.506 90.0655C150.757 90.0794 150.327 89.8033 149.928 89.2042C148.254 86.6949 147.594 83.886 147.465 80.9339C147.39 79.2078 147.452 77.4756 147.452 75.4499Z" fill="#FAC533"/>
<path d="M167.736 107.024C167.736 108.931 167.748 110.84 167.733 112.747C167.693 118.143 162.865 123.14 156.924 122.816C151.835 122.538 147.12 117.887 147.389 112.523C147.45 111.303 147.429 110.075 147.394 108.852C147.372 108.081 147.628 107.738 148.45 107.764C149.996 107.81 151.546 107.803 153.093 107.77C153.876 107.753 154.208 108.034 154.174 108.84C154.123 110.063 154.088 111.291 154.141 112.511C154.268 115.371 156.962 116.857 159.365 115.408C160.247 114.876 160.812 114.051 160.824 113.031C160.861 109.611 160.987 106.181 160.765 102.775C160.555 99.5715 158.869 97.024 156.334 95.0521C155.625 94.5008 154.945 93.9138 154.26 93.3338C154.101 93.1992 153.908 93.0438 154.032 92.7929C154.128 92.5993 154.337 92.6323 154.51 92.6323C157.714 92.6305 160.917 92.6357 164.121 92.6323C164.677 92.6314 164.932 93.0117 165.205 93.4024C166.861 95.7754 167.616 98.4479 167.731 101.3C167.807 103.205 167.746 105.115 167.746 107.024C167.741 107.024 167.739 107.024 167.736 107.024Z" fill="#FAC533"/>
<path d="M101.016 74.9828C101.016 70.3749 101.047 65.7661 100.992 61.1582C100.979 60.1736 101.284 59.9643 102.212 59.9721C107.323 60.0164 112.436 60.0147 117.548 59.9756C118.469 59.9687 118.728 60.2569 118.685 61.1547C118.611 62.7358 118.637 64.3222 118.663 65.9059C118.675 66.6509 118.396 66.9105 117.641 66.9009C114.761 66.8645 111.88 66.9139 109.001 66.8653C108.131 66.8506 107.797 67.0607 107.802 67.9975C107.838 74.2612 107.834 80.5258 107.805 86.7904C107.801 87.6873 108.091 87.9704 108.995 87.9539C111.875 87.9 114.755 87.9643 117.635 87.9122C118.531 87.8957 118.729 88.2456 118.737 89.0548C118.746 89.8745 118.45 90.0872 117.66 90.082C112.44 90.0499 107.219 90.036 102 90.0872C101.106 90.0959 100.988 89.7547 100.991 89.0227C101.008 84.3427 100.999 79.6619 100.999 74.9819C101.005 74.9828 101.011 74.9828 101.016 74.9828Z" fill="white"/>
<path d="M101.001 107.62C101 103.009 101.022 98.3975 100.982 93.787C100.974 92.8675 101.191 92.5601 102.179 92.5706C107.33 92.6253 112.482 92.6157 117.633 92.5732C118.534 92.5654 118.734 92.8901 118.719 93.7045C118.704 94.4712 118.6 94.8949 117.658 94.8767C114.741 94.8194 111.821 94.8888 108.905 94.8333C108.058 94.8176 107.856 95.1181 107.857 95.89C107.871 102.23 107.867 108.57 107.839 114.911C107.836 115.7 108.07 115.977 108.891 115.967C111.772 115.928 114.655 116.007 117.535 115.945C118.529 115.924 118.772 116.27 118.727 117.189C118.653 118.735 118.653 120.287 118.68 121.835C118.693 122.581 118.433 122.848 117.677 122.844C112.418 122.817 107.158 122.805 101.899 122.839C101.028 122.845 100.993 122.427 100.995 121.778C101.007 117.058 101.002 112.339 101.001 107.62Z" fill="white"/>
<path d="M130.082 78.3752C130.082 74.8796 130.058 71.3839 130.1 67.8891C130.11 67.0721 129.862 66.8238 129.058 66.8524C127.474 66.908 125.887 66.8359 124.302 66.8819C123.573 66.9028 123.353 66.6206 123.365 65.9355C123.395 64.2424 123.398 62.5484 123.373 60.8553C123.363 60.1963 123.614 59.9801 124.268 59.9818C130.178 59.9992 136.087 60.0026 141.997 59.9766C142.78 59.9731 142.986 60.2701 142.966 60.9994C142.923 62.6196 142.92 64.2424 142.953 65.8635C142.968 66.6024 142.732 66.9002 141.958 66.8698C140.627 66.8177 139.29 66.8958 137.96 66.8368C137.104 66.7986 136.848 67.0964 136.851 67.9499C136.877 74.8683 136.836 81.7867 136.882 88.705C136.889 89.8129 136.566 90.1559 135.473 90.0882C134.002 89.997 132.519 90.0274 131.043 90.0804C130.264 90.1082 130.054 89.8129 130.059 89.0767C130.086 85.5098 130.071 81.9421 130.071 78.3744C130.074 78.3752 130.079 78.3752 130.082 78.3752Z" fill="white"/>
<path d="M223.36 78.3752C223.36 74.8796 223.335 71.3839 223.378 67.8891C223.387 67.0721 223.14 66.8238 222.335 66.8524C220.751 66.908 219.164 66.8359 217.579 66.8819C216.85 66.9028 216.63 66.6206 216.643 65.9355C216.672 64.2424 216.676 62.5484 216.65 60.8553C216.641 60.1963 216.892 59.9801 217.546 59.9818C223.455 59.9992 229.364 60.0026 235.274 59.9766C236.057 59.9731 236.264 60.2701 236.244 60.9994C236.2 62.6196 236.198 64.2424 236.231 65.8635C236.246 66.6024 236.009 66.9002 235.236 66.8698C233.905 66.8177 232.568 66.8958 231.237 66.8368C230.381 66.7986 230.125 67.0964 230.129 67.9499C230.155 74.8683 230.114 81.7867 230.159 88.705C230.166 89.8129 229.844 90.1559 228.751 90.0882C227.279 89.997 225.796 90.0274 224.321 90.0804C223.542 90.1082 223.331 89.8129 223.336 89.0767C223.363 85.5098 223.348 81.9421 223.348 78.3744C223.352 78.3752 223.356 78.3752 223.36 78.3752Z" fill="#FAC533"/>
<path d="M196.32 74.9107C196.32 70.374 196.35 65.8381 196.299 61.3023C196.286 60.2369 196.647 59.9686 197.667 59.9782C202.743 60.0233 207.82 60.0216 212.896 59.9756C213.931 59.966 214.305 60.2656 214.241 61.3196C214.16 62.6828 214.226 64.0547 214.223 65.4231C214.221 66.8861 214.219 66.8844 212.805 66.8844C209.997 66.8835 207.188 66.9122 204.381 66.8688C203.479 66.8549 203.2 67.1726 203.204 68.0609C203.234 74.2534 203.24 80.4459 203.207 86.6375C203.201 87.6117 203.465 87.9642 204.489 87.9408C207.367 87.8757 210.249 87.9382 213.129 87.9052C213.901 87.8965 214.234 88.117 214.242 88.9376C214.251 89.7885 213.944 90.0594 213.101 90.055C207.88 90.0298 202.66 90.0298 197.44 90.0715C196.487 90.0793 196.299 89.6834 196.304 88.8429C196.331 84.1986 196.317 79.5542 196.317 74.9098C196.317 74.9107 196.319 74.9107 196.32 74.9107Z" fill="#FAC533"/>
<path d="M196.312 107.631C196.313 103.055 196.338 98.4799 196.293 93.905C196.284 92.9178 196.563 92.6009 197.577 92.6095C202.729 92.6547 207.881 92.6417 213.033 92.6095C213.905 92.6043 214.272 92.8535 214.248 93.773C214.227 94.5814 213.914 94.8306 213.137 94.8236C210.291 94.7967 207.444 94.854 204.599 94.8063C203.556 94.7889 203.215 95.1649 203.218 96.1912C203.241 104.586 203.226 112.979 203.222 121.374C203.221 122.869 203.218 122.869 201.732 122.868C200.363 122.867 198.992 122.819 197.626 122.879C196.643 122.923 196.287 122.571 196.295 121.574C196.332 116.925 196.311 112.278 196.312 107.631Z" fill="#FAC533"/>
<path d="M136.842 107.799C136.842 112.406 136.819 117.013 136.861 121.62C136.87 122.559 136.609 122.9 135.642 122.849C134.207 122.772 132.758 122.752 131.326 122.853C130.221 122.931 130.02 122.496 130.038 121.502C130.096 118.336 130.06 115.168 130.061 112.001C130.063 105.918 130.082 99.8353 130.056 93.7531C130.052 92.8961 130.232 92.5193 131.186 92.5705C132.693 92.6521 134.211 92.6513 135.718 92.5748C136.665 92.5271 136.875 92.8926 136.869 93.7618C136.836 98.4409 136.853 103.12 136.853 107.798C136.85 107.799 136.846 107.799 136.842 107.799Z" fill="white"/>
<path d="M230.226 107.665C230.226 112.309 230.204 116.952 230.243 121.596C230.252 122.581 229.952 122.944 228.943 122.886C227.579 122.808 226.208 122.869 224.84 122.866C223.43 122.864 223.349 122.794 223.345 121.422C223.337 118.83 223.342 116.239 223.342 113.647C223.341 107.131 223.34 100.616 223.339 94.1004C223.339 92.6912 223.399 92.6322 224.784 92.6304C226.188 92.6287 227.593 92.6747 228.995 92.6087C229.941 92.5636 230.249 92.8961 230.242 93.8425C230.205 98.4505 230.226 103.058 230.226 107.665Z" fill="#FAC533"/>
<path d="M57.6895 91.3472C57.6895 87.9245 57.6851 84.5009 57.6956 81.0781C57.6964 80.743 57.5219 80.2811 57.956 80.1204C58.3112 79.9893 58.5126 80.3818 58.7349 80.5989C62.1307 83.9252 65.5109 87.2689 68.924 90.5779C69.5127 91.1483 69.603 91.5104 68.964 92.1347C65.51 95.5079 62.1003 98.9263 58.668 102.323C58.4544 102.535 58.266 102.92 57.8796 102.728C57.5645 102.571 57.6956 102.212 57.6947 101.94C57.6878 98.4097 57.6904 94.8784 57.6895 91.3472Z" fill="#FAC533"/>
<path d="M250.981 91.4702C250.981 94.9294 250.985 98.3877 250.975 101.847C250.974 102.153 251.11 102.56 250.762 102.733C250.378 102.924 250.199 102.51 249.986 102.301C246.578 98.933 243.185 95.5485 239.767 92.19C239.173 91.6065 239.146 91.1646 239.754 90.5733C243.187 87.233 246.598 83.8685 250.019 80.5144C250.218 80.319 250.414 79.9925 250.726 80.1184C251.101 80.2704 250.974 80.6776 250.974 80.985C250.982 84.4798 250.98 87.9754 250.981 91.4702Z" fill="#FAC533"/>
</svg>
