<svg width="306" height="180" viewBox="0 0 306 180" fill="none" xmlns="http://www.w3.org/2000/svg">
<g clip-path="url(#clip0_720_6570)">
<path d="M116.49 93.161C116.411 88.9159 114.333 84.7634 110.466 82.8326C101.35 78.2701 92.1816 73.8267 83.079 69.2774C76.9361 65.3762 68.4912 69.0791 68.2939 76.6567C68.1229 91.6269 96.1146 85.7817 93.7206 102.431C93.1418 106.174 91.4318 109.877 88.3275 112.151C79.0539 119.319 66.9653 117.031 57.7049 111.093C54.7321 109.414 51.9829 106.862 48.3918 106.796C43.709 106.465 40.039 108.303 37.3161 112.085C36.3559 113.421 36.7242 114.902 38.1317 115.749C48.7338 122.03 59.3491 128.325 69.9644 134.594C75.9627 138.508 81.9609 133.231 87.1831 130.401C90.8136 128.471 94.4309 126.474 97.9694 124.371C118.792 112.932 116.556 117.031 116.464 93.161H116.49Z" fill="url(#paint0_linear_720_6570)"/>
<path d="M103.981 116.608C107.532 108.792 105.204 99.0986 98.5876 93.6897C91.1292 88.5057 81.8425 86.7733 73.6212 83.0704C69.4645 81.4835 67.965 76.7358 69.2935 72.7949C68.5701 73.9851 68.307 75.3076 68.2938 76.6565C67.9387 84.0887 75.4496 86.2707 81.0138 88.5718C83.3289 89.5769 85.644 90.5687 87.946 91.587C94.8387 94.2452 95.1149 103.278 91.3792 108.938C90.8267 109.639 90.2742 110.326 89.7218 111.027C87.8144 112.733 85.6177 114.016 83.2763 115.021C72.4374 119.676 61.5064 113.778 52.4695 107.893C47.0895 105.301 40.6178 107.192 37.3029 112.138C36.369 113.474 36.7768 114.968 38.1974 115.788C48.8127 122.083 59.4149 128.365 70.0565 134.646C76.081 138.495 82.053 133.152 87.3146 130.348C90.9188 128.431 94.4835 126.46 97.9956 124.371C97.9956 124.318 97.9956 124.252 97.9956 124.199C99.9819 122.638 101.718 120.84 102.942 118.605C103.284 117.944 103.678 117.296 103.981 116.608Z" fill="url(#paint1_linear_720_6570)"/>
<path d="M111.439 62.731C101.692 56.9387 91.9711 51.0934 82.2372 45.3011C77.8437 42.4049 72.8846 44.8911 68.9911 47.4434C61.3223 51.5563 53.7587 55.9072 46.1557 60.1522C41.657 62.4533 35.8692 64.966 35.935 70.8906C35.8429 75.215 35.8561 79.5394 35.935 83.8639C35.593 87.9238 36.79 91.8251 40.0127 94.4435C49.6941 100.117 60.2831 104.375 70.3985 109.281C72.2138 110.101 74.0817 110.273 76.0153 109.916C82.5792 109.189 86.236 99.3763 80.4219 94.7741C76.8572 91.8912 72.1349 91.0051 68.0834 88.9818C65.3079 87.7783 62.2825 87.0245 60.1384 84.6574C58.2968 82.3563 57.6786 79.4469 58.1916 76.5771C60.1647 63.2203 77.5412 60.5093 87.8802 65.6933C94.7072 68.2325 101.6 76.9474 109.006 70.9699C110.663 69.7797 111.768 68.1267 112.439 66.1826C113.228 65.0982 112.61 63.4055 111.465 62.7178L111.439 62.731Z" fill="url(#paint2_linear_720_6570)"/>
<path d="M98.1666 69.0263C90.1558 63.0092 79.7905 58.7376 69.6882 60.7081C52.1933 65.059 45.7084 85.6231 55.2845 99.1783C57.7443 103.952 60.4277 104.706 65.0711 106.835C67.1494 107.748 69.6092 108.819 71.8323 109.784C77.6069 111.371 84.1576 106.822 83.2763 100.025C82.908 96.6392 80.2903 94.0604 77.2649 92.7776C72.5426 90.8204 67.7677 88.969 63.1112 86.8795C62.0062 86.3108 60.9802 85.5835 60.1383 84.6445C58.2968 82.3435 57.6785 79.4341 58.1916 76.5643C59.1386 67.9022 68.0439 63.4456 75.9363 63.1678C84.0129 62.824 91.3529 66.9897 97.8378 71.4067C102.639 74.7922 110.084 72.4779 112.11 66.9368C108.769 71.3274 102.639 72.3854 98.1798 68.9999L98.1666 69.0263Z" fill="url(#paint3_linear_720_6570)"/>
<path d="M159.478 67.9414V84.8159H155.189V77.344C155.11 77.2647 155.032 77.2647 155.032 77.1853C154.571 77.7276 154.032 78.1904 153.571 78.7326L151.888 80.4254C151.427 80.8882 151.125 80.8882 150.664 80.4254C149.744 79.4203 148.823 78.4285 147.902 77.5027C147.823 77.4234 147.744 77.344 147.521 77.1192V84.8291H143.153V67.9546C144.074 67.7298 144.758 67.9546 145.455 68.7216C147.376 70.9566 149.362 73.0328 151.362 75.1884C153.348 73.0328 155.347 70.9566 157.189 68.7216C157.807 67.9546 158.491 67.6372 159.491 67.9546L159.478 67.9414Z" fill="white"/>
<path d="M233.495 67.5581C238.546 67.5581 242.072 71.1816 242.072 76.3392C242.072 81.4968 238.468 85.1203 233.337 85.1203C228.207 85.1203 224.761 81.4968 224.761 76.3392C224.761 71.1816 228.365 67.5581 233.495 67.5581ZM237.639 76.4186C237.639 74.263 236.56 72.6496 234.798 72.028C232.575 71.261 230.194 72.4115 229.51 74.7258C228.668 77.3443 229.812 80.1214 232.114 80.8091C234.955 81.6555 237.626 79.5792 237.626 76.4186H237.639Z" fill="white"/>
<path d="M180.169 67.942C183.01 67.942 185.759 67.7833 188.522 68.0213C190.968 68.18 192.665 69.714 193.349 72.1077C194.033 74.5675 193.507 76.8024 191.508 78.5084C191.429 78.5877 191.284 78.6671 191.126 78.8125C192.126 80.3598 193.047 81.9732 194.033 83.5866C194.257 83.8908 194.336 84.2743 194.573 84.8165H190.048C189.824 84.8165 189.587 84.5123 189.429 84.2743C188.666 82.9651 187.969 81.6558 187.285 80.3466C186.983 79.725 186.601 79.5002 185.904 79.5796C185.523 79.6589 185.062 79.5796 184.523 79.5796V84.8165H180.156V67.942H180.169ZM184.457 75.956C185.536 75.956 186.522 76.0354 187.443 75.956C188.522 75.8767 189.127 75.189 189.206 74.0253C189.285 72.8615 188.824 71.949 187.903 71.8696C186.759 71.7903 185.601 71.8696 184.457 71.8696V75.956Z" fill="white"/>
<path d="M139.786 73.0335H135.721C135.037 71.4863 133.341 70.9573 131.815 71.7243C131.275 72.0285 130.973 72.412 131.052 73.0335C131.052 73.7212 131.433 74.1179 132.051 74.1841C133.051 74.4089 134.117 74.4882 135.116 74.6469C135.879 74.8056 136.576 74.9511 137.339 75.1891C141.022 76.419 141.022 81.0476 139.102 82.9652C138.102 84.0496 136.8 84.6579 135.419 84.896C133.275 85.2795 131.21 85.2001 129.289 84.1289C127.526 83.2032 126.606 81.6692 126.527 79.5797H130.591C131.433 81.1931 133.433 81.7353 135.116 80.8889C135.656 80.5848 136.037 80.2012 135.958 79.5797C135.958 78.892 135.577 78.4292 134.958 78.2705C134.419 78.1118 133.814 78.0456 133.275 77.9663C132.196 77.7415 131.052 77.6621 130.052 77.3447C128.289 76.8025 127.066 75.652 126.829 73.6419C126.606 71.5656 127.211 69.7142 129.052 68.6298C131.815 66.937 134.722 66.937 137.484 68.5504C139.023 69.6348 139.707 71.0895 139.786 73.0203V73.0335Z" fill="white"/>
<path d="M209.134 79.6589H213.199C214.198 81.2723 215.803 81.8145 217.487 81.1268C218.25 80.8227 218.631 80.2804 218.631 79.6589C218.552 78.8919 218.092 78.429 217.408 78.2703C216.408 78.0455 215.343 78.0455 214.343 77.8075C213.725 77.7281 213.199 77.5826 212.659 77.3446C210.976 76.723 209.752 75.6519 209.437 73.7211C209.213 71.7242 209.739 69.9521 211.502 68.709C213.948 66.9369 218.013 66.9369 220.473 68.7883C221.775 69.7934 222.459 71.182 222.459 72.8747H218.394C217.71 71.3274 215.869 70.7984 214.409 71.6448C213.869 71.949 213.725 72.3325 213.725 72.954C213.725 73.5756 214.106 73.9591 214.646 74.1046C215.645 74.3294 216.711 74.4087 217.71 74.6468C218.473 74.8055 219.171 74.951 219.933 75.189C223.761 76.4189 223.682 81.1929 221.696 83.1237C220.618 84.1288 219.473 84.7371 218.092 84.9752C215.711 85.438 213.488 85.2 211.423 83.8908C209.884 82.965 209.121 81.4971 209.121 79.6589H209.134Z" fill="white"/>
<path d="M178.551 84.8159H173.947C173.868 84.5911 173.644 84.4324 173.566 84.1283C173.263 82.9777 172.566 82.581 171.343 82.6603C170.04 82.819 168.659 82.7397 167.278 82.6603C166.66 82.6603 166.357 82.819 166.199 83.348C165.897 84.5779 165.121 84.8953 163.897 84.7366C162.977 84.6573 162.135 84.7366 161.214 84.7366C161.135 84.7366 161.056 84.6573 160.911 84.6573C160.99 84.3531 160.99 84.0357 161.135 83.7315C163.516 78.574 165.963 73.4032 168.343 68.2456C168.725 67.4786 169.264 67.7034 169.804 67.624C170.343 67.624 170.724 67.624 171.027 68.2456C173.329 73.3238 175.697 78.4153 178.077 83.4935C178.38 83.9564 178.38 84.3399 178.538 84.8027L178.551 84.8159ZM169.817 74.9504C169.198 76.4184 168.672 77.7276 168.133 79.0368H171.5C170.961 77.6482 170.422 76.4184 169.817 74.9504Z" fill="white"/>
<path d="M254.568 79.3544H249.201V84.75H244.834V67.8755H255.252V71.6445H249.28V75.4135H254.568V79.3412V79.3544Z" fill="white"/>
<path d="M265.078 84.8162H260.869V71.79H256.725V67.8623H269.143V71.7107H265.078C265.078 76.1012 265.078 80.4124 265.078 84.803V84.8162Z" fill="white"/>
<path d="M203.609 71.8032V84.8294H199.4V71.8825H195.257V68.0342H207.674V71.8825C206.372 71.8032 205.069 71.8032 203.609 71.8032V71.8032Z" fill="white"/>
<path d="M178.551 94.6021V111.477H176.565V99.6143C176.486 99.6143 176.486 99.5349 176.407 99.5349C174.644 101.995 172.803 104.468 170.895 107.165C168.975 104.547 167.212 102.087 165.384 99.5349C165.331 99.5349 165.279 99.5614 165.226 99.6143V111.477H163.161V94.6815C163.845 94.3773 164.081 94.7608 164.463 95.2237C166.607 98.1463 168.751 101.003 170.895 104.005C171.119 103.78 171.277 103.542 171.514 103.317C173.5 100.619 175.42 97.9215 177.42 95.3031C177.643 94.8402 177.88 94.3773 178.564 94.6154L178.551 94.6021Z" fill="white"/>
<path d="M225.537 99.3765H223.617C222.157 96.7581 219.934 95.753 217.026 96.2159C214.264 96.6787 212.357 98.6756 211.817 101.453C211.515 103.225 211.66 104.918 212.501 106.531C213.804 109.149 216.566 110.3 219.71 109.692C222.393 109.149 224.077 107.153 224.235 104.296H218.329V102.683H226.063C226.747 107.999 222.696 112.231 217.487 111.768C212.436 111.305 209.213 107.298 209.673 102.14C210.213 95.8191 216.106 92.9759 221.394 94.8934C223.538 95.7398 224.761 97.049 225.537 99.3633V99.3765Z" fill="white"/>
<path d="M141.47 104.389H135.564V102.696H143.232C144.074 105.936 141.851 110.089 138.405 111.252C132.196 113.408 126.066 109.176 126.829 101.85C127.513 95.3035 134.038 92.9099 139.089 95.1448C140.93 95.9912 141.996 97.3004 142.614 99.3105H140.694C140.154 97.922 139.155 96.9169 137.55 96.454C131.723 94.9068 128.197 99.0725 128.816 104.085C129.197 106.862 130.578 108.859 133.419 109.626C135.024 110.009 136.563 109.93 138.089 109.242C140.233 108.396 141.233 106.703 141.457 104.389H141.47Z" fill="white"/>
<path d="M206.148 111.477C205.464 111.702 205.227 111.173 204.925 110.855C201.702 107.086 198.492 103.304 195.27 99.6013C195.112 99.3764 194.967 99.2177 194.651 98.9136V111.477H192.81V94.6817C193.349 94.3776 193.573 94.7611 193.889 95.1446C196.874 98.6094 199.86 102.154 202.86 105.618C203.32 106.161 203.78 106.624 204.241 107.232V94.6685H206.161V111.464L206.148 111.477Z" fill="white"/>
<path d="M146.218 111.477H143.995C146.679 105.777 149.283 100.156 151.888 94.6021H152.887C155.492 100.222 158.096 105.777 160.701 111.477H158.478C157.939 110.326 157.333 109.162 156.794 108.012C156.571 107.549 156.334 107.324 155.794 107.324H148.823C148.284 107.324 147.981 107.483 147.744 108.012C147.363 109.162 146.744 110.326 146.205 111.477H146.218ZM152.427 97.6834C151.204 100.381 150.046 102.92 148.981 105.459H155.952C154.729 102.92 153.571 100.381 152.427 97.6834V97.6834Z" fill="white"/>
<path d="M189.587 109.929V111.477H181.774V109.929H184.615V96.2154H182.01V94.6021H189.364V96.1493H186.759V109.863C187.68 109.943 188.601 109.943 189.6 109.943L189.587 109.929Z" fill="white"/>
</g>
<defs>
<linearGradient id="paint0_linear_720_6570" x1="76.7125" y1="135.982" x2="76.7125" y2="67.7037" gradientUnits="userSpaceOnUse">
<stop stop-color="#F30135"/>
<stop offset="1" stop-color="#EF013A"/>
</linearGradient>
<linearGradient id="paint1_linear_720_6570" x1="84.2497" y1="89.4711" x2="61.9687" y2="129.864" gradientUnits="userSpaceOnUse">
<stop stop-color="#970607"/>
<stop offset="1" stop-color="#EF013A"/>
</linearGradient>
<linearGradient id="paint2_linear_720_6570" x1="74.3184" y1="110.088" x2="74.3184" y2="44.0051" gradientUnits="userSpaceOnUse">
<stop stop-color="#C8051E"/>
<stop offset="1" stop-color="#E80531"/>
</linearGradient>
<linearGradient id="paint3_linear_720_6570" x1="81.4742" y1="61.0784" x2="81.4742" y2="110.472" gradientUnits="userSpaceOnUse">
<stop offset="0.38" stop-color="#910601"/>
<stop offset="1" stop-color="#DD0427"/>
</linearGradient>
<clipPath id="clip0_720_6570">
<rect width="306" height="180" fill="white"/>
</clipPath>
</defs>
</svg>
