<svg width="306" height="180" viewBox="0 0 306 180" fill="none" xmlns="http://www.w3.org/2000/svg">
<path d="M246.999 52.061C246.999 67.916 246.999 82.83 246.999 97.7431C246.999 101.62 247.002 105.497 246.998 109.374C246.991 115.62 244.787 117.866 238.629 117.867C214.329 117.872 190.029 117.869 165.73 117.869C133.102 117.869 100.474 117.87 67.8461 117.868C61.3713 117.868 59.1981 115.727 59.1964 109.352C59.193 95.8968 59.1947 82.4418 59.1955 68.9869C59.1955 61.9057 61.0333 60.0382 68.0135 60.0373C122.66 60.0365 177.306 59.9949 231.952 60.1214C235.979 60.1308 239.251 59.4344 241.986 56.3914C243.249 54.9859 244.855 53.8895 246.999 52.061Z" fill="#012C59"/>
<path d="M84.7539 98.8359V109.357H78.6146V83.8769C78.6146 82.0714 78.6146 80.2888 78.5713 78.4994H84.5544C84.6401 79.0905 84.7539 80.4595 84.7539 81.2782C85.7102 79.6399 87.7018 77.9822 91.2398 77.9822C96.2505 77.9822 100.127 82.1733 100.127 89.0948C100.127 96.9675 95.7987 101.328 90.3931 101.328C87.2448 101.329 85.6041 100.14 84.7539 98.8359ZM93.8581 89.3335C93.8581 85.2434 92.2037 82.936 89.2636 82.936C85.7552 82.936 84.5111 85.1865 84.5111 89.6834C84.5111 93.9416 85.661 96.4189 88.9994 96.4189C92.2683 96.4181 93.8581 93.8771 93.8581 89.3335Z" fill="#FBE701"/>
<path d="M103.551 100.812V69.3462H109.728V100.812H103.551Z" fill="#FBE701"/>
<path d="M132.753 95.0467C132.753 97.1707 132.925 100.273 133.054 100.812H127.153C126.98 100.371 126.851 99.1937 126.841 98.6315C126.033 99.885 124.515 101.329 120.568 101.329C115.188 101.329 112.92 97.7924 112.92 94.3316C112.92 89.2488 117.001 86.9039 123.543 86.9039C124.632 86.9039 125.979 86.9039 126.726 86.9039V85.5409C126.726 83.9553 126.156 82.3952 123.291 82.3952C120.683 82.3952 120.112 83.5035 119.828 85.1188H113.954C114.289 81.1544 116.741 77.945 123.525 77.9832C129.501 78.0206 132.754 80.3561 132.754 85.6666V95.0467H132.753ZM126.732 90.6543C126.217 90.6543 125.031 90.6543 124.216 90.6543C120.494 90.6543 119.113 91.7906 119.113 93.9418C119.113 95.558 120.104 96.9176 122.325 96.9176C126.25 96.9176 126.732 94.189 126.732 91.2411V90.6543Z" fill="#FBE701"/>
<path d="M134.917 78.4997H138.357V72.458H144.534V78.4997H148.904V83.1443H144.534V94.1559C144.534 95.8485 145.051 96.5075 146.893 96.5075C147.236 96.5075 147.838 96.5024 148.3 96.4379V100.687C147.073 101.102 145.394 101.113 144.148 101.113C139.795 101.113 138.357 98.7844 138.357 94.8812V83.1443H134.918V78.4997H134.917Z" fill="#FBE701"/>
<path d="M151.104 69.3462H157.281V74.8554H151.104V69.3462ZM151.104 78.4996H157.281V100.811H151.104V78.4996Z" fill="#FBE701"/>
<path d="M167.364 98.8362V109.357H161.224V83.8772C161.224 82.0716 161.224 80.289 161.181 78.4996H167.164C167.25 79.0907 167.364 80.4597 167.364 81.2784C168.32 79.6402 170.312 77.9824 173.85 77.9824C178.86 77.9824 182.736 82.1736 182.736 89.0951C182.736 96.9678 178.409 101.328 173.003 101.328C169.855 101.329 168.214 100.141 167.364 98.8362ZM176.468 89.3337C176.468 85.2437 174.813 82.9362 171.873 82.9362C168.365 82.9362 167.121 85.1868 167.121 89.6836C167.121 93.9418 168.271 96.4192 171.609 96.4192C174.878 96.4183 176.468 93.8773 176.468 89.3337Z" fill="#FBE701"/>
<path d="M205.892 94.3284C205.892 96.4787 205.897 98.8159 205.935 100.811H199.881C199.796 100.212 199.752 99.0172 199.714 98.2367C198.392 100.476 196.421 101.327 193.57 101.327C189.025 101.327 186.122 98.5645 186.122 93.0316V78.4998H192.294V91.795C192.294 94.2588 193.058 96.2953 195.731 96.2953C198.548 96.2953 199.713 94.7938 199.713 90.3751V78.4998H205.891V94.3284H205.892Z" fill="#FBE701"/>
<path d="M215.042 94.103C215.509 95.8805 216.961 96.8792 219.266 96.8792C221.546 96.8792 222.377 96.0605 222.377 94.7085C222.377 93.2766 221.419 92.7136 218.223 91.9297C210.955 90.1377 209.765 87.888 209.765 84.7398C209.765 81.4625 212.083 77.9822 218.812 77.9822C225.581 77.9822 227.871 81.6773 228.063 84.699H222.189C221.991 83.8752 221.441 82.3177 218.536 82.3177C216.494 82.3177 215.833 83.223 215.833 84.2251C215.833 85.3351 216.526 85.871 220.148 86.716C227.592 88.4485 228.646 90.9997 228.646 94.2703C228.646 97.9654 225.836 101.328 219.032 101.328C212.258 101.328 209.462 98.058 208.973 94.103H215.042V94.103Z" fill="#FBE701"/>
</svg>
