<svg width="306" height="180" viewBox="0 0 306 180" fill="none" xmlns="http://www.w3.org/2000/svg">
<path d="M231.177 111.027C229.754 112.944 228.509 114.958 227.076 116.991C226.888 116.427 226.745 115.997 226.602 115.576C226.315 114.717 226.028 113.857 225.742 112.997C225.554 112.433 225.357 111.878 225.151 111.323C225.079 111.126 224.936 110.947 224.703 111.027C224.56 111.081 224.426 111.215 224.336 111.35C224.273 111.439 224.3 111.582 224.264 111.699C224.157 112.138 224.049 112.585 223.933 113.024C223.808 113.499 223.673 113.973 223.548 114.448C223.342 115.227 223.136 116.006 222.93 116.785C222.814 117.242 222.679 117.698 222.581 118.155C222.545 118.316 222.581 118.495 222.581 118.648C223.387 118.773 223.378 118.764 223.53 118.119C223.62 117.716 223.745 117.322 223.852 116.919C223.978 116.463 224.121 116.015 224.229 115.558C224.345 115.102 224.408 114.627 224.533 114.17C224.587 113.973 224.748 113.812 224.9 113.57C225.491 115.334 226.046 117.009 226.602 118.657C226.969 118.818 227.094 118.558 227.237 118.352C228.061 117.17 228.876 115.988 229.709 114.815C229.995 114.412 230.21 113.937 230.712 113.526C230.64 114.466 230.568 115.281 230.506 116.096C230.434 116.937 230.353 117.779 230.282 118.665H231.15C231.535 116.857 231.912 111.762 231.715 111.027H231.204H231.177ZM266.27 116.579C266.064 116.346 265.948 116.221 265.84 116.078C264.712 114.537 263.566 113.006 262.483 111.43C262.196 111.018 261.927 110.938 261.489 111.063C261.381 111.547 261.265 112.03 261.184 112.514C261.068 113.176 260.978 113.848 260.871 114.511C260.772 115.075 260.656 115.639 260.557 116.203C260.432 116.901 260.298 117.609 260.181 118.307C260.163 118.415 260.208 118.531 260.226 118.665H261.139C261.238 118.191 261.327 117.752 261.408 117.304C261.444 117.107 261.471 116.91 261.506 116.713C261.632 116.033 261.748 115.352 261.874 114.663C261.981 114.081 262.089 113.499 262.205 112.917C262.205 112.899 262.268 112.89 262.33 112.863C262.411 112.935 262.509 113.006 262.581 113.096C262.957 113.624 263.324 114.152 263.7 114.681C264.605 115.952 265.509 117.224 266.423 118.486C266.503 118.603 266.646 118.674 266.879 118.871C267.416 116.194 267.81 113.624 268.267 111.027H267.228C266.906 112.863 266.602 114.645 266.27 116.543V116.579ZM210.116 111.717C210.071 112.075 210.009 112.424 209.937 112.773C209.821 113.418 209.686 114.054 209.579 114.699C209.48 115.281 209.4 115.872 209.31 116.454L209.167 116.49C207.851 114.663 206.534 112.836 205.209 111C204.949 111.018 204.699 111.036 204.466 111.054C204.027 113.615 203.597 116.113 203.158 118.683C203.382 118.692 203.57 118.719 203.758 118.71C204.17 118.701 204.206 118.648 204.278 118.227C204.394 117.519 204.52 116.821 204.636 116.122C204.708 115.728 204.77 115.343 204.833 114.949C204.922 114.403 204.994 113.848 205.102 113.311C205.119 113.194 205.236 113.051 205.334 113.024C205.415 113.006 205.558 113.123 205.639 113.212C205.791 113.391 205.907 113.588 206.051 113.785C206.66 114.636 207.26 115.487 207.869 116.337C208.415 117.089 208.97 117.824 209.507 118.567C209.624 118.728 209.74 118.836 209.973 118.701C210.412 116.185 210.85 113.642 211.289 111.063C211.119 111.045 211.021 111.027 210.931 111.027C210.25 111.009 210.188 111.063 210.107 111.735L210.116 111.717ZM91.2262 112.872C91.1188 113.499 91.065 114.134 90.868 114.725C90.68 115.29 90.8949 115.952 90.4203 116.525C90.1964 116.221 90.0084 115.97 89.8293 115.719C88.7906 114.278 87.7429 112.845 86.7221 111.394C86.4624 111.018 86.1848 110.911 85.7102 111.09C85.2714 113.57 84.8237 116.069 84.367 118.648H85.3878C85.9072 116.713 85.9878 114.752 86.534 112.791C86.6594 112.926 86.731 112.988 86.7847 113.06C87.2056 113.651 87.6175 114.26 88.0384 114.851C88.9159 116.069 89.8024 117.269 90.671 118.486C90.7874 118.648 90.8859 118.827 91.1367 118.737C91.1546 118.683 91.1904 118.63 91.1993 118.576C91.2978 118.03 91.3874 117.483 91.4859 116.937C91.6202 116.257 91.7814 115.585 91.8978 114.905C92.0142 114.224 92.0948 113.535 92.1933 112.854C92.2023 112.773 92.2291 112.693 92.256 112.621C92.4888 112.12 92.4082 111.582 92.453 111.036H91.5038C91.4053 111.663 91.3158 112.263 91.2083 112.863L91.2262 112.872ZM141.685 115.531C141.506 115.218 141.515 115.173 141.846 114.994C142.428 114.69 142.805 114.26 143.091 113.651C143.44 112.908 143.109 112.021 142.625 111.547C142.393 111.323 142.07 111.072 141.775 111.054C140.826 110.991 139.876 111.027 138.891 111.027C138.65 112.326 138.381 113.588 138.193 114.851C138.005 116.113 137.629 117.349 137.575 118.674H138.453C138.82 117.752 138.856 116.794 139.053 115.863C139.088 115.675 139.133 115.379 139.25 115.343C139.536 115.245 139.859 115.245 140.172 115.227C140.432 115.209 140.53 115.415 140.638 115.612C141.085 116.445 141.56 117.269 142.017 118.092C142.402 118.791 142.509 118.845 143.36 118.621C143.315 118.495 143.279 118.361 143.216 118.245C142.706 117.34 142.196 116.436 141.685 115.522V115.531ZM140.414 114.466C140.181 114.502 139.939 114.484 139.697 114.466C139.357 114.439 139.25 114.331 139.312 114.009C139.465 113.275 139.644 112.558 139.832 111.797C140.458 111.735 140.978 111.699 141.488 111.959C142.106 112.272 142.285 112.944 141.918 113.552C141.569 114.126 141.041 114.376 140.414 114.466ZM176.393 115.746C176.295 115.281 176.205 114.824 176.089 114.358C175.874 113.499 175.65 112.648 175.426 111.788C175.354 111.511 175.265 111.233 175.175 110.956C175.104 110.929 175.032 110.902 174.96 110.875C174.343 111.663 173.877 112.558 173.376 113.418C172.874 114.287 172.337 115.128 171.826 115.988C171.307 116.857 170.788 117.734 170.241 118.639C170.85 118.8 171.289 118.746 171.567 118.2C171.755 117.833 171.979 117.483 172.185 117.125C172.355 116.839 172.561 116.66 172.937 116.669C173.671 116.695 174.405 116.669 175.149 116.678C175.319 116.678 175.489 116.731 175.641 116.749C175.757 117.295 175.865 117.77 175.954 118.254C176.008 118.522 176.151 118.683 176.429 118.692C176.635 118.692 176.85 118.674 177.127 118.657C176.966 118.11 176.814 117.645 176.698 117.17C176.581 116.695 176.492 116.203 176.384 115.728L176.393 115.746ZM173.161 115.782C173.214 115.594 173.232 115.46 173.295 115.352C173.662 114.699 174.029 114.045 174.405 113.4C174.459 113.311 174.602 113.176 174.647 113.194C174.755 113.239 174.835 113.364 174.916 113.463C174.943 113.49 174.934 113.543 174.943 113.579C175.086 114.269 175.22 114.958 175.372 115.71C174.674 115.881 173.949 115.773 173.161 115.782ZM69.5203 111.018C69.1979 111.018 69.1084 111.224 69.0726 111.475C69.0189 111.806 69.0009 112.147 68.9472 112.478C68.8308 113.141 68.6965 113.803 68.5801 114.466C68.4905 114.931 68.401 115.397 68.3204 115.863C68.2129 116.57 68.1234 117.278 68.0159 117.976C67.9801 118.2 67.8995 118.415 67.8369 118.648C67.9891 118.683 68.0607 118.719 68.1324 118.719C69.386 118.719 70.6396 118.728 71.8933 118.719C72.3589 118.719 72.4574 118.531 72.3858 117.904C71.3112 117.707 70.183 118.012 69.0547 117.716C69.2248 116.83 69.377 116.042 69.5382 115.182H71.9649V114.421C71.7142 114.403 71.4993 114.385 71.2844 114.376C70.9083 114.376 70.5232 114.385 70.1471 114.358C69.7621 114.331 69.6725 114.251 69.7263 113.875C69.789 113.382 69.9143 112.908 70.0128 112.415C70.1382 111.762 70.1561 111.744 70.8187 111.744C71.4366 111.744 72.0545 111.744 72.6723 111.744C73.2275 111.735 73.2991 111.609 73.1559 111.018C71.956 111.018 70.7381 111.018 69.5293 111.018H69.5203ZM244.242 114.842C244 116.113 243.767 117.385 243.535 118.639C243.633 118.674 243.669 118.701 243.705 118.701C245.021 118.701 246.337 118.728 247.654 118.71C248.101 118.71 248.209 118.46 248.039 117.869C247.833 117.86 247.618 117.842 247.403 117.842C246.767 117.842 246.131 117.851 245.487 117.842C245.245 117.842 245.003 117.761 244.752 117.716C244.914 116.839 245.057 116.051 245.209 115.209H247.627C247.707 114.949 247.77 114.743 247.842 114.502C247.036 114.215 246.185 114.564 245.442 114.278C245.424 114.161 245.397 114.099 245.406 114.045C245.505 113.418 245.594 112.791 245.728 112.173C245.8 111.86 246.06 111.762 246.373 111.762C246.991 111.762 247.609 111.762 248.227 111.762C248.433 111.762 248.648 111.726 248.872 111.708V111.054H244.949C244.6 112.308 244.475 113.588 244.233 114.842H244.242ZM122.352 111.054C121.842 113.579 121.448 116.096 120.955 118.657C121.143 118.683 121.296 118.728 121.448 118.728C122.603 118.728 123.758 118.728 124.913 118.728C125.495 118.728 125.603 118.567 125.469 117.886C125.263 117.877 125.057 117.851 124.842 117.851C124.188 117.851 123.525 117.851 122.872 117.851C122.648 117.851 122.424 117.77 122.191 117.725C122.343 116.875 122.478 116.096 122.63 115.218H125.039C125.146 114.949 125.227 114.752 125.343 114.475C125.11 114.439 124.922 114.394 124.734 114.394C124.26 114.385 123.776 114.394 123.302 114.385C122.881 114.367 122.791 114.296 122.845 113.884C122.916 113.32 123.024 112.747 123.158 112.191C123.23 111.887 123.481 111.762 123.794 111.77C124.412 111.779 125.03 111.77 125.648 111.77C125.854 111.77 126.068 111.744 126.274 111.726C126.301 111.556 126.328 111.457 126.328 111.359C126.328 111.269 126.301 111.171 126.274 111.063H122.361L122.352 111.054ZM286.132 111.054H280.177V111.753C280.436 111.753 280.651 111.753 280.866 111.753C281.242 111.753 281.627 111.744 282.003 111.753C282.344 111.77 282.442 111.86 282.424 112.182C282.415 112.558 282.389 112.944 282.326 113.311C282.183 114.152 282.021 114.985 281.86 115.818C281.717 116.534 281.565 117.251 281.421 117.976C281.377 118.2 281.386 118.424 281.368 118.683H282.308C282.389 118.46 282.478 118.298 282.505 118.119C282.702 117.089 282.89 116.06 283.06 115.03C283.177 114.349 283.257 113.66 283.356 112.97C283.356 112.908 283.382 112.854 283.4 112.8C283.597 112.096 284.072 111.744 284.824 111.744C285.236 111.744 285.648 111.735 286.042 111.726C286.087 111.547 286.114 111.448 286.132 111.35C286.141 111.26 286.132 111.162 286.132 111.036V111.054ZM155.063 111.018C155.045 111.269 155.037 111.457 155.019 111.753C155.61 111.753 156.102 111.753 156.595 111.753C157.338 111.753 157.365 111.779 157.293 112.478C157.239 112.97 157.132 113.454 157.06 113.937C156.953 114.645 156.863 115.343 156.765 116.051C156.747 116.149 156.702 116.239 156.684 116.337C156.559 117 156.424 117.663 156.308 118.325C156.29 118.433 156.335 118.549 156.353 118.674H157.275C157.427 117.86 157.58 117.072 157.723 116.275C157.83 115.63 157.902 114.985 158.018 114.34C158.144 113.687 158.314 113.033 158.439 112.379C158.556 111.797 158.574 111.762 159.165 111.753C159.738 111.753 160.311 111.753 160.884 111.753C160.982 111.573 161.063 111.439 161.135 111.296C161.161 111.251 161.153 111.188 161.161 111.018C159.129 111.018 157.114 111.018 155.054 111.018H155.063ZM104.461 111.672C104.551 111.708 104.604 111.735 104.658 111.744C105.052 111.753 105.455 111.762 105.849 111.762C106.727 111.762 106.798 111.842 106.682 112.729C106.673 112.809 106.655 112.89 106.646 112.961C106.574 113.311 106.503 113.651 106.44 114C106.413 114.152 106.386 114.314 106.359 114.466C106.234 115.164 106.109 115.863 105.974 116.561C105.921 116.875 105.84 117.179 105.795 117.492C105.742 117.877 105.706 118.263 105.652 118.692H106.628C106.798 117.851 106.959 117.063 107.112 116.266C107.21 115.719 107.3 115.182 107.38 114.636C107.488 113.955 107.568 113.266 107.676 112.585C107.703 112.388 107.774 112.191 107.882 112.03C107.953 111.914 108.106 111.806 108.24 111.779C108.473 111.735 108.714 111.762 108.956 111.762C109.413 111.762 109.861 111.762 110.353 111.762V111.072H104.461V111.672ZM190.452 112.227C190.335 112.944 190.246 113.669 190.138 114.394C190.138 114.457 190.112 114.511 190.103 114.564C189.968 115.281 189.834 115.997 189.709 116.713C189.637 117.098 189.556 117.483 189.503 117.877C189.467 118.128 189.458 118.379 189.44 118.683H190.362C190.532 117.842 190.694 117.054 190.846 116.257C190.953 115.719 191.025 115.173 191.123 114.627C191.267 113.83 191.419 113.042 191.544 112.245C191.607 111.86 191.607 111.475 191.643 111.054H190.747C190.649 111.466 190.532 111.842 190.47 112.227H190.452Z" fill="white"/>
<path d="M84.7074 83.9215C84.7253 83.7872 84.7611 83.6529 84.7879 83.5096C84.9223 82.7932 85.0924 82.0769 85.1909 81.3516C85.2984 80.5815 85.3521 79.8114 85.4058 79.0323C85.4416 78.5398 85.4595 78.0384 85.4237 77.5369C85.3431 76.3549 84.5999 75.4147 83.5164 75.1729C82.8806 75.0296 82.2269 74.9222 81.5733 74.9222C74.2216 74.9043 66.8609 74.9043 59.5092 74.9222C58.7212 74.9222 57.9332 75.0744 57.1452 75.155C57.0825 75.155 57.0288 75.1729 56.975 75.1998C55.4617 75.7818 54.7185 76.9907 54.3961 78.495C54.2349 79.2293 54.0648 79.9636 54.02 80.7247C53.9663 81.5754 53.7693 82.4082 53.6439 83.2589C53.5365 83.9842 53.438 84.7095 53.3484 85.4348C53.241 86.3213 53.1514 87.2078 53.0529 88.0944C53.0529 88.157 53.0261 88.2108 53.0171 88.2735C52.8828 89.0525 52.7306 89.8316 52.6321 90.6106C52.5157 91.515 52.4351 92.4194 52.3366 93.3328C52.3366 93.3686 52.3276 93.4134 52.3187 93.4492C52.1664 94.4879 52.0053 95.5267 51.853 96.5564C51.7456 97.2818 51.665 98.016 51.5665 98.7413C51.4769 99.4129 51.3874 100.085 51.2889 100.747C51.1546 101.625 50.9844 102.502 50.868 103.389C50.7427 104.293 50.6621 105.207 50.5636 106.111C50.5636 106.174 50.5457 106.227 50.5367 106.29C50.4024 107.186 50.2502 108.09 50.1337 108.994C50.0173 109.961 49.9367 110.929 49.8382 111.896C49.8382 111.976 49.8024 112.048 49.7935 112.128C49.7397 112.442 49.6681 112.746 49.6323 113.06C49.5338 113.785 49.4711 114.519 49.3547 115.245C49.3099 115.504 49.1935 115.782 49.0413 116.006C48.5846 116.668 48.0473 117.268 47.3757 117.743C47.2235 117.85 47.1071 118.003 46.9817 118.128C46.9996 118.173 47.0176 118.209 47.0355 118.253C47.5638 118.253 48.1011 118.271 48.6294 118.253C50.4919 118.173 52.3724 118.325 54.1902 117.707C54.8886 117.465 55.5334 117.17 56.1064 116.713C57.378 115.71 57.772 114.269 58.0675 112.782C58.2018 112.102 58.2645 111.412 58.372 110.723C58.4525 110.212 58.5421 109.702 58.6316 109.2C58.7749 108.403 58.9092 107.606 59.0615 106.809C59.1331 106.406 59.2316 106.004 59.3391 105.538C59.7062 105.538 59.9569 105.538 60.2166 105.538C65.9565 105.52 71.6964 105.502 77.4362 105.502C78.278 105.502 79.0928 105.368 79.854 105.01C80.2838 104.804 80.7315 104.625 81.0539 104.213C81.7344 103.344 82.1553 102.395 82.2628 101.293C82.3254 100.64 82.4687 100.004 82.5762 99.3592C82.7105 98.5175 82.8538 97.6847 82.9702 96.834C83.0866 95.9475 83.1672 95.061 83.2657 94.1745C83.2657 94.1387 83.2836 94.0939 83.2836 94.0581C83.4179 93.2611 83.5791 92.4642 83.6955 91.6672C83.8209 90.8076 83.8925 89.939 83.991 89.0704C83.991 89.0346 83.9999 88.9898 84.0089 88.954C84.1522 88.1302 84.3134 87.3153 84.4298 86.4915C84.5551 85.6498 84.6268 84.7901 84.7253 83.9484L84.7074 83.9215ZM75.914 85.1214C75.8692 85.2558 75.8334 85.3901 75.8155 85.5244C75.6364 86.9661 75.4662 88.4078 75.2692 89.8405C75.1439 90.727 74.9648 91.5956 74.8305 92.4821C74.7141 93.2701 74.6424 94.0581 74.526 94.8461C74.4633 95.2938 74.3827 95.7505 74.2215 96.1714C74.0693 96.5475 73.738 96.7893 73.2903 96.8072C72.4933 96.843 71.6964 96.9057 70.9084 96.9057C67.7205 96.9146 64.5327 96.9057 61.3449 96.9057C60.4673 96.9057 60.4315 96.8878 60.53 96.046C60.6464 95.0789 60.8255 94.1208 60.9777 93.1626C60.9956 93.0641 61.0136 92.9656 61.0315 92.8671C61.1837 91.7299 61.3449 90.5837 61.4971 89.4465C61.6046 88.6048 61.6672 87.7541 61.8105 86.9124C61.9717 85.9632 62.0433 84.9871 62.5 84.1096C62.6702 83.7782 62.9209 83.6081 63.297 83.5992C63.6731 83.5992 64.0581 83.5723 64.4342 83.5723C68.0787 83.5723 71.7232 83.5723 75.3767 83.5723H76.0393C76.0572 84.1543 76.0841 84.6468 75.914 85.1304V85.1214ZM204.797 75.4236C204.215 75.0744 203.57 74.9132 202.89 74.9132C195.798 74.9132 188.697 74.8953 181.605 74.8864C179.787 74.8864 177.978 74.8864 176.16 74.8864C175.928 74.8864 175.704 74.9132 175.435 74.9311C175.435 75.2087 175.435 75.4057 175.435 75.6027C175.444 76.9996 175.417 78.3965 175.489 79.7845C175.516 80.3845 175.74 80.9755 175.874 81.5665C175.963 81.9515 176.178 82.256 176.465 82.5067C177.047 83.0171 177.736 83.3037 178.516 83.3395C179.169 83.3753 179.832 83.3842 180.486 83.4201C180.88 83.4469 181.265 83.5544 181.659 83.5544C186.387 83.5633 191.106 83.5544 195.834 83.5544H196.675C196.649 84.029 196.649 84.3872 196.613 84.7364C196.55 85.4528 195.968 85.9363 195.341 85.8915C195.081 85.8736 194.822 85.8915 194.562 85.8915C188.751 85.99 182.93 85.6677 177.119 86.0975C176.572 86.1333 176.053 86.2587 175.561 86.4467C174.54 86.8318 173.993 87.6824 173.698 88.6585C173.385 89.6972 173.179 90.7718 172.991 91.8374C172.794 92.9298 172.659 94.0312 172.516 95.1237C172.4 95.9475 172.31 96.7713 172.211 97.5952C172.194 97.7116 172.185 97.8369 172.176 97.9534C172.041 98.9384 171.88 99.9144 171.782 100.899C171.719 101.589 171.746 102.296 171.755 102.986C171.773 104.105 172.489 105.019 173.573 105.216C174.316 105.359 175.068 105.457 175.82 105.457C181.802 105.493 187.783 105.502 193.756 105.511C195.09 105.511 196.425 105.502 197.759 105.457C198.645 105.43 199.532 105.314 200.374 104.983C201.144 104.669 201.726 104.177 202.129 103.416C202.514 102.699 202.612 101.92 202.809 101.159C202.962 100.568 203.033 99.9592 203.132 99.3592C203.266 98.5175 203.409 97.6847 203.526 96.843C203.66 95.8848 203.767 94.9177 203.884 93.9507C203.884 93.888 203.911 93.8342 203.92 93.7716C204.045 92.8672 204.17 91.9627 204.296 91.0583C204.421 90.1718 204.555 89.2943 204.681 88.4078C204.761 87.8347 204.833 87.2705 204.923 86.6974C205.048 85.9542 205.209 85.2199 205.308 84.4767C205.433 83.5544 205.514 82.6231 205.612 81.7008C205.612 81.6381 205.63 81.5844 205.639 81.5217C205.773 80.4203 205.899 79.3189 206.033 78.2264C206.087 77.7608 205.97 77.331 205.836 76.8832C205.648 76.2743 205.37 75.746 204.806 75.4147L204.797 75.4236ZM195.135 95.3476C195.09 95.6789 195.001 96.0102 194.876 96.3236C194.759 96.6012 194.535 96.8072 194.186 96.8072C193.864 96.8072 193.55 96.8251 193.228 96.8251C189.404 96.8251 185.572 96.8251 181.748 96.8251C181.515 96.8251 181.282 96.7982 181.023 96.7803C181.068 96.3326 181.112 95.9833 181.148 95.6252C181.211 94.9357 181.587 94.5506 182.276 94.479C182.473 94.4611 182.67 94.4611 182.876 94.4611C186.7 94.4611 190.533 94.4611 194.356 94.4611C195.189 94.4611 195.234 94.5058 195.135 95.3565V95.3476ZM168.63 74.9401C167.546 74.8237 166.454 74.7968 165.37 74.7073C164.251 74.6088 163.158 74.8864 162.048 74.8864C159.72 74.8864 157.383 74.9222 155.055 74.8774C152.708 74.8326 150.371 74.9938 148.016 74.7431C146.825 74.6177 145.598 74.8326 144.39 74.9043C143.763 74.9401 143.145 74.9043 142.509 75.1013C141.65 75.3789 141.032 75.8803 140.548 76.6146C139.921 77.5548 139.796 78.6383 139.608 79.7039C139.474 80.483 139.393 81.271 139.294 82.05C139.294 82.0858 139.277 82.1306 139.277 82.1664C139.142 82.9455 138.99 83.7245 138.883 84.5036C138.748 85.4259 138.65 86.3482 138.533 87.2795C138.524 87.3601 138.497 87.4317 138.489 87.5123C138.363 88.3809 138.238 89.2405 138.121 90.1091C137.996 91.0315 137.862 91.9538 137.736 92.8761C137.683 93.2701 137.62 93.6641 137.566 94.0492C137.468 94.8013 137.387 95.5446 137.271 96.2967C137.145 97.1206 136.948 97.9265 136.868 98.7593C136.751 99.8786 136.608 100.998 136.366 102.099C136.205 102.843 135.874 103.469 135.345 103.989C134.987 104.347 134.575 104.66 134.199 104.992C134.056 105.117 133.931 105.251 133.707 105.466C134.02 105.493 134.19 105.511 134.36 105.511C136.33 105.511 138.309 105.493 140.279 105.475C140.933 105.475 141.596 105.475 142.214 105.233C142.751 105.019 143.297 104.804 143.736 104.41C144.56 103.675 144.819 102.69 145.016 101.669C145.115 101.141 145.213 100.622 145.321 100.093C145.464 99.3771 145.634 98.6608 145.742 97.9444C145.867 97.1027 145.939 96.252 146.037 95.4013C146.037 95.3386 146.055 95.2849 146.064 95.2222C146.207 94.4073 146.36 93.5925 146.476 92.7686C146.592 91.9269 146.673 91.0762 146.772 90.2255C146.772 90.1897 146.78 90.145 146.789 90.1091C146.942 89.1331 147.085 88.1481 147.255 87.172C147.425 86.196 147.595 85.2199 147.801 84.2439C147.864 83.9484 148.07 83.6529 148.374 83.6171C148.956 83.5454 149.556 83.4827 150.219 83.6171C150.04 84.9603 149.87 86.2139 149.691 87.4765C149.574 88.3003 149.44 89.1241 149.306 89.948C149.225 90.4763 149.127 91.0046 149.055 91.5329C148.947 92.4015 148.867 93.2701 148.768 94.1297C148.751 94.2641 148.715 94.4073 148.697 94.5417C148.571 95.3207 148.419 96.0998 148.321 96.8788C148.204 97.7653 148.124 98.6518 148.025 99.5383C148.025 99.601 147.998 99.6547 147.989 99.7174C147.846 100.613 147.703 101.517 147.56 102.413C147.506 102.744 147.461 103.084 147.416 103.416C147.371 103.747 147.345 104.087 147.309 104.428C147.273 104.759 147.219 105.081 147.174 105.466C147.443 105.484 147.658 105.511 147.864 105.511C148.598 105.511 149.341 105.529 150.076 105.484C151.168 105.421 152.252 105.314 153.344 105.233C153.407 105.233 153.47 105.233 153.523 105.207C154.49 104.804 155.305 104.239 155.726 103.219C155.977 102.61 156.156 101.992 156.263 101.338C156.434 100.299 156.765 99.2965 156.81 98.2399C156.81 98.1772 156.836 98.1235 156.845 98.0608C156.971 97.2191 157.105 96.3773 157.222 95.5267C157.338 94.6849 157.436 93.8342 157.544 92.9925C157.544 92.9567 157.562 92.9119 157.571 92.8761C157.696 92.0971 157.839 91.318 157.956 90.53C158.072 89.6883 158.162 88.8376 158.269 87.9959C158.341 87.4675 158.412 86.9392 158.493 86.4109C158.574 85.8826 158.636 85.3543 158.753 84.8259C158.806 84.5573 158.923 84.2976 159.048 84.0558C159.2 83.7603 159.442 83.5723 159.809 83.5813C160.248 83.5902 160.687 83.5633 161.126 83.5633C161.251 83.5633 161.385 83.6081 161.582 83.6529C161.493 84.2976 161.403 84.9065 161.323 85.5154C161.224 86.2229 161.108 86.9213 161.018 87.6287C160.911 88.5152 160.812 89.4017 160.714 90.2882C160.714 90.3509 160.687 90.4046 160.678 90.4673C160.544 91.2285 160.391 91.9806 160.293 92.7418C160.177 93.6283 160.096 94.5148 159.997 95.4013C159.997 95.4371 159.988 95.4819 159.98 95.5177C159.836 96.3594 159.675 97.1922 159.559 98.0339C159.362 99.4935 159.192 100.953 159.012 102.413C158.995 102.592 158.932 102.762 158.905 102.941C158.789 103.747 158.672 104.544 158.556 105.35C158.556 105.377 158.592 105.413 158.627 105.475C158.699 105.484 158.798 105.52 158.896 105.52C160.409 105.502 161.932 105.52 163.436 105.43C164.126 105.386 164.86 105.359 165.505 104.983C165.943 104.732 166.4 104.526 166.713 104.087C167.251 103.344 167.483 102.493 167.663 101.625C167.806 100.908 167.913 100.183 168.03 99.4577C168.164 98.6339 168.289 97.8101 168.406 96.9773C168.54 96.0371 168.648 95.0879 168.791 94.1477C168.907 93.3597 169.051 92.5806 169.176 91.8015C169.274 91.1568 169.373 90.5121 169.453 89.8584C169.561 89.0167 169.65 88.166 169.758 87.3153C169.83 86.7422 169.91 86.1781 170 85.605C170.134 84.7633 170.313 83.9305 170.412 83.0887C170.546 81.9694 170.618 80.8322 170.716 79.7129C170.725 79.5965 170.725 79.4711 170.752 79.3547C170.949 78.4951 171.003 77.6533 170.716 76.7758C170.394 75.7997 169.668 75.0296 168.657 74.9222L168.63 74.9401ZM47.5906 98.4727C47.5906 98.3742 47.6086 98.2757 47.6265 98.1772C47.7608 97.3803 47.922 96.5833 48.0294 95.7774C48.1637 94.7387 48.2712 93.691 48.3786 92.6433C48.4861 91.5329 48.5846 90.4225 48.6473 89.3122C48.6741 88.9003 48.6294 88.4704 48.5488 88.0675C48.3966 87.2974 47.9846 86.6974 47.2593 86.3572C46.6056 86.0438 45.9251 85.9005 45.1998 85.9005C39.442 85.9005 33.6842 85.8736 27.9174 85.8647C27.7204 85.8647 27.5145 85.8647 27.3175 85.8647C27.013 85.8647 26.8608 85.7035 26.8966 85.4259C26.9593 84.9513 27.0309 84.4767 27.1742 84.029C27.2279 83.8588 27.4608 83.6708 27.6398 83.626C28.1592 83.5096 28.6875 83.4022 29.2159 83.3932C34.32 83.3663 39.4241 83.3574 44.5192 83.3484C45.558 83.3484 46.5788 83.2052 47.5727 82.9007C48.3428 82.6679 48.9517 82.2381 49.3726 81.5486C49.7487 80.9396 49.9547 80.2681 50.089 79.5606C50.277 78.6115 50.5546 77.6802 50.6173 76.7131C50.6173 76.6952 50.6352 76.6773 50.6352 76.6594C50.6979 76.1669 50.7785 75.6833 50.8053 75.1908C50.8322 74.8147 50.7337 74.7431 50.3666 74.7162C50.2233 74.7073 50.089 74.7162 49.9457 74.7162C46.1579 74.7162 42.3701 74.7162 37.7227 74.7162C34.1677 74.8416 29.7442 74.5103 25.3296 74.8774C24.6938 74.9311 24.058 74.9222 23.4133 74.9043C22.688 74.8864 22.0253 75.0744 21.3806 75.3968C20.2792 75.943 19.724 76.8564 19.4643 78.0025C19.3569 78.4861 19.2763 78.9696 19.1778 79.4532C19.0345 80.1696 18.8554 80.8859 18.748 81.6112C18.5241 83.1246 18.345 84.6379 18.139 86.1602C18.1301 86.2408 18.1032 86.3124 18.0853 86.393C17.9599 87.1362 17.8435 87.8795 17.7182 88.6227C17.6376 89.0883 17.5122 89.554 17.4854 90.0285C17.4406 90.7628 17.3958 91.515 17.4854 92.2314C17.548 92.6702 17.7719 93.1895 18.0943 93.4761C18.5868 93.9148 19.2405 94.2103 19.921 94.2641C21.1478 94.3626 22.3835 94.4521 23.6192 94.4521C28.5443 94.47 33.4693 94.4521 38.3853 94.4521C38.5644 94.4521 38.7435 94.4521 38.9226 94.4521C39.3703 94.47 39.4509 94.5327 39.3972 94.9983C39.3614 95.3476 39.2629 95.6968 39.1554 96.0371C38.9584 96.6191 38.7167 96.7893 38.1077 96.8072C37.6869 96.8161 37.275 96.8251 36.8541 96.8251C30.3979 96.8251 23.9416 96.8251 17.4854 96.8251C17.3242 96.8251 17.163 96.8251 17.0108 96.8251C16.5989 96.8519 16.5272 96.9146 16.4914 97.3086C16.3929 98.4369 16.2944 99.5562 16.2049 100.684C16.2049 100.783 16.2049 100.881 16.178 100.98C15.9541 101.866 15.9183 102.726 16.2049 103.622C16.4466 104.365 17.1361 105.153 17.8883 105.233C18.8912 105.341 19.912 105.466 20.9239 105.466C25.5713 105.493 30.2098 105.511 34.8572 105.484C37.66 105.466 40.4718 105.672 43.2745 105.287C43.767 105.224 44.2506 105.198 44.7073 104.992C45.3341 104.696 45.9788 104.401 46.2743 103.729C46.5161 103.192 46.8026 102.672 46.8743 102.063C46.928 101.634 47.0444 101.213 47.1429 100.792C47.331 100.022 47.5638 99.2697 47.5817 98.4727H47.5906ZM225.24 96.7982C224.99 96.7982 224.739 96.7714 224.488 96.7534C224.47 96.5654 224.444 96.44 224.461 96.3326C224.533 95.7684 224.632 95.1953 224.703 94.6312C224.891 93.1895 225.061 91.7478 225.24 90.3151C225.258 90.1539 225.294 90.0017 225.321 89.8405C225.464 88.963 225.626 88.0854 225.742 87.1989C225.858 86.3303 225.93 85.4617 226.046 84.5931C226.1 84.1902 226.234 83.7962 226.351 83.3395C226.628 83.3395 226.888 83.3395 227.139 83.3395C229.852 83.3395 232.565 83.3395 235.27 83.3126C236.138 83.3037 237.007 83.1962 237.849 82.9007C239.111 82.453 239.801 81.5396 240.15 80.3128C240.311 79.7218 240.419 79.1129 240.526 78.513C240.678 77.6354 240.821 76.7579 240.965 75.8714C240.992 75.7102 241.001 75.5579 241.045 75.3968C241.215 74.752 241.189 74.7073 240.544 74.6983C240.427 74.6983 240.302 74.6983 240.186 74.6983C236.219 74.6983 232.252 74.6983 228.285 74.6983C228.034 74.6983 227.784 74.6714 227.488 74.6535C227.506 74.3939 227.497 74.2058 227.524 74.0088C227.676 72.9522 227.846 71.8866 227.99 70.8299C228.106 69.9792 228.142 69.1196 228.303 68.2868C228.545 67.0601 228.536 65.8333 228.509 64.5975C228.482 63.3976 227.658 62.4484 226.476 62.2604C225.67 62.135 224.864 62.0365 224.05 62.0186C222.277 61.9828 220.504 62.0097 218.731 62.0097C218.614 62.0097 218.489 62.0455 218.31 62.0724C218.739 62.4753 219.133 62.8066 219.492 63.1648C219.778 63.4603 220.038 63.7558 220.074 64.2215C220.181 65.5646 219.832 66.872 219.76 68.1973C219.76 68.2152 219.751 68.2331 219.742 68.251C219.599 69.1465 219.447 70.0419 219.313 70.9463C219.187 71.8149 219.098 72.6835 218.981 73.5521C218.928 73.9193 218.838 74.2864 218.766 74.6446C218.677 74.6714 218.623 74.6983 218.569 74.6983C217.101 74.7699 215.632 74.8326 214.164 74.9043C213.537 74.9311 212.919 74.9401 212.292 75.1102C211.298 75.3789 210.609 75.934 210.125 76.7937C209.642 77.6533 209.436 78.5935 209.31 79.5606C209.203 80.4024 209.024 81.2441 208.898 82.0858C208.845 82.4709 208.836 82.8649 208.809 83.3484H209.579C211.97 83.3484 214.361 83.3484 216.752 83.3484C217.002 83.3484 217.244 83.3932 217.549 83.4201C217.504 83.7245 217.468 83.9573 217.432 84.1902C217.396 84.4051 217.352 84.62 217.325 84.8349C217.217 85.6945 217.119 86.5631 217.011 87.4228C217.011 87.4407 217.011 87.4586 217.002 87.4854C216.868 88.2824 216.716 89.0794 216.608 89.8853C216.483 90.7718 216.384 91.6583 216.277 92.5358C216.268 92.6164 216.25 92.697 216.241 92.7686C216.107 93.6731 215.981 94.5775 215.847 95.4819C215.722 96.3684 215.587 97.2459 215.453 98.1324C215.373 98.6428 215.301 99.1533 215.211 99.6637C214.996 100.882 214.862 102.081 214.996 103.335C215.113 104.401 216.152 105.081 216.922 105.224C217.737 105.377 218.578 105.457 219.411 105.466C223.638 105.493 227.864 105.493 232.091 105.466C233.013 105.466 233.935 105.323 234.822 104.992C235.807 104.625 236.505 103.953 236.855 102.995C237.15 102.18 237.302 101.311 237.472 100.461C237.634 99.6637 237.75 98.8578 237.866 98.0519C237.92 97.6668 237.938 97.2728 237.974 96.7982H237.195C233.21 96.7982 229.225 96.7982 225.232 96.7982H225.24ZM134.065 86.187C134.065 86.187 134.074 86.1064 134.083 86.0706C134.226 85.2289 134.396 84.3961 134.495 83.5544C134.62 82.4888 134.692 81.4232 134.79 80.3576C134.799 80.2591 134.79 80.1516 134.826 80.0621C135.077 79.3726 134.996 78.6473 135.041 77.9309C135.086 77.2504 134.88 76.6414 134.522 76.0863C134.378 75.8624 134.181 75.6475 133.958 75.4953C133.384 75.1281 132.722 74.9938 132.068 74.9222C131.558 74.8684 131.029 74.8864 130.519 74.8864C124 74.8864 117.481 74.8684 110.971 74.8953C109.628 74.8953 108.276 74.7968 106.933 75.1102C106.288 75.2624 105.724 75.5311 105.276 75.9609C104.416 76.7937 104.139 77.922 103.951 79.0592C103.906 79.3099 103.906 79.5786 103.861 79.8293C103.736 80.5904 103.575 81.3426 103.467 82.1038C103.342 83.0261 103.27 83.9573 103.172 84.8797C103.172 84.9423 103.154 84.9961 103.145 85.0588C103.002 85.9184 102.849 86.7691 102.724 87.6287C102.599 88.4705 102.518 89.3301 102.411 90.1718C102.33 90.8255 102.231 91.4702 102.133 92.115C101.999 92.9746 101.829 93.8342 101.712 94.7028C101.587 95.6252 101.515 96.5564 101.417 97.4877C101.417 97.5683 101.39 97.6489 101.372 97.7205C101.238 98.4996 101.094 99.2786 100.978 100.058C100.87 100.765 100.861 101.49 100.691 102.18C100.539 102.798 100.324 103.425 99.7779 103.854C99.3123 104.222 98.8735 104.616 98.4258 105.001C98.2915 105.117 98.1661 105.251 98.0318 105.386C98.0497 105.43 98.0586 105.475 98.0765 105.52C98.2915 105.52 98.4974 105.52 98.7123 105.52C99.9481 105.52 101.184 105.556 102.42 105.511C103.79 105.457 105.169 105.645 106.512 105.251C107.255 105.027 107.936 104.714 108.374 104.034C108.938 103.156 109.306 102.207 109.422 101.159C109.485 100.613 109.628 100.076 109.717 99.5294C109.861 98.7145 109.995 97.8907 110.111 97.0668C110.228 96.2072 110.317 95.3386 110.425 94.479C110.425 94.4611 110.425 94.4432 110.434 94.4163C110.568 93.6193 110.72 92.8224 110.837 92.0165C110.962 91.112 111.052 90.2076 111.177 89.3032C111.41 87.7362 111.661 86.1691 111.902 84.5931C112.001 83.9663 112.377 83.6081 113.013 83.5902C113.649 83.5723 114.284 83.5902 114.92 83.5902C118.287 83.5902 121.654 83.5902 125.021 83.5902C125.272 83.5902 125.522 83.6171 125.8 83.635C125.684 84.4678 125.585 85.2289 125.478 85.999C125.361 86.787 125.227 87.566 125.119 88.3451C125.003 89.2137 124.922 90.0823 124.815 90.9419C124.761 91.4165 124.681 91.8821 124.618 92.3567C124.6 92.4731 124.582 92.5896 124.564 92.7149C124.43 93.5746 124.269 94.4252 124.152 95.2849C124.036 96.1714 123.955 97.0579 123.857 97.9444C123.857 97.9802 123.839 98.025 123.839 98.0608C123.696 98.9384 123.543 99.8249 123.409 100.702C123.248 101.741 123.078 102.78 122.934 103.819C122.863 104.347 122.836 104.875 122.782 105.448C122.952 105.475 123.024 105.511 123.105 105.502C124.618 105.484 126.14 105.502 127.645 105.413C128.316 105.368 129.015 105.314 129.659 104.992C130.429 104.607 131.011 104.096 131.343 103.281C131.594 102.672 131.755 102.055 131.853 101.41C131.979 100.586 132.176 99.7801 132.319 98.9652C132.444 98.2399 132.525 97.5056 132.641 96.7803C132.776 95.8759 132.937 94.9804 133.062 94.076C133.178 93.2074 133.259 92.3388 133.358 91.4702C133.358 91.4075 133.375 91.3538 133.384 91.2911C133.519 90.4763 133.68 89.6525 133.787 88.8376C133.904 87.9511 133.984 87.0646 134.083 86.1781L134.065 86.187ZM289.328 74.9043C286.221 74.9043 283.114 74.8864 279.998 74.8864C276.291 74.8864 272.583 74.8864 268.876 74.8864C266.781 74.8864 264.694 74.8864 262.599 74.9401C261.865 74.958 261.121 75.0654 260.423 75.3968C259.268 75.943 258.695 76.9011 258.435 78.0921C258.301 78.6921 258.193 79.292 258.095 79.9009C257.961 80.6621 257.844 81.4321 257.728 82.1933C257.593 83.1156 257.477 84.0379 257.343 84.9692C257.343 85.0319 257.316 85.0856 257.307 85.1483C257.181 85.8915 257.047 86.6348 256.949 87.378C256.823 88.3003 256.734 89.2316 256.626 90.1539C256.555 90.7449 256.483 91.3359 256.411 91.9269C256.393 92.0881 256.358 92.2403 256.331 92.4015C256.205 93.1806 256.062 93.9596 255.955 94.7387C255.838 95.5625 255.758 96.3863 255.659 97.2101C255.659 97.2459 255.641 97.2907 255.632 97.3265C255.489 98.1862 255.337 99.0458 255.211 99.9054C255.14 100.398 255.113 100.899 255.041 101.392C254.925 102.198 255.023 102.995 255.256 103.756C255.543 104.669 256.349 105.081 257.217 105.242C258.032 105.404 258.874 105.484 259.707 105.484C266.843 105.502 273.98 105.502 281.108 105.484C282.066 105.484 282.998 105.314 283.893 104.983C284.18 104.875 284.466 104.714 284.69 104.508C285.505 103.747 285.908 102.78 286.051 101.687C286.078 101.49 286.123 101.293 286.159 101.105C286.275 100.505 286.4 99.9054 286.517 99.3055C286.597 98.9025 286.678 98.4906 286.723 98.0787C286.767 97.7295 286.767 97.3713 286.785 96.9683C286.445 96.9504 286.176 96.9146 285.899 96.9146C279.998 96.9146 274.097 96.9146 268.205 96.9146C267.184 96.9146 266.172 96.9146 265.151 96.9146C264.909 96.9146 264.659 96.8609 264.363 96.8251C264.47 95.9027 264.569 95.061 264.676 94.2193C264.748 93.6283 264.829 93.0373 264.918 92.4463C265.044 91.6493 265.214 90.8524 265.321 90.0465C265.438 89.1868 265.518 88.3093 265.608 87.4407C265.608 87.3601 265.626 87.2795 265.635 87.2079C265.778 86.3303 265.939 85.4617 266.073 84.5842C266.154 84.029 266.458 83.6887 267.005 83.5992C267.121 83.5813 267.246 83.5723 267.345 83.5186C267.766 83.3037 268.196 83.3753 268.625 83.4469C268.876 83.4917 269.127 83.5723 269.378 83.5723C273.049 83.5723 276.711 83.5723 280.383 83.5723C280.526 83.5723 280.678 83.5992 280.795 83.5544C281.368 83.3126 281.977 83.4201 282.568 83.3753C283.794 83.2768 285.021 83.4469 286.248 83.1425C287.752 82.7753 288.603 81.7993 288.997 80.4113C289.275 79.4263 289.364 78.3876 289.543 77.3757C289.561 77.2951 289.579 77.2235 289.588 77.1429C289.722 76.4265 289.857 75.7102 290 74.9132C289.704 74.9132 289.516 74.9132 289.319 74.9132L289.328 74.9043ZM98.2198 82.6947C98.3631 81.862 98.5153 81.0202 98.6317 80.1785C98.7571 79.2741 98.8287 78.3697 98.9272 77.4563C98.9272 77.4205 98.9362 77.3757 98.9451 77.3399C99.0705 76.5967 99.1959 75.8535 99.3302 75.1102C99.375 74.8684 99.2765 74.7252 99.0257 74.6983C98.9272 74.6983 98.8287 74.6983 98.7302 74.6983C96.2767 74.6983 93.8231 74.6983 91.3785 74.6983C90.8054 74.6983 90.7248 74.7431 90.6174 75.3072C90.5278 75.7729 90.5099 76.2564 90.4472 76.731C90.2861 77.8861 90.1159 79.0502 89.9458 80.2054C89.8204 81.0292 89.6861 81.853 89.5607 82.6768C89.4533 83.3843 89.3458 84.0827 89.2563 84.7901C89.1488 85.6587 89.0593 86.5273 88.9518 87.3869C88.9518 87.4496 88.925 87.5034 88.916 87.5571C88.7817 88.3361 88.6384 89.1152 88.531 89.8942C88.4146 90.7539 88.334 91.6225 88.2444 92.4911C88.2444 92.5537 88.2265 92.6075 88.2176 92.6701C88.0743 93.5835 87.9221 94.5058 87.7788 95.4192C87.6445 96.3236 87.5281 97.228 87.4027 98.1324C87.2684 99.1174 87.1072 100.093 86.9908 101.078C86.8565 102.243 86.4535 103.254 85.5401 104.034C85.0655 104.445 84.6357 104.902 84.179 105.341C84.197 105.386 84.2149 105.43 84.2417 105.475C84.4566 105.475 84.6805 105.475 84.8954 105.475C86.4893 105.475 88.0832 105.448 89.6771 105.466C90.8592 105.484 92.0143 105.35 93.1247 104.956C93.653 104.768 94.1634 104.517 94.4947 104.007C94.9872 103.254 95.3185 102.449 95.4529 101.553C95.5334 101.043 95.6498 100.55 95.7484 100.04C95.8916 99.3055 96.0618 98.5712 96.1782 97.828C96.3035 97.0221 96.3841 96.2162 96.4916 95.4013C96.5811 94.7476 96.6617 94.1029 96.7692 93.4492C96.9035 92.5627 97.0647 91.6851 97.1811 90.8076C97.2975 89.9211 97.387 89.0346 97.4855 88.1481C97.4855 88.0854 97.5124 88.0317 97.5214 87.969C97.6557 87.1093 97.8079 86.2497 97.9243 85.3901C98.0407 84.5215 98.1213 83.6529 98.2198 82.7843C98.2198 82.7485 98.2377 82.7037 98.2377 82.6679L98.2198 82.6947ZM253.797 74.7073C253.68 74.7073 253.555 74.7073 253.438 74.7073C251.066 74.7073 248.693 74.7073 246.329 74.7073C246.212 74.7073 246.087 74.6983 245.97 74.7073C245.621 74.752 245.496 74.8864 245.46 75.2445C245.424 75.558 245.406 75.8803 245.361 76.1937C245.245 76.9996 245.102 77.7966 244.994 78.6025C244.878 79.4621 244.779 80.3307 244.672 81.1993C244.672 81.2351 244.654 81.2799 244.654 81.3157C244.52 82.1396 244.376 82.9544 244.26 83.7783C244.135 84.6558 244.045 85.5423 243.947 86.4288C243.947 86.4467 243.947 86.4646 243.938 86.4915C243.803 87.2884 243.651 88.0854 243.535 88.8913C243.4 89.7957 243.311 90.7001 243.194 91.6046C243.185 91.7031 243.159 91.8015 243.141 91.9C243.015 92.7418 242.899 93.5925 242.774 94.4342C242.648 95.3565 242.523 96.2788 242.397 97.2012C242.317 97.8101 242.236 98.419 242.138 99.0279C242.021 99.789 241.833 100.55 241.762 101.311C241.663 102.458 241.18 103.371 240.311 104.105C239.854 104.49 239.46 104.938 238.959 105.439C239.165 105.466 239.219 105.484 239.281 105.484C241.332 105.484 243.391 105.502 245.442 105.457C246.49 105.43 247.52 105.224 248.46 104.741C248.702 104.616 248.925 104.445 249.113 104.257C249.946 103.416 250.179 102.305 250.412 101.204C250.537 100.622 250.546 100.013 250.725 99.4577C250.994 98.616 250.949 97.7384 251.128 96.8788C251.307 96.0102 251.343 95.1147 251.442 94.2282C251.442 94.1924 251.46 94.1476 251.46 94.1118C251.594 93.3149 251.755 92.509 251.871 91.712C252.086 90.1629 252.283 88.6048 252.489 87.0467C252.489 86.984 252.516 86.9303 252.525 86.8676C252.65 86.0438 252.785 85.2199 252.91 84.3961C253 83.8499 253.098 83.3037 253.161 82.7574C253.268 81.8709 253.349 80.9844 253.447 80.0979C253.465 79.9636 253.492 79.8203 253.519 79.686C253.653 78.8264 253.779 77.9667 253.913 77.1071C253.967 76.7579 254.038 76.4086 254.074 76.0504C254.11 75.7191 254.137 75.3789 254.146 75.0386C254.146 74.8237 254.021 74.7162 253.806 74.6983L253.797 74.7073ZM100.145 69.2629C100.261 68.3764 100.342 67.4899 100.441 66.5944C100.45 66.4959 100.476 66.3974 100.485 66.2989C100.62 65.3766 100.763 64.4632 100.897 63.5409C100.942 63.2096 100.978 62.8693 101.041 62.538C101.112 62.144 101.041 62.0365 100.638 62.0186C100.315 62.0097 100.002 62.0186 99.6794 62.0365C98.6496 62.0903 97.6109 62.1529 96.5811 62.1977C95.9274 62.2246 95.2827 62.1977 94.638 62.4216C93.841 62.6902 93.1605 63.1021 92.7486 63.8275C92.3277 64.5707 92.0322 65.3587 91.9516 66.2273C91.9068 66.7735 91.7636 67.3197 91.6651 67.866C91.5218 68.645 91.3785 69.4151 91.2442 70.1942C91.1726 70.6061 91.1188 71.018 91.0651 71.4299C91.0293 71.7164 91.0293 72.0119 91.0024 72.3343H99.6615C99.8227 71.2866 100.002 70.2747 100.145 69.2539V69.2629ZM255.865 62.9589C255.982 62.1171 255.901 62.0007 255.059 62.0276C253.788 62.0724 252.516 62.1977 251.245 62.1977C250.269 62.1977 249.391 62.3947 248.54 62.8962C248.182 63.1021 247.896 63.3439 247.699 63.6842C247.34 64.311 247.054 64.9736 246.92 65.699C246.749 66.5944 246.499 67.463 246.445 68.3764C246.445 68.4122 246.427 68.457 246.418 68.4928C246.284 69.1912 246.114 69.8897 246.015 70.5882C245.935 71.1344 245.935 71.6985 245.899 72.3164C246.06 72.3433 246.158 72.3701 246.257 72.3701C248.863 72.3701 251.477 72.3701 254.083 72.3701C254.54 72.3701 254.567 72.3164 254.62 71.8508C254.728 70.9195 254.835 69.9972 254.961 69.0748C255.086 68.2152 255.256 67.3556 255.382 66.487C255.552 65.3139 255.686 64.1319 255.856 62.9499L255.865 62.9589Z" fill="white"/>
</svg>
