<svg width="306" height="180" viewBox="0 0 306 180" fill="none" xmlns="http://www.w3.org/2000/svg">
<path d="M155.48 77.1145C158.244 77.1145 161.009 77.1065 163.773 77.1175C165.927 77.1255 167.775 78.6125 168.234 80.6915C168.39 81.3975 168.312 82.1175 168.331 82.8325C168.336 83.0085 168.256 83.0465 168.098 83.0465C166.966 83.0425 165.835 83.0405 164.703 83.0485C164.508 83.0495 164.46 82.9765 164.466 82.7985C164.476 82.4695 164.472 82.1395 164.468 81.8105C164.461 81.1035 164.184 80.8305 163.467 80.8305C160.516 80.8285 157.566 80.8295 154.615 80.8295C152.223 80.8295 149.831 80.8285 147.439 80.8295C146.685 80.8295 146.428 81.0835 146.427 81.8265C146.426 83.4305 146.426 85.0345 146.427 86.6385C146.427 87.4385 146.669 87.6765 147.486 87.6765C152.886 87.6775 158.286 87.6745 163.686 87.6785C165.768 87.6795 167.54 88.9635 168.138 90.8775C168.246 91.2225 168.314 91.5745 168.315 91.9315C168.323 93.8505 168.385 95.7715 168.302 97.6865C168.198 100.098 166.208 101.933 163.773 101.947C160.436 101.966 157.098 101.953 153.761 101.953C151.541 101.953 149.321 101.966 147.101 101.948C144.902 101.93 143.052 100.406 142.628 98.2825C142.492 97.6035 142.582 96.9115 142.556 96.2255C142.549 96.0435 142.634 96.0175 142.787 96.0175C143.919 96.0215 145.05 96.0255 146.182 96.0155C146.411 96.0135 146.434 96.1195 146.43 96.3025C146.421 96.6605 146.423 97.0185 146.429 97.3765C146.438 97.9125 146.703 98.1905 147.238 98.2325C147.338 98.2405 147.438 98.2355 147.539 98.2355C152.796 98.2355 158.052 98.2355 163.309 98.2355C164.251 98.2355 164.469 98.0155 164.469 97.0655C164.469 95.5185 164.47 93.9725 164.468 92.4255C164.467 91.6545 164.203 91.3905 163.439 91.3895C158.039 91.3885 152.639 91.3925 147.239 91.3875C145.097 91.3855 143.314 90.0925 142.728 88.1495C142.598 87.7195 142.559 87.2815 142.559 86.8355C142.56 85.1175 142.555 83.3985 142.56 81.6805C142.568 79.1155 144.563 77.1245 147.142 77.1175C149.923 77.1085 152.702 77.1145 155.48 77.1145Z" fill="white"/>
<path d="M114.09 91.3815C114.09 94.7615 114.084 98.1405 114.099 101.52C114.101 101.883 114.006 101.97 113.652 101.961C112.664 101.935 111.675 101.927 110.688 101.962C110.271 101.977 110.21 101.83 110.213 101.462C110.228 98.8705 110.212 96.2785 110.231 93.6865C110.234 93.3145 110.123 93.2535 109.78 93.2535C104.065 93.2645 98.35 93.2655 92.635 93.2515C92.252 93.2505 92.172 93.3485 92.174 93.7185C92.192 96.3245 92.177 98.9305 92.191 101.537C92.193 101.874 92.107 101.968 91.769 101.96C90.767 101.936 89.764 101.935 88.762 101.96C88.413 101.969 88.312 101.891 88.313 101.524C88.328 97.4295 88.322 93.3335 88.322 89.2375C88.322 86.7455 88.365 84.2535 88.31 81.7625C88.25 79.0615 90.533 77.0935 92.994 77.1055C98.465 77.1315 103.937 77.1345 109.408 77.1045C111.788 77.0915 114.15 78.9745 114.102 81.8015C114.048 84.9945 114.09 88.1885 114.09 91.3815ZM101.204 89.5285C104.068 89.5285 106.933 89.5235 109.797 89.5355C110.122 89.5365 110.232 89.4705 110.23 89.1195C110.213 86.6855 110.222 84.2515 110.221 81.8165C110.221 81.0995 109.953 80.8295 109.238 80.8295C103.882 80.8285 98.525 80.8285 93.169 80.8295C92.456 80.8295 92.186 81.1005 92.185 81.8195C92.182 84.2535 92.192 86.6885 92.175 89.1225C92.172 89.4785 92.291 89.5365 92.611 89.5355C95.475 89.5235 98.339 89.5285 101.204 89.5285Z" fill="white"/>
<path d="M183.55 77.1145C186.328 77.1145 189.106 77.1065 191.884 77.1175C194.036 77.1265 195.877 78.6155 196.34 80.6965C196.418 81.0475 196.434 81.4055 196.434 81.7635C196.435 86.9455 196.438 92.1285 196.433 97.3105C196.431 99.9365 194.456 101.941 191.829 101.947C186.302 101.961 180.775 101.961 175.248 101.946C172.638 101.939 170.667 99.9355 170.666 97.3415C170.664 92.1305 170.664 86.9195 170.666 81.7085C170.667 79.1145 172.656 77.1235 175.26 77.1165C178.023 77.1095 180.786 77.1145 183.55 77.1145ZM183.537 80.8285C180.873 80.8285 178.209 80.8275 175.545 80.8285C174.792 80.8285 174.527 81.0855 174.527 81.8255C174.526 86.9525 174.526 92.0785 174.527 97.2055C174.527 97.9825 174.778 98.2335 175.559 98.2335C180.873 98.2355 186.187 98.2345 191.5 98.2335C192.31 98.2335 192.566 97.9815 192.566 97.1905C192.567 92.0785 192.567 86.9665 192.566 81.8535C192.566 81.0855 192.306 80.8285 191.529 80.8285C188.865 80.8275 186.201 80.8285 183.537 80.8285Z" fill="white"/>
<path d="M202.814 82.1135C202.814 82.3755 202.814 82.5315 202.814 82.6875C202.814 88.9455 202.809 95.2035 202.825 101.462C202.826 101.893 202.704 101.974 202.305 101.962C201.332 101.932 200.357 101.936 199.384 101.961C199.038 101.97 198.934 101.897 198.936 101.528C198.952 97.8755 198.946 94.2245 198.946 90.5725C198.946 86.2335 198.95 81.8945 198.938 77.5555C198.937 77.2135 198.995 77.0965 199.369 77.1055C200.643 77.1325 201.918 77.1215 203.193 77.1115C203.428 77.1095 203.583 77.1775 203.741 77.3575C209.325 83.7715 214.915 90.1805 220.507 96.5885C220.595 96.6895 220.652 96.8325 220.817 96.8685C220.899 96.7165 220.855 96.5585 220.855 96.4095C220.858 90.1225 220.861 83.8365 220.849 77.5495C220.848 77.1965 220.924 77.0955 221.287 77.1055C222.303 77.1335 223.321 77.1255 224.337 77.1085C224.622 77.1035 224.726 77.1605 224.726 77.4755C224.717 85.5095 224.717 93.5425 224.725 101.577C224.725 101.872 224.658 101.963 224.351 101.959C223.062 101.941 221.773 101.945 220.484 101.957C220.232 101.96 220.068 101.887 219.902 101.695C215.551 96.6935 211.193 91.6985 206.837 86.7015C205.586 85.2665 204.336 83.8305 203.084 82.3945C203.021 82.3245 202.952 82.2575 202.814 82.1135Z" fill="white"/>
<path d="M32.752 89.5525C32.752 85.5585 32.757 81.5645 32.743 77.5715C32.742 77.2095 32.842 77.1305 33.193 77.1315C40.066 77.1425 46.938 77.1375 53.811 77.1405C56.192 77.1415 58.134 78.7615 58.491 81.0365C58.528 81.2755 58.528 81.5215 58.528 81.7645C58.531 83.9685 58.481 86.1745 58.542 88.3775C58.622 91.2745 56.125 93.1055 53.813 93.0965C49.002 93.0785 44.191 93.0945 39.381 93.0875C38.523 93.0865 37.663 93.1525 36.808 93.0355C36.646 93.0135 36.613 93.0725 36.616 93.2145C36.622 93.5145 36.618 93.8155 36.618 94.1165C36.618 96.6075 36.612 99.0985 36.626 101.588C36.628 101.894 36.546 101.964 36.249 101.959C35.204 101.939 34.158 101.938 33.114 101.96C32.802 101.966 32.745 101.869 32.746 101.578C32.756 97.5685 32.752 93.5605 32.752 89.5525ZM45.682 89.3565C48.331 89.3565 50.98 89.3575 53.629 89.3555C54.416 89.3545 54.663 89.1085 54.663 88.3395C54.663 86.1775 54.664 84.0165 54.663 81.8545C54.663 81.1345 54.409 80.8785 53.681 80.8785C48.326 80.8775 42.971 80.8775 37.616 80.8785C36.871 80.8785 36.619 81.1365 36.619 81.8885C36.618 84.0075 36.619 86.1255 36.619 88.2445C36.619 89.1365 36.839 89.3565 37.737 89.3565C40.384 89.3565 43.033 89.3565 45.682 89.3565Z" fill="white"/>
<path d="M73.281 101.951C69.128 101.951 64.975 101.945 60.821 101.961C60.45 101.962 60.388 101.857 60.389 101.513C60.4 93.5225 60.4 85.5335 60.389 77.5435C60.388 77.1745 60.462 77.0565 60.852 77.0695C61.839 77.1015 62.829 77.1035 63.816 77.0685C64.218 77.0545 64.274 77.1925 64.273 77.5505C64.263 84.2655 64.271 90.9815 64.253 97.6965C64.252 98.1605 64.388 98.2445 64.819 98.2435C71.779 98.2305 78.739 98.2375 85.7 98.2235C86.107 98.2225 86.195 98.3415 86.184 98.7225C86.157 99.6665 86.161 100.613 86.183 101.558C86.191 101.878 86.109 101.961 85.784 101.96C81.617 101.947 77.449 101.951 73.281 101.951Z" fill="white"/>
<path d="M128.453 88.4185C129.869 86.6835 131.263 84.9765 132.656 83.2695C134.249 81.3175 135.845 79.3685 137.429 77.4105C137.609 77.1875 137.795 77.1055 138.078 77.1085C139.447 77.1225 140.817 77.1145 142.26 77.1145C142.117 77.3035 142.018 77.4355 141.918 77.5665C138.16 82.4745 134.404 87.3835 130.641 92.2875C130.458 92.5265 130.374 92.7595 130.375 93.0645C130.386 95.8855 130.373 98.7065 130.392 101.528C130.394 101.897 130.291 101.969 129.945 101.96C128.929 101.935 127.911 101.934 126.895 101.961C126.558 101.97 126.506 101.863 126.507 101.557C126.519 98.7355 126.508 95.9145 126.522 93.0935C126.524 92.7555 126.424 92.5025 126.223 92.2405C122.45 87.3265 118.685 82.4065 114.918 77.4875C114.841 77.3875 114.768 77.2835 114.645 77.1145C114.859 77.1145 115.02 77.1145 115.182 77.1145C116.385 77.1145 117.588 77.1235 118.791 77.1085C119.075 77.1045 119.256 77.1915 119.436 77.4135C122.34 80.9735 125.254 84.5265 128.165 88.0805C128.246 88.1795 128.331 88.2765 128.453 88.4185Z" fill="white"/>
<path d="M268.572 83.1745C269.044 83.2565 269.443 83.5195 269.869 83.7125C274.109 85.6375 278.346 87.5715 282.583 89.5035C282.699 89.5565 282.811 89.6175 283.001 89.7135C278.184 91.9115 273.426 94.0815 268.618 96.2755C268.609 96.0815 268.597 95.9335 268.597 95.7845C268.596 91.7495 268.596 87.7145 268.595 83.6795C268.595 83.5085 268.582 83.3375 268.575 83.1665C268.575 83.1675 268.572 83.1745 268.572 83.1745Z" fill="#FEE502"/>
<path d="M254.138 102.895C251.225 104.22 248.311 105.544 245.398 106.87C243.553 107.71 241.709 108.551 239.868 109.389C239.748 109.3 239.789 109.193 239.789 109.103C239.787 104.94 239.787 100.777 239.788 96.6135C239.788 96.4995 239.807 96.3865 239.817 96.2725L239.851 96.2745C239.945 96.3235 240.038 96.3735 240.132 96.4225C243.103 97.7815 246.074 99.1425 249.046 100.499C250.746 101.275 252.449 102.043 254.15 102.814C254.15 102.842 254.145 102.869 254.138 102.895Z" fill="#FAB041"/>
<path d="M239.821 83.1345C239.81 83.0215 239.79 82.9075 239.79 82.7945C239.788 78.6305 239.789 74.4655 239.789 70.3015C239.789 70.2175 239.796 70.1345 239.803 69.9995C240.349 70.2465 240.867 70.4785 241.383 70.7135C245.568 72.6215 249.753 74.5305 253.939 76.4395C254.004 76.4685 254.071 76.4925 254.137 76.5185C254.145 76.5445 254.148 76.5705 254.145 76.5975C250.96 78.0455 247.773 79.4905 244.59 80.9425C243.006 81.6655 241.429 82.4025 239.849 83.1335C239.848 83.1345 239.821 83.1345 239.821 83.1345Z" fill="#EA098C"/>
<path d="M239.821 83.1345H239.849C240.052 83.2365 240.252 83.3445 240.458 83.4385C245.019 85.5155 249.581 87.5915 254.142 89.6675C254.146 89.6935 254.147 89.7185 254.144 89.7445C252.676 90.4085 251.207 91.0685 249.741 91.7375C246.537 93.2005 243.335 94.6695 240.132 96.1355C240.038 96.1825 239.945 96.2285 239.851 96.2755L239.817 96.2735C239.807 96.1455 239.788 96.0175 239.788 95.8905C239.787 91.7665 239.787 87.6425 239.788 83.5185C239.789 83.3895 239.81 83.2625 239.821 83.1345Z" fill="#EB2128"/>
<path d="M268.572 83.1745L268.575 83.1665C266.338 84.1805 264.1 85.1925 261.864 86.2095C259.472 87.2975 257.083 88.3915 254.693 89.4835C254.564 89.5425 254.44 89.6135 254.314 89.6785C254.277 89.6745 254.241 89.6705 254.204 89.6665C254.205 85.3095 254.207 80.9535 254.208 76.5965L254.224 76.5875C256.537 77.6365 258.851 78.6845 261.163 79.7365C263.501 80.8005 265.838 81.8705 268.175 82.9365C268.316 83.0015 268.469 83.0465 268.572 83.1745Z" fill="#01AEEE"/>
<path d="M254.313 89.7335C256.31 90.6535 258.304 91.5765 260.303 92.4915C262.912 93.6865 265.525 94.8745 268.135 96.0655C268.26 96.1225 268.38 96.1885 268.58 96.2895C267.763 96.6625 267.017 97.0045 266.27 97.3455C262.347 99.1365 258.425 100.927 254.502 102.717C254.411 102.758 254.317 102.79 254.224 102.826L254.206 102.817C254.205 98.4595 254.203 94.1015 254.202 89.7445C254.239 89.7405 254.276 89.7365 254.313 89.7335Z" fill="#01B5A5"/>
<path d="M254.313 89.7335C254.276 89.7365 254.239 89.7405 254.202 89.7435C254.183 89.7465 254.164 89.7465 254.144 89.7445C254.146 89.7185 254.146 89.6925 254.142 89.6675L254.172 89.6655L254.202 89.6665C254.239 89.6705 254.275 89.6745 254.312 89.6785C254.313 89.6975 254.313 89.7155 254.313 89.7335Z" fill="#FDFDFD"/>
<path d="M254.145 76.5985C254.148 76.5715 254.145 76.5445 254.137 76.5195C254.166 76.5425 254.195 76.5655 254.224 76.5885L254.208 76.5975C254.186 76.5995 254.165 76.6005 254.145 76.5985Z" fill="#FDFDFD"/>
<path d="M254.138 102.894C254.145 102.868 254.15 102.841 254.15 102.814L254.178 102.813L254.206 102.816L254.224 102.825C254.195 102.848 254.167 102.871 254.138 102.894Z" fill="#FDFDFD"/>
<path d="M240.132 96.1355C240.132 96.2315 240.132 96.3275 240.132 96.4235C240.038 96.3745 239.945 96.3245 239.851 96.2755C239.945 96.2285 240.039 96.1825 240.132 96.1355Z" fill="#FEFDFD"/>
</svg>
