<svg width="306" height="180" viewBox="0 0 306 180" fill="none" xmlns="http://www.w3.org/2000/svg">
<g clip-path="url(#clip0_2_329)">
<path d="M76.991 67.933C74.048 65.798 70.868 64.369 67.351 63.574C66.291 63.335 65.186 63.364 64.152 62.996C63.862 62.996 63.571 62.996 63.281 62.996C61.945 62.996 60.61 62.996 59.274 62.996C59.042 62.996 58.809 62.996 58.577 62.996C58.481 63.194 58.291 63.156 58.125 63.174C51.653 63.904 46.284 66.798 41.829 71.463C40.698 72.648 40.745 74.187 41.845 75.243C42.858 76.216 44.466 76.287 45.585 75.02C52.362 67.351 63.486 66.497 71.158 70.355C79.674 74.637 84.509 84.008 82.931 93.405C81.781 100.255 77.889 105.232 72.021 108.725C67.666 111.317 62.88 111.917 57.916 111.228C54.983 110.821 52.236 109.757 49.757 108.194C48.133 107.17 46.665 105.861 45.368 104.406C45.178 104.193 44.992 103.966 44.703 103.861C43.662 103.482 42.253 103.905 41.657 104.784C40.899 105.9 40.979 107.197 41.859 108.124C46.483 112.997 52.077 115.916 58.828 116.522C65.468 117.118 71.541 115.606 76.982 111.714C87.025 104.528 90.954 91.848 86.632 80.35C84.712 75.238 81.44 71.161 76.991 67.933Z" fill="url(#paint0_linear_2_329)"/>
<path d="M235.292 80.163C233.37 79.244 231.6 80.232 230.937 82.592C230.725 82.405 230.538 82.234 230.343 82.071C226.138 78.55 220.15 79.04 216.798 83.018C212.433 88.197 212.725 95.983 217.053 100.672C219.442 103.26 222.37 104.278 225.849 103.662C227.83 103.311 229.456 102.299 231.038 100.923C231.038 101.75 231.007 102.578 231.047 103.403C231.086 104.196 230.833 104.888 230.413 105.524C228.374 108.612 223.94 109.229 221.089 106.876C220.335 106.254 219.875 105.408 219.187 104.747C218.332 103.926 217.188 103.791 216.087 104.402C215.246 104.868 214.742 106.081 214.919 107.099C215.038 107.784 215.373 108.337 215.805 108.856C220.804 114.874 230.258 114.671 234.963 108.435C236.117 106.905 236.955 105.211 236.965 103.261C236.997 96.402 236.982 89.543 236.975 82.684C236.972 81.487 236.322 80.655 235.292 80.163ZM230.896 91.566C231.025 94.388 230.108 96.596 228.025 98.218C226.421 99.468 224.37 99.201 222.856 97.868C219.512 94.924 219.66 88.81 222.601 85.756C224.498 83.786 227.689 84.118 229.311 86.464C230.409 88.053 231.069 89.784 230.896 91.566Z" fill="url(#paint1_linear_2_329)"/>
<path d="M109.973 80.214C108.673 80.667 107.617 81.526 106.521 82.471C106.464 82.283 106.448 82.256 106.448 82.228C106.441 79.681 106.442 77.135 106.427 74.588C106.418 73.089 105.518 71.846 104.227 71.506C102.145 70.958 100.412 72.326 100.409 74.548C100.402 81.292 100.406 88.036 100.406 94.78C100.406 96.864 100.396 98.948 100.41 101.032C100.419 102.316 101.031 103.257 102.205 103.76C103.305 104.232 104.339 104.042 105.302 103.302C106.146 102.654 106.341 101.719 106.521 100.661C107.826 102.033 109.255 102.998 110.981 103.449C114.874 104.466 118.547 103.07 121.214 99.586C124.918 94.747 124.613 87.339 120.532 82.81C117.679 79.642 113.668 78.926 109.973 80.214ZM114.724 97.643C112.926 99.446 110.27 99.352 108.589 97.439C107.149 95.801 106.449 93.899 106.487 91.445C106.489 89.8 106.951 88.021 108.074 86.419C109.998 83.673 113.617 83.69 115.496 86.476C117.909 90.053 117.582 94.778 114.724 97.643Z" fill="url(#paint2_linear_2_329)"/>
<path d="M155.739 79.691C148.793 79.677 143.791 85.8 143.863 92.163C143.935 98.504 149.72 104.415 155.7 104.008C161.334 104.42 167.604 98.952 167.597 91.941C167.591 85.334 162.236 79.704 155.739 79.691ZM159.493 97.242C157.081 99.956 153.855 99.83 151.668 96.941C149.473 94.042 149.611 89.125 151.965 86.349C154.109 83.82 157.799 83.988 159.731 86.694C160.843 88.251 161.377 89.982 161.362 91.891C161.334 93.881 160.85 95.714 159.493 97.242Z" fill="url(#paint3_linear_2_329)"/>
<path d="M263.444 89.522C262.229 82.441 254.566 77.051 246.636 80.904C242.167 83.075 240.157 86.986 240.064 91.022C240.051 95.687 241.545 98.747 244.374 101.263C248.131 104.605 254.358 104.998 258.387 101.981C262.566 98.852 264.328 94.667 263.444 89.522ZM255.488 97.396C253.579 99.546 250.603 99.766 248.589 97.768C245.428 94.632 245.421 88.941 248.57 85.859C249.482 84.967 250.56 84.493 251.797 84.525C253.609 84.486 254.881 85.359 255.875 86.702C258.069 89.667 258.079 94.478 255.488 97.396Z" fill="url(#paint4_linear_2_329)"/>
<path d="M53.903 85.906C53.936 87.668 55.003 88.682 56.767 88.678C58.392 88.674 60.019 88.616 61.642 88.661C62.593 88.687 63.568 88.512 64.496 88.816C67.185 89.697 68.761 92.443 68.326 95.441C67.964 97.937 65.781 99.714 63.01 99.798C60.749 99.867 58.487 99.923 56.231 100.063C54.775 100.154 53.82 101.299 53.899 102.675C53.976 104.014 55.1 105.035 56.507 105.053C56.912 105.058 57.317 105.102 57.722 105.102C60.241 105.101 62.794 105.545 65.271 104.994C69.441 104.067 72.392 101.565 73.518 97.405C74.677 93.12 73.743 89.235 70.312 86.207C67.254 83.508 63.706 83.084 59.895 84.297C58.945 84.599 58.95 84.62 58.95 83.589C58.949 81.158 58.955 78.727 58.948 76.296C58.943 74.678 57.926 73.639 56.381 73.65C54.844 73.661 53.912 74.635 53.899 76.27C53.887 77.862 53.896 79.454 53.897 81.045C53.896 82.665 53.872 84.286 53.903 85.906Z" fill="url(#paint5_linear_2_329)"/>
<path d="M137.723 84.993C139.167 84.875 140.242 83.697 140.215 82.262C140.188 80.846 139.035 79.689 137.562 79.714C135.593 79.747 133.694 80.152 132.018 81.234C128.146 83.733 126.196 87.305 126.139 91.899C126.124 92.745 126.197 93.576 126.344 94.405C127.257 99.555 132.338 104.215 137.443 104.047C138.779 104.003 140.218 102.953 140.207 101.43C140.195 99.886 139.085 98.786 137.489 98.783C136.113 98.78 135.054 98.192 134.153 97.198C132.438 95.306 131.988 93.094 132.217 90.607C132.505 87.497 134.631 85.245 137.723 84.993Z" fill="url(#paint6_linear_2_329)"/>
<path d="M174.026 79.716C172.378 79.669 171.275 80.727 171.265 82.278C171.254 83.902 172.23 84.865 173.919 84.902C175.372 84.934 176.536 85.545 177.455 86.656C179.209 88.774 179.65 91.201 179.073 93.823C178.424 96.776 176.516 98.426 173.462 98.785C172.324 98.919 171.417 99.909 171.269 101.032C171.067 102.565 172.177 104.282 174.131 104.037C177.925 103.905 180.606 102.166 182.732 99.505C186.662 94.585 186.096 87.258 181.532 82.852C179.43 80.825 176.924 79.799 174.026 79.716Z" fill="url(#paint7_linear_2_329)"/>
<path d="M202.291 79.698C199.488 79.488 197.138 80.428 195.243 82.541C195.154 82.244 195.101 82.02 195.021 81.805C194.511 80.434 193.155 79.652 191.695 79.881C190.253 80.107 189.262 81.202 189.258 82.706C189.24 88.841 189.244 94.976 189.258 101.11C189.26 101.946 189.544 102.703 190.208 103.266C191.131 104.05 192.195 104.248 193.292 103.777C194.467 103.273 195.179 102.387 195.175 101.023C195.163 97.03 195.173 93.036 195.169 89.043C195.168 88.311 195.271 87.602 195.591 86.939C196.786 84.467 199.252 83.705 202.102 84.922C203.756 86.131 204.407 87.742 204.361 89.793C204.275 93.612 204.319 97.433 204.348 101.254C204.36 102.838 205.544 103.956 207.122 103.986C208.725 104.016 210.142 102.876 210.153 101.387C210.186 96.525 210.255 91.66 210.117 86.802C210.01 83.089 206.012 79.597 202.291 79.698Z" fill="url(#paint8_linear_2_329)"/>
<path d="M60.818 94.365C60.812 92.949 59.656 91.808 58.224 91.804C56.562 91.8 55.474 92.802 55.464 94.345C55.454 95.808 56.629 97.011 58.071 97.015C59.552 97.02 60.825 95.792 60.818 94.365Z" fill="url(#paint9_linear_2_329)"/>
</g>
<defs>
<linearGradient id="paint0_linear_2_329" x1="41.2224" y1="89.8215" x2="264.227" y2="89.8215" gradientUnits="userSpaceOnUse">
<stop stop-color="#66F28D"/>
<stop offset="1" stop-color="#01FFDD"/>
</linearGradient>
<linearGradient id="paint1_linear_2_329" x1="41.2224" y1="96.475" x2="264.227" y2="96.475" gradientUnits="userSpaceOnUse">
<stop stop-color="#66F28D"/>
<stop offset="1" stop-color="#01FFDD"/>
</linearGradient>
<linearGradient id="paint2_linear_2_329" x1="41.2224" y1="87.7015" x2="264.227" y2="87.7015" gradientUnits="userSpaceOnUse">
<stop stop-color="#66F28D"/>
<stop offset="1" stop-color="#01FFDD"/>
</linearGradient>
<linearGradient id="paint3_linear_2_329" x1="41.2224" y1="91.8602" x2="264.227" y2="91.8602" gradientUnits="userSpaceOnUse">
<stop stop-color="#66F28D"/>
<stop offset="1" stop-color="#01FFDD"/>
</linearGradient>
<linearGradient id="paint4_linear_2_329" x1="41.2224" y1="91.8226" x2="264.227" y2="91.8226" gradientUnits="userSpaceOnUse">
<stop stop-color="#66F28D"/>
<stop offset="1" stop-color="#01FFDD"/>
</linearGradient>
<linearGradient id="paint5_linear_2_329" x1="41.2224" y1="89.4592" x2="264.227" y2="89.4592" gradientUnits="userSpaceOnUse">
<stop stop-color="#66F28D"/>
<stop offset="1" stop-color="#01FFDD"/>
</linearGradient>
<linearGradient id="paint6_linear_2_329" x1="41.2224" y1="91.882" x2="264.227" y2="91.882" gradientUnits="userSpaceOnUse">
<stop stop-color="#66F28D"/>
<stop offset="1" stop-color="#01FFDD"/>
</linearGradient>
<linearGradient id="paint7_linear_2_329" x1="41.2224" y1="91.8879" x2="264.227" y2="91.8879" gradientUnits="userSpaceOnUse">
<stop stop-color="#66F28D"/>
<stop offset="1" stop-color="#01FFDD"/>
</linearGradient>
<linearGradient id="paint8_linear_2_329" x1="41.2224" y1="91.8499" x2="264.227" y2="91.8499" gradientUnits="userSpaceOnUse">
<stop stop-color="#66F28D"/>
<stop offset="1" stop-color="#01FFDD"/>
</linearGradient>
<linearGradient id="paint9_linear_2_329" x1="41.2224" y1="94.41" x2="264.227" y2="94.41" gradientUnits="userSpaceOnUse">
<stop stop-color="#66F28D"/>
<stop offset="1" stop-color="#01FFDD"/>
</linearGradient>
<clipPath id="clip0_2_329">
<rect width="306" height="180" fill="white"/>
</clipPath>
</defs>
</svg>
