<svg width="306" height="180" viewBox="0 0 306 180" fill="none" xmlns="http://www.w3.org/2000/svg">
<g clip-path="url(#clip0_413_1097)">
<path d="M53.514 69.1892L79.5742 81.3278C78.9594 80.921 66.5677 72.5756 62.7486 65.9707C58.823 59.2097 59.1091 54.2034 62.4246 49.3626C65.7519 44.5242 73.953 41.4736 86.4416 42.2777C98.9278 43.0817 112.667 46.8654 122.968 56.1473C122.968 56.1473 114.178 40.5253 91.8074 36.1552C69.4363 31.7826 52.2181 40.5963 42.3001 49.6393C39.6704 52.042 38.313 54.3216 37.8684 56.5067C38.06 63.1731 53.514 69.1892 53.514 69.1892Z" fill="url(#paint0_linear_413_1097)"/>
<path d="M53.514 69.1892L79.5742 81.3278C78.9594 80.921 66.5677 72.5756 62.7486 65.9707C58.823 59.2097 59.1091 54.2034 62.4246 49.3626C65.7519 44.5242 73.953 41.4736 86.4416 42.2777C98.9278 43.0817 112.667 46.8654 122.968 56.1473C122.968 56.1473 114.178 40.5253 91.8074 36.1552C69.4363 31.7826 52.2181 40.5963 42.3001 49.6393C39.6704 52.042 38.313 54.3216 37.8684 56.5067C38.06 63.1731 53.514 69.1892 53.514 69.1892Z" fill="url(#paint1_linear_413_1097)"/>
<path d="M62.4249 129.636C59.0976 124.798 58.8233 119.789 62.7489 113.03C66.6744 106.267 79.5958 97.6591 79.5958 97.6591L53.5143 109.812C53.5143 109.812 38.0484 115.84 37.8569 122.492C38.3015 124.677 39.6565 126.959 42.2885 129.359C52.2184 138.402 69.4247 147.216 91.7958 142.846C114.179 138.487 122.969 122.851 122.969 122.851C112.665 132.121 98.9281 135.917 86.4419 136.721C73.9533 137.513 65.7498 134.474 62.4249 129.636Z" fill="url(#paint2_linear_413_1097)"/>
<path d="M62.4249 129.636C59.0976 124.798 58.8233 119.789 62.7489 113.03C66.6744 106.267 79.5958 97.6591 79.5958 97.6591L53.5143 109.812C53.5143 109.812 38.0484 115.84 37.8569 122.492C38.3015 124.677 39.6565 126.959 42.2885 129.359C52.2184 138.402 69.4247 147.216 91.7958 142.846C114.179 138.487 122.969 122.851 122.969 122.851C112.665 132.121 98.9281 135.917 86.4419 136.721C73.9533 137.513 65.7498 134.474 62.4249 129.636Z" fill="url(#paint3_linear_413_1097)"/>
<path d="M53.5142 109.812L79.598 97.6591C79.598 97.6591 87.0046 93.6957 87.0046 89.7701C87.0046 89.685 87.0046 89.5904 86.9928 89.5052C86.9928 89.4225 87.0046 89.3255 87.0046 89.2428C87.0046 85.3172 79.5956 81.3514 79.5956 81.3514C79.5956 81.3514 79.5838 81.3396 79.572 81.3396L53.5142 69.201C53.5142 69.201 38.0601 63.1849 37.8568 56.5327C36.62 62.5843 42.3475 67.8081 47.0913 72.2752C53.4196 78.2535 56.229 84.1868 56.1817 89.5171C56.229 94.8497 53.4196 100.781 47.0913 106.761C42.3594 111.228 36.62 116.464 37.8568 122.504C38.0601 115.828 53.5142 109.812 53.5142 109.812Z" fill="url(#paint4_linear_413_1097)"/>
<path d="M109.314 97.7325C110.016 97.7325 110.768 97.6734 111.57 97.5528C112.374 97.4345 113.095 97.2028 113.736 96.8623C114.578 96.42 115.001 95.7484 115.001 94.8451C115.001 94.4431 114.89 94.0647 114.67 93.7029C114.469 93.3622 114.19 93.0738 113.857 92.861C113.295 93.1833 112.693 93.4306 112.067 93.5964C111.308 93.811 110.523 93.9177 109.735 93.9133C108.853 93.9133 108.073 93.7478 107.389 93.4167C107.073 93.2758 106.789 93.0706 106.556 92.8141C106.323 92.5576 106.146 92.2555 106.036 91.9269L113.467 90.8154C114.148 90.7137 114.68 90.4844 115.061 90.1225C115.441 89.7607 115.633 89.2405 115.633 88.5594C115.633 87.6371 115.458 86.7834 115.106 86.0007C114.764 85.2316 114.262 84.5445 113.632 83.9859C112.97 83.4063 112.205 82.9569 111.376 82.6616C110.444 82.331 109.461 82.1685 108.472 82.1815C107.533 82.1807 106.599 82.3275 105.705 82.6166C104.819 82.8985 103.999 83.3597 103.298 83.9717C102.568 84.6212 101.988 85.4216 101.598 86.3176C101.167 87.2706 100.952 88.4081 100.952 89.7324C100.952 91.0756 101.167 92.2485 101.598 93.2512C102.03 94.2539 102.622 95.0863 103.371 95.7484C104.126 96.4106 105.008 96.9072 106.02 97.2383C107.034 97.5693 108.132 97.7349 109.314 97.7349V97.7325ZM105.675 88.557C105.696 88.2341 105.762 87.9158 105.871 87.6111C105.984 87.2881 106.163 86.9918 106.395 86.7408C106.628 86.4897 106.91 86.2893 107.224 86.152C107.618 85.9827 108.044 85.9004 108.472 85.9108C109.215 85.9108 109.775 86.1118 110.158 86.5138C110.537 86.9159 110.759 87.3155 110.82 87.7152L105.675 88.5594V88.557ZM131.349 97.4937C132.12 97.4943 132.887 97.403 133.636 97.2217V87.8074C133.636 86.0409 133.026 84.6622 131.801 83.669C130.578 82.6758 128.833 82.1792 126.568 82.1792C125.404 82.1659 124.244 82.3179 123.122 82.6308C122.091 82.9335 121.233 83.3237 120.552 83.8061C120.15 84.0852 119.833 84.3973 119.603 84.7379C119.372 85.0784 119.258 85.5183 119.258 86.0622V95.0863C119.258 95.5876 119.322 95.9944 119.452 96.3042C119.568 96.5961 119.761 96.8511 120.01 97.042C120.273 97.2318 120.577 97.3559 120.897 97.4038C121.247 97.4629 121.644 97.4937 122.084 97.4937C122.854 97.4943 123.622 97.403 124.371 97.2217V86.7834C124.676 86.5723 125.017 86.4199 125.378 86.3341C125.771 86.2324 126.166 86.1828 126.568 86.1828C127.168 86.1828 127.646 86.327 127.996 86.6179C128.348 86.9088 128.523 87.3652 128.523 87.9871V95.0863C128.523 95.5876 128.587 95.9944 128.717 96.3042C128.833 96.5961 129.026 96.8511 129.275 97.042C129.538 97.2318 129.842 97.3559 130.162 97.4038C130.512 97.4629 130.91 97.4937 131.349 97.4937ZM145.626 97.7325C146.827 97.7325 147.891 97.5882 148.814 97.2974C149.736 97.0065 150.488 96.6707 151.07 96.29C151.952 95.7271 152.394 94.9751 152.394 94.0339V79.7741C152.407 79.3607 152.346 78.9483 152.214 78.5563C152.107 78.2634 151.918 78.0074 151.67 77.8184C151.408 77.6286 151.104 77.5046 150.783 77.4566C150.391 77.3934 149.994 77.3633 149.596 77.3668C149.135 77.3668 148.683 77.4022 148.241 77.4732C147.801 77.5441 147.48 77.608 147.279 77.6695V82.541C146.978 82.4239 146.666 82.3383 146.347 82.2856C145.96 82.2153 145.567 82.1804 145.174 82.1815C144.128 82.1727 143.087 82.3299 142.09 82.6474C141.166 82.9416 140.315 83.4284 139.593 84.0757C138.861 84.7466 138.29 85.5745 137.924 86.4973C137.522 87.4692 137.323 88.6185 137.323 89.9428C137.323 91.1465 137.507 92.2225 137.879 93.1755C138.25 94.1285 138.791 94.9468 139.503 95.6278C140.215 96.3089 141.088 96.8315 142.121 97.191C143.152 97.5528 144.32 97.7349 145.626 97.7349V97.7325ZM145.654 93.7029C144.633 93.7029 143.85 93.386 143.308 92.7569C142.767 92.1232 142.497 91.1843 142.497 89.9428C142.497 88.6776 142.788 87.7365 143.37 87.1145C143.951 86.4926 144.782 86.1828 145.865 86.1828C146.427 86.1828 146.907 86.301 147.309 86.5422V93.1613C147.108 93.3252 146.879 93.4524 146.633 93.5373C146.342 93.6485 146.016 93.7029 145.654 93.7029ZM163.991 97.7325C165.173 97.7325 166.247 97.5622 167.209 97.2217C168.135 96.9037 168.982 96.3908 169.692 95.7177C170.402 95.0282 170.951 94.1909 171.3 93.2654C171.681 92.2958 171.873 91.1843 171.873 89.9428C171.873 88.7793 171.684 87.7152 171.3 86.7527C170.946 85.8305 170.397 84.9951 169.692 84.3027C168.98 83.6174 168.135 83.0847 167.209 82.7372C166.18 82.3548 165.089 82.1663 163.991 82.1815C162.808 82.1815 161.735 82.3612 160.772 82.7231C159.846 83.0609 159 83.5885 158.289 84.272C157.599 84.9436 157.06 85.7618 156.681 86.7243C156.289 87.7505 156.094 88.8418 156.109 89.9405C156.109 91.1465 156.298 92.2272 156.681 93.1921C157.06 94.1545 157.599 94.9704 158.289 95.642C158.982 96.3136 159.81 96.8315 160.772 97.191C161.735 97.5528 162.806 97.7349 163.988 97.7349L163.991 97.7325ZM164.022 93.7336C163.177 93.7336 162.522 93.4073 162.049 92.7546C161.579 92.1019 161.342 91.1654 161.342 89.9405C161.342 88.7391 161.574 87.8121 162.035 87.1594C162.496 86.5068 163.147 86.1828 163.991 86.1828C164.833 86.1828 165.485 86.5068 165.947 87.1594C166.408 87.8121 166.637 88.7391 166.637 89.9428C166.637 91.1465 166.412 92.0782 165.961 92.7404C165.511 93.4025 164.863 93.7336 164.022 93.7336ZM178.355 97.4937C179.125 97.4943 179.893 97.403 180.641 97.2217V86.9632C180.902 86.8449 181.218 86.7385 181.587 86.6486C181.961 86.5588 182.356 86.4736 182.777 86.3932C183.629 86.2286 184.496 86.1478 185.364 86.152C185.485 85.9321 185.584 85.6862 185.664 85.4142C185.745 85.1446 185.785 84.8703 185.785 84.5865C185.785 83.7447 185.506 83.1393 184.943 82.7656C184.383 82.3967 183.619 82.2099 182.656 82.2099C182.075 82.2099 181.493 82.2572 180.911 82.3471C179.808 82.5174 178.731 82.8307 177.709 83.2788C177.236 83.4893 176.841 83.7257 176.52 83.9859C176.215 84.2271 175.965 84.5291 175.784 84.8727C175.612 85.2037 175.526 85.601 175.526 86.0622V95.0863C175.526 95.5876 175.593 95.9944 175.723 96.3042C175.838 96.5958 176.03 96.8507 176.278 97.042C176.541 97.2321 176.846 97.3562 177.168 97.4038C177.518 97.4629 177.915 97.4937 178.355 97.4937ZM191.546 102.606C192.007 102.606 192.458 102.571 192.901 102.502C193.34 102.431 193.662 102.365 193.863 102.306V97.3116C194.606 97.5717 195.407 97.7041 196.27 97.7041C197.413 97.7041 198.451 97.5433 199.383 97.2217C200.28 96.9226 201.099 96.4238 201.776 95.7626C202.459 95.0784 202.982 94.2514 203.308 93.341C203.67 92.3786 203.852 91.2553 203.852 89.9712C203.852 88.628 203.639 87.4692 203.218 86.4973C202.828 85.5679 202.231 84.7397 201.473 84.0757C200.697 83.4158 199.789 82.9289 198.81 82.6474C197.721 82.3288 196.592 82.1718 195.457 82.1815C194.315 82.1815 193.281 82.2998 192.359 82.541C191.437 82.7822 190.664 83.1038 190.042 83.5034C189.64 83.7872 189.325 84.0946 189.096 84.4375C188.864 84.7781 188.748 85.2179 188.748 85.7618V100.201C188.748 100.703 188.81 101.107 188.93 101.419C189.037 101.711 189.225 101.966 189.472 102.155C189.734 102.344 190.038 102.469 190.358 102.517C190.708 102.578 191.106 102.606 191.546 102.606ZM195.518 93.6721C195.197 93.6721 194.897 93.6319 194.615 93.5539C194.346 93.4773 194.085 93.376 193.835 93.2512V86.6321C194.083 86.5007 194.345 86.3953 194.615 86.3176C194.915 86.2277 195.256 86.1828 195.637 86.1828C196.599 86.1828 197.339 86.4926 197.848 87.1145C198.361 87.7365 198.616 88.6895 198.616 89.9712C198.616 92.4401 197.583 93.6721 195.518 93.6721ZM219.658 97.4937C220.429 97.4943 221.197 97.403 221.945 97.2217V88.1077C221.945 86.1426 221.389 84.6622 220.276 83.669C219.164 82.6758 217.613 82.1792 215.629 82.1792C214.986 82.1792 214.399 82.2454 213.867 82.3754C213.465 82.4682 213.069 82.5842 212.68 82.7231V79.7741C212.694 79.3593 212.628 78.9456 212.484 78.5563C212.368 78.2646 212.176 78.0097 211.928 77.8184C211.665 77.6286 211.361 77.5046 211.041 77.4566C210.213 77.3327 209.371 77.3375 208.544 77.4708L207.565 77.6364V95.0863C207.565 95.5876 207.631 95.9944 207.761 96.3042C207.876 96.5958 208.068 96.8507 208.317 97.042C208.58 97.2321 208.885 97.3562 209.206 97.4038C209.556 97.4629 209.953 97.4937 210.393 97.4937C211.163 97.4943 211.931 97.403 212.68 97.2217V86.6936C212.9 86.5517 213.191 86.4334 213.553 86.3318C213.912 86.2324 214.295 86.1828 214.695 86.1828C215.298 86.1828 215.804 86.3483 216.215 86.6794C216.624 87.0105 216.83 87.5851 216.83 88.4057V95.0863C216.83 95.5876 216.896 95.9944 217.026 96.3042C217.142 96.5958 217.334 96.8507 217.582 97.042C217.845 97.2321 218.15 97.3562 218.471 97.4038C218.821 97.4629 219.219 97.4937 219.658 97.4937ZM228.94 81.2782C229.782 81.2782 230.459 81.018 230.969 80.4978C231.482 79.9751 231.738 79.3319 231.738 78.5705C231.738 77.809 231.482 77.1681 230.969 76.6455C230.459 76.1252 229.782 75.8651 228.94 75.8651C228.096 75.8651 227.42 76.1252 226.909 76.6455C226.398 77.1658 226.143 77.809 226.143 78.5705C226.143 79.3319 226.398 79.9752 226.909 80.4954C227.42 81.0157 228.096 81.2782 228.94 81.2782ZM229.21 97.4937C229.652 97.4937 230.087 97.4582 230.52 97.3872C230.95 97.3163 231.277 97.2619 231.497 97.2217V84.9791C231.511 84.5642 231.444 84.1505 231.3 83.7612C231.185 83.4696 230.993 83.2146 230.745 83.0234C230.482 82.8336 230.178 82.7095 229.858 82.6616C229.03 82.5377 228.187 82.5425 227.361 82.6758L226.382 82.8413V95.0863C226.382 95.5876 226.448 95.9944 226.578 96.3042C226.693 96.5958 226.885 96.8507 227.134 97.042C227.397 97.2321 227.702 97.3562 228.023 97.4038C228.373 97.4629 228.77 97.4937 229.21 97.4937ZM247.996 97.4937C248.766 97.4943 249.534 97.403 250.283 97.2217V87.8074C250.283 86.0409 249.673 84.6622 248.448 83.669C247.225 82.6758 245.48 82.1792 243.214 82.1792C242.05 82.1659 240.89 82.3179 239.769 82.6308C238.735 82.9335 237.879 83.3237 237.198 83.8061C236.796 84.0852 236.479 84.3973 236.25 84.7379C236.018 85.0784 235.905 85.5183 235.905 86.0622V95.0863C235.905 95.5876 235.969 95.9944 236.099 96.3042C236.214 96.5961 236.407 96.8511 236.657 97.042C236.919 97.2318 237.223 97.3559 237.544 97.4038C237.893 97.4629 238.291 97.4937 238.731 97.4937C239.501 97.4943 240.269 97.403 241.017 97.2217V86.7834C241.322 86.5723 241.664 86.4199 242.025 86.3341C242.417 86.2324 242.812 86.1828 243.214 86.1828C243.815 86.1828 244.293 86.327 244.643 86.6179C244.993 86.9088 245.17 87.3652 245.17 87.9871V95.0863C245.17 95.5876 245.234 95.9944 245.364 96.3042C245.48 96.5961 245.673 96.8511 245.922 97.042C246.184 97.2318 246.489 97.3559 246.809 97.4038C247.159 97.4629 247.556 97.4937 247.996 97.4937ZM260.858 97.7325C263.223 97.7325 265.058 97.3423 266.363 96.5596C266.752 96.3307 267.103 96.0418 267.402 95.7035C267.701 95.347 267.856 94.8915 267.837 94.4265V87.6868C267.837 86.7432 267.666 85.925 267.326 85.2345C266.991 84.5497 266.489 83.9602 265.867 83.52C265.175 83.0423 264.399 82.7004 263.58 82.5126C262.609 82.283 261.614 82.1718 260.617 82.1815C259.915 82.1815 259.167 82.2288 258.375 82.3305C257.583 82.4322 256.897 82.5906 256.315 82.8129C255.795 83.0328 255.407 83.2977 255.157 83.6099C254.906 83.9197 254.781 84.3359 254.781 84.8585C254.781 85.2605 254.87 85.646 255.053 86.0172C255.232 86.3861 255.455 86.6628 255.715 86.8449C256.294 86.6037 256.947 86.4027 257.668 86.2419C258.4 86.0802 259.147 85.9994 259.896 86.0007C260.858 86.0007 261.594 86.126 262.107 86.3791C262.346 86.4846 262.547 86.6604 262.684 86.8829C262.821 87.1055 262.887 87.3644 262.873 87.6253V87.8381L258.933 88.2567C257.207 88.4388 255.935 88.8999 255.112 89.6401C254.289 90.3827 253.877 91.4468 253.877 92.8303C253.877 93.6532 254.043 94.3745 254.374 94.9964C254.705 95.6184 255.178 96.1292 255.788 96.5312C256.4 96.9332 257.131 97.2312 257.985 97.4322C258.836 97.6332 259.794 97.7325 260.858 97.7325ZM260.858 94.0032C260.116 94.0032 259.588 93.8779 259.278 93.6272C259.13 93.5124 259.01 93.3642 258.929 93.1945C258.848 93.0248 258.808 92.8385 258.813 92.6505C258.806 92.4638 258.854 92.2792 258.95 92.1189C259.046 91.9586 259.186 91.8295 259.354 91.7472C259.783 91.5272 260.256 91.4037 260.738 91.3854L262.904 91.2056V93.613C262.703 93.7312 262.398 93.8258 261.986 93.8968C261.575 93.9677 261.199 94.0032 260.858 94.0032Z" fill="white"/>
</g>
<defs>
<linearGradient id="paint0_linear_413_1097" x1="80.4159" y1="74.9957" x2="80.4159" y2="35.4712" gradientUnits="userSpaceOnUse">
<stop stop-color="#2D2E83"/>
<stop offset="0.03043" stop-color="#203C8C"/>
<stop offset="0.08742" stop-color="#00549F"/>
<stop offset="0.1501" stop-color="#0068B0"/>
<stop offset="0.2172" stop-color="#0078BF"/>
<stop offset="0.2898" stop-color="#0085CB"/>
<stop offset="0.3698" stop-color="#008FD5"/>
<stop offset="0.4603" stop-color="#0096DB"/>
<stop offset="0.5673" stop-color="#009BE0"/>
<stop offset="0.7068" stop-color="#009EE3"/>
<stop offset="1" stop-color="#009FE3"/>
</linearGradient>
<linearGradient id="paint1_linear_413_1097" x1="80.4159" y1="74.9957" x2="80.4159" y2="35.4712" gradientUnits="userSpaceOnUse">
<stop stop-color="#211F5D"/>
<stop offset="0.06978" stop-color="#192A67" stop-opacity="0.93"/>
<stop offset="0.2648" stop-color="#004C89" stop-opacity="0.735"/>
<stop offset="0.4505" stop-color="#0069A8" stop-opacity="0.549"/>
<stop offset="0.622" stop-color="#0080C1" stop-opacity="0.378"/>
<stop offset="0.776" stop-color="#0091D4" stop-opacity="0.224"/>
<stop offset="0.9072" stop-color="#009BE0" stop-opacity="0.093"/>
<stop offset="1" stop-color="#009FE3" stop-opacity="0"/>
</linearGradient>
<linearGradient id="paint2_linear_413_1097" x1="80.4162" y1="100.572" x2="80.4162" y2="142.663" gradientUnits="userSpaceOnUse">
<stop stop-color="#935B00"/>
<stop offset="0.0557" stop-color="#A36600"/>
<stop offset="0.1685" stop-color="#BD7900"/>
<stop offset="0.2901" stop-color="#D28900"/>
<stop offset="0.4214" stop-color="#E29500"/>
<stop offset="0.5671" stop-color="#EE9E00"/>
<stop offset="0.7386" stop-color="#F5A300"/>
<stop offset="1" stop-color="#F7A400"/>
</linearGradient>
<linearGradient id="paint3_linear_413_1097" x1="80.4162" y1="100.572" x2="80.4162" y2="142.663" gradientUnits="userSpaceOnUse">
<stop stop-color="#3C0E00"/>
<stop offset="0.1855" stop-color="#6E2F00" stop-opacity="0.815"/>
<stop offset="0.3977" stop-color="#9F5400" stop-opacity="0.602"/>
<stop offset="0.5929" stop-color="#C47400" stop-opacity="0.407"/>
<stop offset="0.7646" stop-color="#E08E00" stop-opacity="0.235"/>
<stop offset="0.9061" stop-color="#F19E00" stop-opacity="0.094"/>
<stop offset="1" stop-color="#F7A400" stop-opacity="0"/>
</linearGradient>
<linearGradient id="paint4_linear_413_1097" x1="37.6929" y1="89.5004" x2="87.0006" y2="89.5004" gradientUnits="userSpaceOnUse">
<stop stop-color="#5A0F09"/>
<stop offset="0.0334" stop-color="#68110C"/>
<stop offset="0.1105" stop-color="#831411"/>
<stop offset="0.1954" stop-color="#9C1413"/>
<stop offset="0.2887" stop-color="#B11213"/>
<stop offset="0.3938" stop-color="#C21013"/>
<stop offset="0.5172" stop-color="#CE0C12"/>
<stop offset="0.6766" stop-color="#D50A12"/>
<stop offset="1" stop-color="#D70911"/>
</linearGradient>
<clipPath id="clip0_413_1097">
<rect width="306" height="180" fill="white"/>
</clipPath>
</defs>
</svg>
