<svg width="306" height="180" viewBox="0 0 306 180" fill="none" xmlns="http://www.w3.org/2000/svg">
<path d="M254.383 107.583H43.6475C38.4062 107.583 35.7656 104.942 34.7088 101.895C34.1057 100.008 34.0917 97.9817 34.6688 96.0865L38.569 82.0279C39.6658 78.2505 42.9149 71.9524 50.8796 71.9524H262.71C270.024 71.9524 273.274 76.9909 272.056 82.5977C271.242 86.6594 267.911 97.4261 267.911 97.4261C266.652 103.439 261.615 107.583 254.383 107.583Z" fill="#007CBA"/>
<path d="M224.359 122.413H168.293C159.843 122.413 151.716 114.652 152.855 106.283C154.073 97.3447 159.111 83.3289 161.915 74.7558C165.245 64.5188 175.321 57.0012 183.731 57.0012H241.828C244.216 56.9717 246.578 57.5011 248.725 58.5471C250.872 59.5932 252.745 61.1269 254.194 63.0257C255.643 64.9245 256.627 67.1358 257.069 69.483C257.511 71.8302 257.398 74.2482 256.739 76.5438C254.057 85.1969 249.751 98.8485 247.109 106.772C244.631 114.165 232.769 122.413 224.359 122.413Z" fill="black"/>
<path d="M242.722 61.9182H230.087C225.897 61.8755 221.799 63.1453 218.367 65.5495C214.935 67.9537 212.342 71.3717 210.951 75.3242L204.492 95.7608C197.301 113.514 206.483 116.522 212.821 116.48H223.383C231.184 116.48 239.757 110.833 242.032 103.601L250.806 75.6497C253.204 69.1489 249.344 61.9182 242.722 61.9182ZM228.543 103.156H216.274L224.806 76.0154H237.075L228.543 103.154V103.156ZM181.497 96.2478H188.241L186.047 103.114H172.803L174.631 97.3446L174.955 96.3292L179.302 82.8405L181.456 76.0567H206.808L206.93 75.6497L210.627 62.7308H186.209C177.027 62.608 169.511 69.5959 167.887 75.3242L161.426 95.7608C153.342 114.774 163.985 116.48 169.755 116.48H180.319C184.444 116.572 188.489 115.328 191.849 112.934C195.209 110.54 197.706 107.123 198.966 103.194L204.857 82.8004H185.763L181.496 96.2478H181.497Z" fill="#DD2027"/>
<path d="M141.762 99.4983L144.526 89.7069L139.407 89.6656L136.562 99.4569L130.794 99.4983L133.963 89.3013C134.512 87.7914 135.512 86.4867 136.828 85.5639C138.143 84.641 139.71 84.1444 141.317 84.1415H146.679C149.646 84.1415 151.148 86.6193 150.457 89.5041L147.369 99.4569L141.762 99.4983ZM134.856 84.8327H127.382L129.697 78.3318H137.051L134.857 84.8313L134.856 84.8327ZM117.468 88.6501H112.43L115.802 77.8034H110.115L106.58 89.0157C105.929 91.9006 107.393 94.3798 110.357 94.3798H110.399L108.814 99.4983H114.421L116.046 94.3798C117.599 94.3232 119.1 93.8065 120.358 92.8951C121.617 91.9838 122.577 90.719 123.115 89.2613L126.73 77.8034H121.124L117.427 88.6501H117.468ZM102.476 77.8034H97.1957C95.5724 77.7777 93.982 78.2617 92.6482 79.1874C91.3145 80.113 90.3046 81.4336 89.7608 82.9632L84.3981 99.5383H90.0864L91.833 94.1756L96.8714 94.217L95.3676 99.5383H100.853L106.337 83.1661C106.947 80.2826 105.525 77.8034 102.477 77.8034H102.476ZM98.6167 88.6501H93.254L95.1221 83.2875H100.405L98.6167 88.6501ZM72.4518 77.8034L65.5466 99.4983H82.1231L85.6577 88.6501H80.0922L78.3856 94.0128H73.2671L78.3042 77.802H72.4545L72.4518 77.8034ZM64.7327 77.8034H54.0073L47.0194 99.5383H52.7077L54.4957 94.1756H59.4514C61.0452 94.1878 62.6038 93.7063 63.913 92.7973C65.2223 91.8882 66.218 90.5962 66.7635 89.0985C67.4147 87.4319 68.6743 83.2875 68.6743 83.2875C69.6083 79.997 67.7403 77.8034 64.7327 77.8034ZM61.2794 88.6501H55.9995L57.8275 83.2875H63.1088L61.2808 88.6501H61.2794Z" fill="white"/>
</svg>
