<svg width="306" height="180" viewBox="0 0 306 180" fill="none" xmlns="http://www.w3.org/2000/svg">
<g clip-path="url(#clip0_413_1089)">
<g clip-path="url(#clip1_413_1089)">
<path d="M105.303 95.8564C108.533 99.3494 112.513 101.093 117.24 101.093C119.247 101.093 121.52 100.58 124.057 99.5501L124.466 91.9203L102.164 91.0888C102.955 92.8327 104.015 94.4436 105.306 95.8564H105.303ZM67.0886 89.775L64.5637 100.348H76.3631L77.2949 94.9467H84.9867L85.8353 100.348H97.6346L95.6355 90.8411L67.0886 89.7724V89.775ZM78.789 56.7716L71.1545 88.7532L99.7014 89.8219L92.7514 56.7716H78.789V56.7716ZM82.8965 84.8014L84.047 78.1309L84.841 72.9774C84.8592 72.8862 84.8956 72.6177 84.9503 72.1772C85.0049 71.7366 85.0961 70.9468 85.2236 69.8077C85.2965 69.2394 85.3642 68.7155 85.4292 68.2385C85.4943 67.7614 85.5438 67.3287 85.5802 66.9429L85.9368 70.9677C86.0279 71.794 86.1008 72.4769 86.1555 73.0217C86.2101 73.5639 86.257 73.9914 86.2908 74.3042C86.637 77.0986 86.8296 78.6965 86.8661 79.1006C86.8817 79.3508 86.9207 79.6011 86.9754 79.8461L87.7146 84.8066H82.8965V84.8014ZM119.773 88.2475C118.854 87.7287 118.078 86.9884 117.514 86.097C116.85 85.0386 116.373 83.8734 116.103 82.6535C115.757 81.1338 115.593 79.5802 115.611 78.024C115.611 74.4606 116.267 71.6663 117.581 69.6461C118.896 67.6441 120.72 66.6405 123.055 66.6432C124.844 66.6432 126.588 67.4982 128.285 69.2055V57.0479C126.481 56.3702 124.57 56.0156 122.644 56C116.967 56 112.433 58.0202 109.038 62.0632C105.644 66.1244 103.947 71.5073 103.947 78.2143C103.947 82.849 104.715 86.7903 106.224 90.0643L128.527 90.8985L128.777 86.2351C126.788 88.0728 124.807 88.9904 122.837 88.9904C121.767 89.0112 120.713 88.7558 119.77 88.2475H119.773ZM169.654 76.327C170.245 77.3671 170.961 78.3316 171.788 79.1944C172.767 80.2136 173.829 81.1494 174.964 81.9914L176.825 83.4512C178.176 84.5355 178.85 85.646 178.85 86.7851C178.861 87.5515 178.517 88.2788 177.918 88.7558C177.236 89.3006 176.38 89.5795 175.508 89.543C172.897 89.543 170.471 87.9998 168.225 84.9135V92.3843L188.52 93.1429C189.692 90.9741 190.29 88.4769 190.29 85.6304C190.29 83.1696 189.762 81.0191 188.702 79.1814C187.664 77.3437 185.938 75.5529 183.528 73.8064L181.721 72.4561C180.17 71.3352 179.394 70.2039 179.394 69.0648C179.394 68.3636 179.717 67.7041 180.269 67.274C180.865 66.75 181.638 66.4737 182.432 66.5024C183.582 66.5024 184.749 66.9195 185.936 67.7562C187.206 68.6842 188.286 69.8494 189.111 71.1892V58.1792C186.36 56.7273 183.624 56 180.904 56C177.856 56 175.255 56.9176 173.103 58.7553C172.317 59.4017 171.617 60.1473 171.023 60.9736C169.141 63.5985 168.11 66.7396 168.069 69.9719C168.063 71.085 168.191 72.1954 168.451 73.2798C168.714 74.346 169.118 75.3704 169.656 76.3244L169.654 76.327ZM33 100.35H44.4167V88.9304L33 88.5029V100.35ZM53.928 88.1093L65.3446 88.5368V56.7716H53.9306V71.8201H48.4825V56.7716H37.0659V87.4785L48.4825 87.906V82.2104H53.9306V88.1093H53.928ZM49.8621 100.35H61.2814V89.5613L49.8647 89.1338V100.35H49.8621ZM152.05 56.7716L145.316 75.0159L145.618 56.7716H134.201V91.1096L145.498 91.5319L145.316 79.7027L149.952 91.6987L161.881 92.1445L154.981 77.3046L164.097 56.7716H152.05ZM201.959 56.7716L193.237 93.3175L223.851 94.4619L215.919 56.7716H201.957H201.959ZM206.067 84.8014L207.217 78.1309L208.011 72.9774C208.03 72.8862 208.066 72.6177 208.121 72.1772C208.175 71.7366 208.266 70.9468 208.394 69.8077C208.467 69.2394 208.535 68.7155 208.6 68.2385C208.665 67.7614 208.714 67.3287 208.751 66.9429L209.107 70.9677C209.198 71.794 209.271 72.4769 209.326 73.0217C209.381 73.5639 209.427 73.9914 209.464 74.3042C209.81 77.0986 210.003 78.6965 210.039 79.1006C210.057 79.3508 210.094 79.6011 210.148 79.8461L210.888 84.8066H206.07L206.067 84.8014ZM230.584 100.348H241.699L242.261 96.323L229.587 95.8486L230.584 100.345V100.348ZM130.138 92.1315V100.348H141.555L141.435 92.5537L130.138 92.1315V92.1315ZM261.859 56.7716L259.777 69.9745C259.485 71.8122 259.22 73.8611 258.983 76.1211C258.746 78.3811 258.527 80.9722 258.327 83.8917C257.65 77.388 256.856 71.7549 255.945 66.9951L254.029 56.7716H244.201L242.066 68.924C241.462 72.4352 240.968 76.1368 240.585 80.0312L240.231 83.3651L239.848 79.4785C239.575 76.8145 239.081 73.1495 238.37 68.4809L236.509 56.769H225.23L233.653 94.8268L246.327 95.3012L247.925 83.8917C248.108 82.6066 248.264 81.384 248.391 80.2267C248.519 79.0693 248.628 77.9667 248.719 76.9188C248.902 74.8621 249.04 73.4545 249.131 72.7011C249.167 73.0687 249.23 73.6004 249.323 74.299C249.417 74.9976 249.524 75.8683 249.651 76.9188C249.906 79.0328 250.289 81.53 250.802 84.4156L252.762 95.5436L265.103 96.005L273 56.7742H261.859V56.7716ZM249.362 100.348H260.368L261.037 97.0268L248.696 96.5655L249.362 100.348V100.348ZM208.175 95.0484L209.008 100.348H220.808L219.785 95.4837L208.175 95.0484V95.0484ZM164.164 99.2999C167.23 100.494 170.104 101.091 172.788 101.091C176.674 101.091 179.886 99.73 182.424 97.0112C183.221 96.1536 183.905 95.1943 184.457 94.1621L164.162 93.4035V99.2999H164.164ZM145.886 92.7206L148.833 100.348H161.153L157.813 93.1663L145.883 92.7206H145.886ZM187.737 100.348H199.536L200.468 94.9467L189.171 94.3393L187.737 100.348V100.348ZM44.2527 114.479H51.6868C51.6894 115.18 51.6582 115.878 51.5905 116.577C51.5332 117.174 51.4057 117.761 51.2078 118.326C50.958 119.051 50.5883 119.731 50.1198 120.336C49.6695 120.912 49.1229 121.407 48.506 121.798C47.876 122.195 47.1888 122.497 46.4704 122.692C45.7104 122.901 44.9269 123.003 44.1382 123C43.0892 123.013 42.048 122.823 41.0718 122.442C40.179 122.09 39.3695 121.556 38.6927 120.876C38.0159 120.182 37.4901 119.356 37.1439 118.451C36.7639 117.453 36.5765 116.392 36.5895 115.326C36.5765 114.265 36.7613 113.212 37.1335 112.219C37.4719 111.314 38.0003 110.49 38.6823 109.805C39.3721 109.125 40.1946 108.595 41.1005 108.246C42.1078 107.863 43.1777 107.675 44.2527 107.688C45.6349 107.657 46.9988 107.996 48.2066 108.668C49.3936 109.383 50.3332 110.444 50.9007 111.708L47.3476 113.188C47.1003 112.5 46.65 111.903 46.0592 111.476C45.5229 111.126 44.893 110.947 44.2527 110.957C43.7269 110.949 43.2037 111.059 42.7247 111.272C42.2692 111.481 41.8684 111.791 41.5482 112.177C41.2072 112.597 40.9495 113.076 40.7855 113.59C40.5929 114.187 40.4992 114.81 40.5096 115.438C40.5044 116.017 40.5851 116.593 40.7491 117.151C40.8948 117.648 41.1369 118.115 41.4649 118.516C41.7851 118.902 42.1911 119.21 42.6492 119.411C43.1698 119.632 43.7295 119.739 44.2917 119.726C44.6509 119.726 45.0102 119.684 45.3616 119.601C45.6921 119.523 46.0071 119.387 46.2882 119.197C46.5641 119.009 46.7932 118.762 46.965 118.475C47.155 118.144 47.28 117.776 47.3294 117.398H44.2527V114.476V114.479ZM89.8595 120.075H84.5104L83.6514 122.596H79.6558L85.1403 108.092H89.2296L94.7141 122.596H90.7211L89.8621 120.075H89.8595ZM88.8652 117.208L87.1836 112.38L85.5021 117.208H88.8652V117.208ZM123.219 122.593L125.666 108.09H129.373L132.259 115.826L135.125 108.092H138.832L141.279 122.596H137.551L136.31 114.247L132.908 122.596H131.416L128.188 114.247L126.947 122.596H123.219V122.593ZM174.904 108.087V122.591H171.158V108.087H174.904ZM205.437 122.591V108.087H209.183L216.099 116.955V108.09H219.826V122.593H216.099L209.183 113.725V122.593H205.437V122.591ZM257.635 114.473H265.069C265.069 115.242 265.035 115.941 264.972 116.572C264.915 117.169 264.788 117.755 264.59 118.321C264.34 119.046 263.973 119.726 263.502 120.331C263.051 120.907 262.505 121.402 261.888 121.793C261.258 122.189 260.571 122.492 259.852 122.687C259.092 122.896 258.309 122.997 257.52 122.995C256.471 123.008 255.43 122.818 254.454 122.437C253.561 122.085 252.751 121.551 252.075 120.87C251.4 120.177 250.875 119.351 250.528 118.446C249.792 116.434 249.789 114.228 250.518 112.213C250.856 111.306 251.385 110.485 252.067 109.8C252.757 109.119 253.579 108.59 254.482 108.241C255.49 107.858 256.557 107.67 257.635 107.683C259.017 107.652 260.381 107.991 261.589 108.663C262.778 109.375 263.718 110.436 264.285 111.703L260.73 113.183C260.482 112.495 260.032 111.898 259.441 111.471C258.905 111.121 258.275 110.941 257.635 110.952C257.109 110.944 256.588 111.053 256.107 111.267C255.651 111.476 255.25 111.786 254.933 112.172C254.592 112.591 254.331 113.071 254.167 113.585C253.975 114.182 253.881 114.805 253.889 115.433C253.884 116.011 253.964 116.588 254.128 117.145C254.274 117.646 254.516 118.11 254.847 118.511C255.167 118.897 255.573 119.205 256.031 119.405C256.549 119.627 257.109 119.734 257.674 119.721C258.033 119.721 258.392 119.679 258.743 119.596C259.074 119.517 259.389 119.382 259.67 119.192C259.946 119.004 260.178 118.756 260.35 118.47C260.54 118.139 260.662 117.771 260.711 117.393H257.635V114.468V114.473Z" fill="white"/>
</g>
</g>
<defs>
<clipPath id="clip0_413_1089">
<rect width="306" height="180" fill="white"/>
</clipPath>
<clipPath id="clip1_413_1089">
<rect width="240" height="67" fill="white" transform="translate(33 56)"/>
</clipPath>
</defs>
</svg>
