<svg width="306" height="180" viewBox="0 0 306 180" fill="none" xmlns="http://www.w3.org/2000/svg">
<g clip-path="url(#clip0_413_1091)">
<path d="M61.5599 78.0908L71.7944 95.2526C71.2228 95.3421 70.812 95.4673 70.3833 95.4673C68.1507 95.4852 65.9359 95.4494 63.7033 95.4852C62.6852 95.5031 62.1136 95.0736 61.6135 94.2146C58.8986 89.365 56.0944 84.5511 53.3795 79.6835C52.9152 78.8603 52.3972 78.5024 51.4148 78.5382C48.4142 78.6098 45.4135 78.5561 42.2342 78.5561C42.2342 79.2182 42.2342 79.7193 42.2342 80.2204C42.2342 84.6764 42.2342 89.1323 42.2342 93.6062C42.2342 95.3779 42.127 95.4852 40.3231 95.4852C38.3762 95.4852 36.4293 95.4673 34.4825 95.4852C33.4108 95.5031 33 95.0199 33 93.9641C33 80.632 33 67.2998 33 53.9677C33 52.9477 33.4465 52.5182 34.4289 52.5361C42.2163 52.6076 50.0038 52.5361 57.7912 52.8403C60.1132 52.9298 62.4709 53.8603 64.6678 54.773C67.0969 55.7751 68.6687 57.851 69.2224 60.428C70.294 65.3492 70.5441 70.3242 66.954 74.4043C65.5966 75.9613 63.4532 76.8381 61.5599 78.0908ZM42.127 71.3084C46.9674 71.1474 51.6292 71.0579 56.2909 70.7537C57.3626 70.6821 58.5593 70.1094 59.3809 69.4115C61.2384 67.8009 61.3278 65.5819 60.6669 63.3986C59.9346 61.0185 57.9163 60.3743 55.7372 60.3206C51.4327 60.2132 47.1282 60.249 42.8236 60.249C42.6093 60.249 42.395 60.3385 42.1449 60.3922V71.3263L42.127 71.3084Z" fill="white"/>
<path d="M93.4599 70.002H95.0853C102.23 70.002 109.374 70.002 116.519 70.002C118.376 70.002 118.465 70.1094 118.465 72.0063C118.465 73.1695 118.465 74.3327 118.465 75.496C118.465 77.5718 118.394 77.6434 116.376 77.6434C109.285 77.6434 102.194 77.6434 95.0853 77.6434H93.6207C92.6562 83.5131 96.4963 88.0765 102.355 88.1302C107.088 88.166 111.821 88.1302 116.536 88.1302C118.323 88.1302 118.448 88.2554 118.448 90.0271C118.448 91.4587 118.448 92.9083 118.448 94.3399C118.448 95.342 118.001 95.7536 117.019 95.7536C111 95.7179 104.945 96.04 98.9433 95.6105C91.9774 95.1094 87.0121 91.0292 84.7258 84.569C82.1895 77.4108 82.0288 69.8947 85.1188 62.8081C87.9944 56.2404 93.3528 52.6792 100.658 52.5539C105.981 52.4645 111.321 52.536 116.662 52.5539C118.269 52.5539 118.465 52.7687 118.465 54.433C118.465 55.6856 118.412 56.9383 118.465 58.191C118.537 59.4974 118.055 60.0164 116.697 59.9985C112.018 59.9448 107.338 59.9448 102.641 59.9985C99.5327 60.0164 96.8178 60.929 94.9424 63.6312C93.6207 65.5461 93.7457 67.7293 93.4421 70.0378L93.4599 70.002Z" fill="white"/>
<path d="M218.077 95.0915C217.523 95.1631 217.041 95.2705 216.559 95.2884C214.523 95.3063 212.469 95.2347 210.432 95.3242C209.254 95.3599 208.7 94.9126 208.307 93.8209C207.378 91.244 206.289 88.7386 205.36 86.1796C205.056 85.3206 204.61 85.1058 203.752 85.1058C198.323 85.1416 192.911 85.1416 187.481 85.1058C186.641 85.1058 186.266 85.3743 185.981 86.1438C185.016 88.7565 183.962 91.3156 182.98 93.9283C182.605 94.9304 182.033 95.3778 180.908 95.342C178.818 95.2705 176.728 95.342 174.657 95.3242C173.103 95.3242 172.942 95.0378 173.549 93.5883C177.872 83.4952 182.194 73.3843 186.516 63.2912C187.82 60.2311 189.178 57.171 190.428 54.075C190.857 53.0192 191.428 52.5539 192.607 52.6076C194.465 52.715 196.322 52.715 198.162 52.6076C199.394 52.536 199.966 53.0192 200.43 54.1287C204.806 64.5976 209.254 75.0486 213.665 85.4995C214.737 88.0228 215.773 90.5461 216.862 93.0514C217.148 93.6957 217.559 94.2862 218.059 95.1273L218.077 95.0915ZM201.877 77.5539L195.429 61.1796C193.232 66.7629 191.142 72.0958 188.999 77.5539H201.877Z" fill="white"/>
<path d="M141.846 67.783C141.846 72.06 142.042 76.3371 141.792 80.5962C141.596 83.9605 145.079 87.6649 148.776 87.6112C152.67 87.5575 156.563 87.6291 160.457 87.5754C161.582 87.5754 162.082 87.8975 162.047 89.0608C161.993 90.6892 162.029 92.3177 162.047 93.9462C162.047 94.841 161.725 95.3063 160.743 95.2884C155.831 95.2347 150.901 95.36 146.007 95.1452C138.702 94.8231 132.933 88.6492 132.915 81.3299C132.897 72.3643 132.915 63.3986 132.915 54.433C132.915 52.715 133.022 52.6076 134.719 52.6076C136.577 52.6076 138.434 52.6792 140.274 52.5719C141.596 52.5003 141.899 53.0013 141.881 54.254C141.81 58.7637 141.846 63.2734 141.846 67.783Z" fill="white"/>
<path d="M250.584 80.3992C247.101 80.3992 244.351 77.6433 244.351 74.1179C244.351 70.7714 247.191 67.8903 250.549 67.8903C254.014 67.8903 256.836 70.6999 256.818 74.1537C256.818 77.697 254.121 80.4171 250.584 80.4171V80.3992Z" fill="white"/>
<path d="M273 89.6155C272.928 93.1231 270.16 95.7716 266.606 95.7179C263.23 95.6642 260.497 92.8009 260.551 89.4008C260.622 85.8933 263.408 83.1732 266.891 83.2269C270.356 83.2805 273.053 86.108 272.982 89.6334L273 89.6155Z" fill="white"/>
<path d="M273 58.8889C273 62.3964 270.249 65.0986 266.695 65.0628C263.283 65.0449 260.586 62.289 260.551 58.8352C260.533 55.3635 263.319 52.5718 266.802 52.5897C270.339 52.6255 273 55.3277 273 58.871V58.8889Z" fill="white"/>
<path d="M240.332 58.7994C240.332 62.3248 237.563 65.0628 234.063 65.027C230.651 65.0091 227.883 62.2353 227.865 58.8173C227.865 55.3993 230.776 52.5002 234.17 52.536C237.563 52.5897 240.35 55.4171 240.332 58.7994Z" fill="white"/>
<path d="M240.332 89.365C240.35 92.8725 237.617 95.6821 234.134 95.7C230.741 95.7179 227.918 92.9441 227.865 89.5618C227.811 86.1259 230.633 83.2447 234.081 83.2089C237.474 83.1911 240.314 85.9827 240.332 89.365Z" fill="white"/>
<path d="M129.522 114.544C129.075 117.568 128.646 120.593 128.2 123.599C128.075 124.476 127.968 125.353 127.843 126.212C127.735 126.963 127.45 127.733 126.574 127.411C126.164 127.268 125.681 126.409 125.753 125.943C126.039 123.599 126.485 121.273 126.896 118.946C127.235 116.978 127.628 115.027 127.932 113.059C128.093 112.074 128.539 111.215 129.539 111.359C130.093 111.43 130.772 112.253 130.95 112.88C132.004 116.226 132.915 119.608 134.165 122.991C134.487 121.917 134.826 120.861 135.112 119.787C135.791 117.371 136.452 114.973 137.095 112.558C137.327 111.681 137.648 111.001 138.738 111.019C139.863 111.054 140.024 111.806 140.185 112.701C140.917 116.96 141.667 121.201 142.417 125.442C142.471 125.764 142.614 126.14 142.489 126.391C142.31 126.802 141.953 127.124 141.667 127.482C141.346 127.16 140.81 126.892 140.738 126.516C140.292 124.011 139.952 121.469 139.595 118.946C139.381 117.479 139.184 116.011 138.738 114.472C138.381 115.618 138.006 116.745 137.666 117.89C136.862 120.611 136.13 123.331 135.273 126.015C135.13 126.48 134.541 126.82 134.165 127.232C133.826 126.802 133.29 126.444 133.147 125.961C131.986 122.15 130.879 118.338 129.772 114.508H129.486L129.522 114.544Z" fill="white"/>
<path d="M270.946 120.109C270.106 120.109 269.303 120.217 268.57 120.074C268.088 119.984 267.695 119.501 267.267 119.179C267.677 118.875 268.07 118.338 268.517 118.284C269.571 118.159 270.66 118.141 271.696 118.32C272.178 118.409 272.964 119.107 272.911 119.447C272.678 121.129 272.464 122.865 271.803 124.404C270.035 128.502 263.391 127.983 261.051 124.816C258.229 121.022 258.943 115.385 262.658 112.45C264.57 110.947 269.071 110.947 270.946 112.486C271.16 112.665 271.428 112.862 271.482 113.112C271.607 113.56 271.589 114.025 271.625 114.49C271.16 114.526 270.624 114.705 270.249 114.544C269.624 114.275 269.142 113.703 268.517 113.399C265.498 111.967 262.319 113.721 261.712 117.461C261.426 119.161 261.712 121.076 262.23 122.74C262.98 125.084 264.73 125.908 267.016 125.55C269.285 125.21 270.517 123.867 270.839 121.434C270.892 121.076 270.892 120.718 270.928 120.109H270.946Z" fill="white"/>
<path d="M44.9669 120.092C44.056 120.092 43.2165 120.199 42.4307 120.038C42.0377 119.966 41.7341 119.376 41.3947 119.036C41.7519 118.767 42.1092 118.32 42.4842 118.284C43.4487 118.177 44.4311 118.248 45.3956 118.248C46.4673 118.248 46.9317 118.857 46.8959 119.823C46.8602 120.843 46.8245 121.881 46.5566 122.847C45.9493 125.031 44.7169 126.749 42.3235 127.142C39.3943 127.626 36.7687 127.071 34.929 124.458C32.2141 120.593 33.2858 114.741 37.1795 112.11C39.0013 110.875 43.538 111.054 45.092 112.558C45.5206 112.969 45.5385 113.81 45.735 114.454C45.1634 114.401 44.449 114.544 44.0203 114.258C40.073 111.609 36.5901 112.933 35.7685 117.658C35.5005 119.215 35.7327 121.004 36.215 122.525C37.0187 125.013 38.9299 125.943 41.3233 125.478C43.7702 124.995 44.9491 123.331 44.9491 120.056L44.9669 120.092Z" fill="white"/>
<path d="M225.15 126.981C224.203 127.661 223.578 127.071 223.042 126.319C221.024 123.474 219.024 120.628 217.023 117.801C216.452 116.978 215.844 116.172 215.058 115.063C215.005 115.832 214.951 116.262 214.951 116.691C214.951 119.662 214.951 122.633 214.951 125.621C214.951 126.319 215.005 127.124 213.951 127.089C212.969 127.053 213.094 126.283 213.094 125.639C213.094 121.452 213.058 117.282 213.112 113.094C213.112 112.54 213.487 111.967 213.683 111.412C214.201 111.752 214.862 112.003 215.184 112.468C217.47 115.689 219.667 118.946 221.899 122.203C222.185 122.615 222.489 123.026 222.953 123.689C223.025 123.098 223.096 122.776 223.096 122.436C223.096 119.322 223.096 116.208 223.096 113.094C223.096 112.432 222.882 111.573 224.007 111.591C225.132 111.609 224.846 112.504 224.846 113.148C224.864 117.103 224.846 121.04 224.864 124.995C224.864 125.603 225.025 126.212 225.15 126.999V126.981Z" fill="white"/>
<path d="M92.7633 126.892C91.8524 127.482 91.1916 127.5 90.745 126.319C89.8877 124.082 89.8698 124.082 87.53 124.082C87.0656 124.082 86.6012 124.136 86.1368 124.082C83.9578 123.832 82.136 124.082 81.4394 126.641C81.3501 126.999 80.5463 127.142 80.0641 127.393C79.9748 126.874 79.6533 126.265 79.814 125.818C81.3679 121.505 82.9933 117.21 84.6722 112.933C84.8687 112.432 85.5832 111.734 85.9404 111.806C86.4583 111.895 87.0656 112.522 87.28 113.059C88.9053 117.192 90.4414 121.38 92.031 125.532C92.2096 125.979 92.4954 126.391 92.7812 126.874L92.7633 126.892ZM86.2976 113.649L83.1183 122.096H89.2625L86.2976 113.649Z" fill="white"/>
<path d="M178.747 119.698C178.747 121.827 178.8 123.975 178.711 126.104C178.693 126.588 178.175 127.357 177.8 127.429C176.818 127.608 176.943 126.731 176.943 126.087C176.943 121.81 176.943 117.55 176.943 113.273C176.943 112.647 176.764 111.878 177.782 111.842C178.872 111.788 178.765 112.593 178.765 113.291C178.765 115.421 178.765 117.568 178.765 119.698H178.747Z" fill="white"/>
</g>
<defs>
<clipPath id="clip0_413_1091">
<rect width="306" height="180" fill="white"/>
</clipPath>
</defs>
</svg>
