<svg width="306" height="180" viewBox="0 0 306 180" fill="none" xmlns="http://www.w3.org/2000/svg">
<g clip-path="url(#clip0_413_1112)">
<path d="M116.877 60.1479H124.519L132.889 75.1249H133.252L141.622 60.1479H149.263V89.553H144.169V66.5399H143.987L135.436 81.333H130.705L122.154 66.5399H121.79V89.5519H116.695V60.1479H116.877Z" fill="white"/>
<path d="M159.637 89.7349C157.636 89.7349 156.18 89.1869 155.088 88.2739C153.997 87.1779 153.633 85.7169 153.633 83.8899C153.633 81.6989 154.361 80.2379 155.634 79.1419C156.908 78.0459 158.909 77.3159 161.82 77.1319L166.915 76.7679V76.0369C166.915 75.3069 166.915 74.5759 166.733 74.0279C166.551 73.4799 166.369 73.1149 166.005 72.7499C165.641 72.3839 165.095 72.2019 164.549 72.0189C164.004 71.8359 163.094 71.8359 162.184 71.8359C161.274 71.8359 160.183 71.8359 159.091 72.0189C157.999 72.2019 156.726 72.3839 155.634 72.5669L155.27 68.5489C157.91 68.0584 160.59 67.814 163.276 67.8189C166.551 67.8189 168.916 68.3659 170.372 69.6449C171.827 70.7409 172.737 72.5669 172.737 75.1239V89.7339H168.188L167.642 86.9949H167.279C164.731 88.8219 162.366 89.7349 159.637 89.7349ZM162.002 85.8989C162.73 85.8989 163.64 85.7169 164.549 85.3519C165.459 84.9859 166.187 84.6209 166.915 84.0729V79.6899L163.458 80.0549C161.82 80.2379 160.729 80.4199 160.183 80.9679C159.637 81.5159 159.273 82.2469 159.273 83.3429C159.273 84.9859 160.183 85.8989 162.002 85.8989Z" fill="white"/>
<path d="M177.465 68.0019H182.013L182.377 70.5589H182.559C184.561 69.4629 186.38 68.7329 187.836 68.3669C189.113 67.8761 190.47 67.6285 191.838 67.6369C193.658 67.6369 195.113 68.1849 196.205 69.0969C197.297 70.1939 197.843 71.6549 197.843 73.4809V89.5529H192.384V75.4899C192.384 74.2119 192.202 73.4809 191.656 72.9329C191.293 72.3849 190.565 72.2029 189.473 72.2029C188.563 72.2029 187.654 72.3849 186.562 72.7499C185.47 73.1159 184.379 73.4809 183.105 74.0289V89.5529H177.647V68.0019H177.465Z" fill="white"/>
<path d="M212.399 89.918C205.303 89.918 201.664 86.266 201.664 78.778C201.664 71.29 205.303 67.637 212.399 67.637C213.49 67.637 214.4 67.637 215.492 67.819C216.583 68.002 217.493 68.002 218.403 68.367V72.75C217.493 72.568 216.583 72.385 215.674 72.385C214.764 72.203 213.854 72.203 212.945 72.203C210.943 72.203 209.488 72.75 208.578 73.846C207.668 74.942 207.304 76.586 207.304 78.778C207.304 81.152 207.668 82.796 208.578 83.891C209.488 84.987 210.943 85.353 212.945 85.353C214.036 85.353 214.946 85.353 215.856 85.17C216.765 85.17 217.493 84.987 218.403 84.805V89.188C217.675 89.37 216.765 89.553 215.674 89.736C214.582 89.918 213.49 89.918 212.399 89.918Z" fill="white"/>
<path d="M227.5 89.7349C225.499 89.7349 224.043 89.1869 222.952 88.2739C221.86 87.1779 221.496 85.7169 221.496 83.8899C221.496 81.6989 222.224 80.2379 223.497 79.1419C224.771 78.0459 226.772 77.3159 229.684 77.1319L234.778 76.7679V76.0369C234.778 75.3069 234.778 74.5759 234.596 74.0279C234.414 73.4799 234.232 73.1149 233.868 72.7499C233.504 72.3839 232.959 72.2019 232.413 72.0189C231.867 71.8359 230.957 71.8359 230.047 71.8359C229.138 71.8359 228.046 71.8359 226.954 72.0189C225.863 72.2019 224.589 72.3839 223.497 72.5669L223.134 68.5489C225.774 68.0583 228.454 67.8139 231.139 67.8189C234.414 67.8189 236.779 68.3659 238.235 69.6449C239.691 70.7409 240.6 72.5669 240.6 75.1239V89.7339H236.052L235.506 86.9949H235.142C232.413 88.8219 230.047 89.7349 227.5 89.7349ZM229.684 85.8989C230.411 85.8989 231.321 85.7169 232.231 85.3519C233.141 84.9859 233.868 84.6209 234.596 84.0729V79.6899L231.139 80.0549C229.502 80.2379 228.41 80.4199 227.864 80.9679C227.318 81.5159 226.954 82.2469 226.954 83.3429C226.954 84.9859 227.864 85.8989 229.684 85.8989Z" fill="white"/>
<path d="M245.332 57.408H250.79V89.552H245.332V57.408Z" fill="white"/>
<path d="M260.797 89.7349C258.796 89.7349 257.34 89.1869 256.249 88.2739C255.157 87.1779 254.793 85.7169 254.793 83.8899C254.793 81.6989 255.521 80.2379 256.794 79.1419C258.068 78.0459 260.069 77.3159 262.98 77.1319L268.075 76.7679V76.0369C268.075 75.3069 268.075 74.5759 267.893 74.0279C267.711 73.4799 267.529 73.1149 267.165 72.7499C266.801 72.3839 266.255 72.2019 265.71 72.0189C265.164 71.8359 264.254 71.8359 263.344 71.8359C262.435 71.8359 261.343 71.8359 260.251 72.0189C259.16 72.2019 257.886 72.3839 256.794 72.5669L256.43 68.5489C259.07 68.0584 261.75 67.814 264.436 67.8189C267.711 67.8189 270.076 68.3659 271.532 69.6449C272.987 70.7409 273.897 72.5669 273.897 75.1239V89.7339H269.348L268.803 86.9949H268.439C265.71 88.8219 263.344 89.7349 260.797 89.7349ZM262.98 85.8989C263.708 85.8989 264.618 85.7169 265.528 85.3519C266.437 84.9859 267.165 84.6209 267.893 84.0729V79.6899L264.436 80.0549C262.798 80.2379 261.707 80.4199 261.161 80.9679C260.615 81.5159 260.251 82.2469 260.251 83.3429C260.251 84.9859 261.161 85.8989 262.98 85.8989Z" fill="white"/>
<path d="M88.675 103.432C80.305 102.884 75.393 97.7699 75.211 89.3689C75.393 80.9679 80.305 75.8539 88.675 75.3059C94.133 74.9399 98.135 70.9219 97.954 65.6259C97.772 60.6949 93.769 56.4939 88.674 56.4939C83.58 56.4939 79.032 60.3299 79.395 65.6259C79.759 72.2009 76.848 76.0359 71.026 78.0459C65.204 80.2359 59.746 78.9589 55.015 75.1229C52.65 73.2969 51.74 70.5569 51.74 67.6349C51.74 65.8089 51.558 63.9819 51.012 62.3389C49.557 58.3199 44.826 55.9459 40.278 56.8589C35.91 57.9549 32.818 62.1559 33 66.5399C33.364 71.2889 37.185 75.1239 42.097 75.3069C47.737 75.6719 52.286 77.8639 54.833 83.1599C55.925 85.1699 56.289 87.3599 56.289 89.3699C56.289 91.3789 55.743 93.5699 54.833 95.5799C52.286 100.876 47.737 103.067 42.097 103.433C37.185 103.797 33.364 107.45 33.182 112.38C32.818 116.763 36.092 120.964 40.278 121.877C44.826 122.973 49.557 120.599 51.194 116.033C51.74 114.389 51.74 112.563 51.922 110.736C51.922 107.814 52.832 105.074 55.197 103.248C59.927 99.4129 65.386 98.1339 71.208 100.326C76.848 102.518 79.759 106.353 79.578 112.746C79.395 118.042 83.762 121.877 88.857 121.877C93.951 121.877 97.954 117.859 98.136 112.745C98.136 107.815 94.133 103.613 88.675 103.431V103.432Z" fill="url(#paint0_linear_413_1112)"/>
<path d="M65.568 103.431C60.474 103.431 56.289 107.632 56.289 112.746C56.289 117.86 60.656 122.243 65.932 122.061C71.026 122.061 75.212 117.86 75.029 112.563C74.847 107.449 70.663 103.249 65.569 103.431H65.568ZM42.461 79.873C37.185 79.873 33 84.073 33 89.37C33 94.667 37.185 98.867 42.461 98.867C47.556 98.867 51.741 94.667 51.741 89.553C51.558 84.073 47.556 79.873 42.461 79.873ZM98.135 89.005C97.953 83.891 93.586 79.873 88.492 79.873C83.397 80.056 79.395 84.256 79.395 89.37C79.395 94.484 83.397 98.685 88.492 98.867C93.586 99.05 97.771 94.849 98.135 89.735V89.005ZM65.567 75.307C70.661 75.307 74.846 71.289 74.846 65.992C74.846 60.878 70.843 56.678 65.749 56.678C60.472 56.678 56.105 60.878 56.105 65.992C56.105 71.106 60.472 75.307 65.567 75.307Z" fill="white"/>
<path d="M131.431 115.486C130.704 116.4 129.611 117.13 128.338 117.678C127.065 118.226 125.609 118.408 123.972 118.408C122.334 118.408 120.697 118.043 119.423 117.313C118.088 116.549 117.011 115.404 116.33 114.025C115.602 112.565 115.238 110.92 115.238 108.911V107.268C115.238 104.163 115.966 101.788 117.422 100.145C118.877 98.5009 120.879 97.5879 123.608 97.5879C125.791 97.5879 127.61 98.1359 129.066 99.2319C130.34 100.327 131.249 101.972 131.431 104.162H127.974C127.61 101.789 126.154 100.51 123.79 100.51C122.152 100.51 121.06 101.058 120.15 102.154C119.241 103.25 118.877 104.894 118.877 107.085V108.729C118.877 110.92 119.423 112.564 120.333 113.843C121.243 115.121 122.516 115.669 124.153 115.669C125.973 115.669 127.247 115.304 127.974 114.391V110.373H123.79V107.633H131.431V115.486ZM144.348 118.043C144.166 117.677 143.984 117.313 143.984 116.582C142.892 117.677 141.619 118.225 139.981 118.225C138.526 118.225 137.252 117.86 136.342 116.947C135.251 116.217 134.887 115.12 134.887 113.842C134.887 112.198 135.433 110.92 136.706 110.189C137.98 109.276 139.617 108.911 141.801 108.911H143.802V107.815C143.802 107.085 143.62 106.354 143.074 105.989C142.71 105.441 141.983 105.259 141.073 105.259C140.345 105.259 139.617 105.441 139.253 105.806C138.708 106.171 138.526 106.719 138.526 107.267H135.069C135.069 106.354 135.433 105.623 135.978 104.893C136.524 104.163 137.252 103.614 138.162 103.249C139.071 102.884 140.163 102.701 141.255 102.701C143.074 102.701 144.348 103.066 145.439 103.98C146.531 104.893 147.077 106.171 147.077 107.815V114.573C147.077 115.851 147.259 116.947 147.623 117.86V118.043H144.348ZM140.527 115.668C141.255 115.668 141.801 115.486 142.346 115.121C142.892 114.755 143.438 114.39 143.62 113.842V110.92H141.801C140.527 110.92 139.617 111.102 138.889 111.65C138.344 112.016 137.98 112.746 137.98 113.477C137.98 114.207 138.162 114.573 138.708 115.121C139.253 115.486 139.799 115.668 140.527 115.668ZM154.173 102.884L154.355 104.528C155.447 103.249 156.903 102.701 158.722 102.701C160.723 102.701 162.179 103.431 162.907 105.075C163.998 103.615 165.454 102.701 167.455 102.701C169.093 102.701 170.366 103.249 171.094 104.162C171.822 105.075 172.368 106.354 172.368 108.18V118.043H168.911V108.18C168.911 107.267 168.729 106.536 168.365 105.989C168.001 105.623 167.273 105.259 166.364 105.259C165.636 105.259 164.908 105.441 164.544 105.806C163.998 106.171 163.635 106.719 163.453 107.45V117.86H159.996V107.998C159.996 106.171 159.086 105.258 157.266 105.258C155.993 105.258 154.901 105.806 154.355 106.902V117.86H150.898V102.701H154.173V102.884ZM176.008 99.0489C176.008 98.5009 176.19 98.1359 176.554 97.7709C176.918 97.4049 177.281 97.2229 178.009 97.2229C178.555 97.2229 179.101 97.4049 179.465 97.7709C179.829 98.1359 180.011 98.5009 180.011 99.0489C180.011 99.5969 179.829 99.9619 179.465 100.328C179.101 100.693 178.737 100.875 178.009 100.875C177.463 100.875 176.918 100.693 176.554 100.328C176.19 99.9619 176.008 99.5969 176.008 99.0489ZM179.647 118.043H176.19V102.884H179.647V118.044V118.043ZM186.744 102.884L186.926 104.71C188.017 103.432 189.473 102.701 191.292 102.701C194.385 102.701 196.023 104.528 196.023 108.181V118.225H192.566V108.363C192.566 107.45 192.384 106.719 192.02 106.171C191.656 105.623 190.928 105.441 190.019 105.441C188.745 105.441 187.653 105.989 186.926 107.267V118.043H183.469V102.883H186.744V102.884ZM199.113 110.373C199.113 107.999 199.659 106.173 200.751 104.711C201.842 103.251 203.298 102.52 205.117 102.52C206.755 102.52 208.21 103.067 209.12 104.346L209.302 102.885H212.395V117.495C212.395 119.505 211.849 120.965 210.576 122.245C209.302 123.34 207.665 123.888 205.663 123.888C204.572 123.888 203.48 123.705 202.388 123.158C201.297 122.61 200.569 122.062 200.023 121.331L201.66 119.322C202.752 120.601 204.026 121.148 205.481 121.148C206.467 121.154 207.426 120.833 208.21 120.235C208.938 119.687 209.12 118.775 209.12 117.495V116.4C208.21 117.496 206.937 118.044 205.299 118.044C203.48 118.044 202.024 117.314 200.933 115.852C199.659 114.756 199.113 112.93 199.113 110.372V110.373ZM202.57 110.738C202.57 112.199 202.934 113.478 203.48 114.391C204.026 115.304 204.935 115.669 206.027 115.669C207.301 115.669 208.392 115.122 209.12 113.843V107.268C208.392 106.172 207.483 105.624 206.027 105.624C204.935 105.624 204.026 105.99 203.48 106.903C202.934 107.633 202.57 108.912 202.57 110.738Z" fill="white"/>
</g>
<defs>
<linearGradient id="paint0_linear_413_1112" x1="35.768" y1="59.4899" x2="95.511" y2="119.008" gradientUnits="userSpaceOnUse">
<stop offset="0.018" stop-color="#FFCE00"/>
<stop offset="0.437" stop-color="#FF1C03"/>
<stop offset="1" stop-color="#DE0021"/>
</linearGradient>
<clipPath id="clip0_413_1112">
<rect width="306" height="180" fill="white"/>
</clipPath>
</defs>
</svg>
