<svg width="306" height="180" viewBox="0 0 306 180" fill="none" xmlns="http://www.w3.org/2000/svg">
<path d="M36.5718 109.098C36.5718 99.091 36.5718 89.2 36.5718 79.236C36.8678 79.236 37.1298 79.236 37.3908 79.236C82.3238 79.236 127.258 79.236 172.191 79.231C172.694 79.231 173.085 79.271 173.423 79.767C179.987 89.386 186.574 98.99 193.156 108.597C193.237 108.715 193.311 108.838 193.434 109.031C193.203 109.057 193.027 109.095 192.85 109.095C190.535 109.099 188.22 109.087 185.905 109.107C185.47 109.111 185.197 108.989 184.951 108.615C184.052 107.253 183.104 105.923 182.199 104.565C181.946 104.185 181.679 104.007 181.197 104.009C175.178 104.026 169.16 104.026 163.141 104.01C162.665 104.009 162.392 104.171 162.14 104.562C161.269 105.913 160.344 107.231 159.478 108.585C159.22 108.988 158.935 109.168 158.47 109.104C158.279 109.078 158.081 109.1 157.886 109.1C117.802 109.1 77.7168 109.1 37.6328 109.1C37.2968 109.098 36.9608 109.098 36.5718 109.098ZM67.9018 86.657C67.4848 86.333 67.1438 86.02 66.7588 85.778C66.1208 85.378 65.4888 84.934 64.7938 84.666C59.4728 82.615 54.0738 82.477 48.7378 84.465C43.6528 86.36 41.2418 90.508 41.9478 95.882C42.5108 100.166 45.1978 102.726 49.1188 104.106C52.7868 105.397 56.5708 105.428 60.3738 104.903C63.0898 104.528 65.6238 103.664 67.8188 101.949C68.1958 101.654 68.3638 101.339 68.3588 100.844C68.3338 98.308 68.3478 95.771 68.3448 93.234C68.3448 92.975 68.3178 92.716 68.3038 92.457C63.5278 92.457 58.8348 92.457 54.1038 92.457C54.1038 93.782 54.1038 95.064 54.1038 96.438C55.7528 96.438 57.3798 96.438 59.0068 96.438C60.6538 96.438 62.3008 96.438 64.0108 96.438C64.0108 97.097 64.0108 97.653 64.0108 98.21C64.0108 99.725 64.0308 99.782 62.5918 100.291C58.7578 101.647 54.8538 101.757 50.9688 100.586C48.1958 99.75 46.7638 97.748 46.5688 94.852C46.3018 90.877 48.1648 88.254 52.0618 87.455C53.7148 87.116 55.4428 87.024 57.1368 87.024C60.1198 87.025 62.9488 87.636 65.2528 89.743C65.2798 89.768 65.3448 89.752 65.4278 89.757C66.2318 88.75 67.0488 87.726 67.9018 86.657ZM133.88 83.243C133.151 83.026 132.639 83.257 132.137 83.743C129.194 86.588 126.227 89.408 123.266 92.235C122.163 93.288 121.056 94.335 119.94 95.396C119.746 95.232 119.614 95.128 119.49 95.014C115.393 91.263 111.288 87.521 107.209 83.749C106.673 83.253 106.149 83.04 105.453 83.237C105.453 90.428 105.453 97.604 105.453 104.782C106.965 104.782 108.416 104.782 109.954 104.782C109.954 100.567 109.954 96.394 109.954 92.104C110.225 92.336 110.392 92.47 110.55 92.614C113.374 95.195 116.195 97.777 119.019 100.358C119.77 101.044 120.076 101.029 120.804 100.327C123.524 97.706 126.249 95.09 128.975 92.476C129.069 92.385 129.193 92.326 129.41 92.179C129.41 96.458 129.41 100.614 129.41 104.787C130.935 104.787 132.386 104.787 133.88 104.787C133.88 97.589 133.88 90.43 133.88 83.243ZM145.832 100.7C145.832 99.046 145.832 97.518 145.832 95.897C146.153 95.897 146.437 95.897 146.721 95.897C150.278 95.897 157.958 95.889 157.958 95.889C157.958 95.889 159.732 93.239 160.627 91.866C155.597 91.866 150.739 91.866 145.851 91.866C145.851 90.405 145.851 89.033 145.851 87.604C146.196 87.604 146.485 87.604 146.773 87.604C151.792 87.604 163.42 87.635 163.42 87.635C163.42 87.635 165.446 84.498 166.069 83.537C157.712 83.537 149.495 83.537 141.269 83.537C141.269 90.645 141.269 97.702 141.269 104.725C141.338 104.771 141.357 104.796 141.377 104.796C144.861 104.806 152.171 104.815 152.171 104.815C152.171 104.815 153.942 102.099 154.855 100.699C151.756 100.7 148.821 100.7 145.832 100.7ZM101.387 104.821C101.179 104.492 101.07 104.304 100.947 104.125C96.2258 97.235 91.5038 90.346 86.7818 83.457C86.2008 82.61 85.6418 82.613 85.0658 83.471C80.3948 90.424 71.0588 104.334 71.0588 104.334L70.7438 104.824L75.7018 104.805L75.9098 104.391C75.9098 104.391 77.2558 102.361 77.9708 101.377C78.1358 101.15 78.5018 100.942 78.7768 100.941C83.5748 100.915 88.3728 100.915 93.1698 100.942C93.4408 100.944 93.7968 101.163 93.9658 101.391C94.6898 102.369 96.0548 104.386 96.0548 104.386L96.2968 104.802C96.2978 104.802 99.6858 104.821 101.387 104.821ZM177.369 97.555C175.555 94.913 173.824 92.392 172.046 89.802C170.289 92.418 168.599 94.936 166.84 97.555C170.393 97.555 173.808 97.555 177.369 97.555Z" fill="white"/>
<path d="M196.834 80.1258C197 80.1118 197.119 80.0938 197.237 80.0938C204.302 80.0998 211.368 80.0748 218.432 80.1308C220.801 80.1498 223.138 80.5458 225.337 81.4988C228.513 82.8748 230.289 85.2588 230.435 88.7658C230.589 92.4628 229.068 95.2268 225.764 96.9358C224.907 97.3788 223.981 97.6888 223.02 98.0868C226.288 101.703 229.561 105.327 232.918 109.042C232.599 109.066 232.395 109.095 232.192 109.095C229.634 109.098 227.076 109.083 224.518 109.109C224.028 109.114 223.715 108.943 223.398 108.592C220.595 105.478 217.77 102.384 214.969 99.2678C214.618 98.8778 214.275 98.6878 213.727 98.6928C210.537 98.7218 207.347 98.7068 204.049 98.7068C204.049 102.166 204.049 105.584 204.049 109.049C201.59 109.049 199.239 109.049 196.832 109.049C196.834 99.4318 196.834 89.8158 196.834 80.1258ZM204.051 92.3868C204.247 92.4078 204.366 92.4308 204.486 92.4308C208.653 92.4328 212.821 92.4888 216.987 92.4018C218.502 92.3698 220.037 92.1038 221.514 91.7448C222.757 91.4428 223.122 90.6908 223.1 89.2908C223.083 88.1658 222.645 87.4948 221.456 87.1778C220.382 86.8908 219.261 86.6498 218.157 86.6328C213.505 86.5598 208.852 86.5778 204.199 86.5658C204.161 86.5658 204.122 86.6118 204.051 86.6578C204.051 88.5328 204.051 90.4268 204.051 92.3868Z" fill="white"/>
<path d="M268.667 80.147C268.667 82.324 268.667 84.458 268.667 86.665C264.141 86.665 259.644 86.665 255.059 86.665C255.059 94.16 255.059 101.584 255.059 109.053C252.619 109.053 250.27 109.053 247.843 109.053C247.843 101.61 247.843 94.186 247.843 86.686C243.274 86.686 238.781 86.686 234.251 86.686C234.251 84.473 234.251 82.338 234.251 80.147C245.703 80.147 257.142 80.147 268.667 80.147Z" fill="white"/>
<path d="M85.87 89.5679C87.559 92.0299 89.201 94.4249 90.904 96.9069C87.539 96.9069 84.3 96.9069 80.939 96.9069C82.602 94.4319 84.211 92.0379 85.87 89.5679Z" fill="white"/>
</svg>
