<svg width="306" height="180" viewBox="0 0 306 180" fill="none" xmlns="http://www.w3.org/2000/svg">
<g clip-path="url(#clip0_413_1115)">
<path d="M83 118.976V112.316C83.5144 112.316 83.979 112.316 84.4436 112.316C130.382 112.316 176.32 112.316 222.258 112.316C223.407 112.316 223.981 112.889 223.981 114.034C223.981 115.333 223.938 116.635 223.995 117.93C224.033 118.78 223.694 119.076 222.888 118.979C222.654 118.95 222.414 118.974 222.177 118.974C176.317 118.974 130.458 118.974 84.6001 118.974H83V118.976Z" fill="white"/>
<path d="M175.81 61.8034C180.71 61.8034 185.517 61.4348 190.239 61.9073C195.054 62.3893 197.273 64.851 197.929 69.6446C198.273 72.1465 198.135 74.7547 197.882 77.2826C197.602 80.0728 196.187 82.3243 193.584 83.7016C193.667 83.8315 193.707 83.9733 193.793 84.0135C196.725 85.4239 198.38 87.8691 198.605 90.9735C198.854 94.4039 198.958 97.9193 198.489 101.312C197.868 105.798 194.772 108.655 190.272 108.988C185.595 109.335 180.881 109.158 176.182 109.203C176.076 109.203 175.969 109.118 175.808 109.047V61.8034H175.81ZM183.329 87.8644V102.387C184.906 102.387 186.399 102.429 187.885 102.377C189.955 102.302 191.197 101.253 191.306 99.2163C191.439 96.712 191.453 94.1841 191.287 91.6822C191.133 89.341 189.905 88.0865 187.8 87.8927C186.361 87.7604 184.899 87.8667 183.329 87.8667V87.8644ZM183.244 68.4397C183.244 72.4442 183.251 76.2975 183.237 80.1531C183.237 80.7579 183.474 81.0107 184.078 80.9847C185.064 80.9422 186.06 81.006 187.034 80.8902C189.239 80.6256 190.424 79.4987 190.595 77.3133C190.735 75.5155 190.718 73.6916 190.6 71.889C190.472 69.9517 189.405 68.6665 187.731 68.4751C186.302 68.3121 184.839 68.4421 183.244 68.4421V68.4397Z" fill="white"/>
<path d="M152.987 85.9341C157.104 88.1738 157.775 91.8854 157.891 95.8142C157.974 98.6067 157.868 101.406 157.946 104.199C157.991 105.796 158.233 107.391 158.401 109.125C158.28 109.144 157.993 109.224 157.706 109.226C155.85 109.238 153.992 109.198 152.138 109.25C151.287 109.274 150.882 108.957 150.827 108.132C150.697 106.134 150.521 104.135 150.434 102.134C150.308 99.2281 150.37 96.3104 150.109 93.4186C149.91 91.2026 148.438 90.0638 146.183 89.9197C144.028 89.7811 142.95 90.7773 142.95 92.9083C142.95 97.9476 142.931 102.987 142.969 108.026C142.976 108.933 142.753 109.29 141.784 109.252C140.008 109.184 138.228 109.203 136.453 109.245C135.67 109.264 135.438 108.981 135.438 108.215C135.455 92.9792 135.455 77.7433 135.438 62.5073C135.438 61.7868 135.67 61.5458 136.391 61.5529C140.38 61.5907 144.372 61.4962 148.36 61.6261C153.954 61.808 157.175 64.7636 157.645 70.3415C157.894 73.3017 157.808 76.3258 157.531 79.2884C157.268 82.1092 155.85 84.4245 152.992 85.9341H152.987ZM142.955 68.3971C142.955 73.1245 142.943 77.7173 142.99 82.3077C142.993 82.5486 143.493 82.981 143.773 82.9904C144.873 83.0306 145.984 83.0046 147.077 82.8794C148.71 82.6928 149.986 81.6438 150.073 80.0207C150.232 77.0912 150.239 74.1381 150.071 71.2085C149.976 69.55 148.701 68.5318 147.042 68.416C145.752 68.3239 144.448 68.3971 142.955 68.3971V68.3971Z" fill="white"/>
<path d="M117.23 91.3396C117.23 91.9657 117.23 92.4264 117.23 92.8847C117.23 97.9216 117.206 102.959 117.249 107.995C117.259 108.992 116.934 109.295 115.959 109.255C114.305 109.189 112.641 109.189 110.986 109.255C109.993 109.295 109.718 108.94 109.72 107.969C109.749 96.7144 109.739 85.4593 109.739 74.2042C109.739 70.3864 109.768 66.5686 109.718 62.7531C109.706 61.8152 109.986 61.5364 110.92 61.5506C114.276 61.6002 117.633 61.5411 120.987 61.5813C127.606 61.6592 131.131 64.6077 131.752 71.14C132.107 74.8752 132.05 78.7072 131.652 82.4424C131.043 88.162 127.499 91.1317 121.727 91.3349C120.279 91.3845 118.828 91.342 117.228 91.342L117.23 91.3396ZM117.23 68.4751C117.23 69.1697 117.23 69.8265 117.23 70.4833C117.23 74.7665 117.225 79.0498 117.24 83.3307C117.24 83.8339 117.036 84.5356 117.932 84.5332C119.112 84.5308 120.305 84.5828 121.473 84.4529C123.097 84.271 124.121 83.4559 124.206 81.847C124.391 78.4048 124.323 74.9508 124.349 71.5015C124.349 71.27 124.261 71.0385 124.209 70.8093C123.92 69.5241 123.126 68.6358 121.834 68.5082C120.364 68.3641 118.87 68.4751 117.232 68.4751H117.23Z" fill="white"/>
<path d="M90.8416 94.8952C90.8416 96.4403 90.7681 97.7799 90.8582 99.1052C91.0123 101.35 91.9226 102.519 93.6198 102.864C95.7912 103.306 97.4648 102.184 97.8299 99.977C98.2471 97.4586 97.8891 95.0133 96.2179 93.0595C93.6601 90.0733 90.9364 87.2241 88.2175 84.3796C84.0999 80.0822 82.4737 75.0618 83.7111 69.2193C84.8253 63.9603 89.1088 60.8465 94.8572 61.0071C101.146 61.182 104.979 64.8982 105.323 71.1778C105.38 72.2291 105.33 73.2876 105.33 74.5043C103.147 74.5043 101.025 74.5279 98.9084 74.4688C98.6998 74.4641 98.368 73.9751 98.3324 73.6821C98.2234 72.7867 98.2968 71.87 98.1783 70.9746C97.9247 69.0492 96.673 67.9482 94.7624 67.875C92.6953 67.7947 91.465 68.709 91.0265 70.7148C90.2324 74.3507 91.7021 77.2779 94.0963 79.8199C95.7699 81.5966 97.6047 83.2196 99.3659 84.9135C102.173 87.6116 104.458 90.6521 105.15 94.5763C105.792 98.2098 105.719 101.843 103.756 105.115C101.312 109.188 97.351 110.134 92.9798 109.692C87.1673 109.101 83.6471 105.342 83.2347 99.5258C83.1446 98.2713 83.1185 97.0073 83.1588 95.7528C83.1683 95.4622 83.5665 94.9448 83.7965 94.9401C86.0769 94.8787 88.3573 94.9023 90.8392 94.9023L90.8416 94.8952Z" fill="white"/>
<path d="M210.993 88.4809V102.406C211.595 102.406 212.171 102.406 212.75 102.406C216.066 102.406 219.385 102.432 222.701 102.387C223.576 102.375 223.893 102.625 223.858 103.518C223.796 105.089 223.82 106.668 223.851 108.241C223.865 108.917 223.687 109.25 222.931 109.245C216.613 109.221 210.296 109.226 203.976 109.217C203.863 109.217 203.751 109.165 203.54 109.113V61.6378C203.912 61.6142 204.292 61.5717 204.671 61.5693C210.633 61.5646 216.597 61.593 222.559 61.541C223.623 61.5315 223.915 61.8434 223.867 62.8734C223.784 64.6359 223.844 66.4054 223.844 68.3096H211.024V81.6413C211.505 81.6413 211.96 81.6413 212.415 81.6413C214.864 81.6413 217.315 81.7146 219.759 81.6106C221.016 81.5563 221.326 81.9863 221.241 83.1486C221.141 84.4787 221.158 85.8277 221.238 87.1602C221.3 88.169 221.025 88.5399 219.942 88.5068C217.417 88.4265 214.888 88.4809 212.361 88.4809C211.934 88.4809 211.505 88.4809 211 88.4809H210.993Z" fill="white"/>
<path d="M170.232 109.219C167.928 109.219 165.648 109.231 163.372 109.196C163.199 109.193 162.945 108.889 162.881 108.678C162.794 108.388 162.85 108.055 162.85 107.74C162.85 92.8257 162.85 77.9111 162.85 62.9965C162.85 62.5736 162.85 62.1507 162.85 61.6475H170.235V109.219H170.232Z" fill="white"/>
</g>
<defs>
<clipPath id="clip0_413_1115">
<rect width="306" height="180" fill="white"/>
</clipPath>
</defs>
</svg>
