<svg width="306" height="180" viewBox="0 0 306 180" fill="none" xmlns="http://www.w3.org/2000/svg">
<g clip-path="url(#clip0_715_5762)">
<path d="M57.967 96.5908H62.939V101.591H57.967V96.5908Z" fill="white"/>
<path d="M57.967 102.5H62.939V107.5H57.967V102.5Z" fill="white"/>
<path d="M51.978 66.4771H56.95V71.4771H51.978V66.4771Z" fill="white"/>
<path d="M51.978 60.4546H56.95V65.4546H51.978V60.4546Z" fill="white"/>
<path d="M63.843 60.4546H68.815V65.4546H63.843V60.4546Z" fill="white"/>
<path d="M63.843 96.5908H68.815V101.591H63.843V96.5908Z" fill="white"/>
<path d="M63.843 66.4771H68.815V71.4771H63.843V66.4771Z" fill="white"/>
<path d="M57.967 60.4546H62.939V65.4546H57.967V60.4546Z" fill="white"/>
<path d="M57.967 66.4771H62.939V71.4771H57.967V66.4771Z" fill="white"/>
<path d="M63.843 102.5H68.815V107.5H63.843V102.5Z" fill="white"/>
<path d="M40 90.5684H44.972V95.5684H40V90.5684Z" fill="white"/>
<path d="M40 78.5229H44.972V83.523H40V78.5229Z" fill="white"/>
<path d="M51.978 96.5908H56.95V101.591H51.978V96.5908Z" fill="white"/>
<path d="M40 72.5H44.972V77.5H40V72.5Z" fill="white"/>
<path d="M40 66.4771H44.972V71.4771H40V66.4771Z" fill="#5E4FA1"/>
<path d="M40 84.5454H44.972V89.5454H40V84.5454Z" fill="white"/>
<path d="M40 114.545H44.972V119.545H40V114.545Z" fill="white"/>
<path d="M40 108.523H44.972V113.523H40V108.523Z" fill="white"/>
<path d="M40 96.5908H44.972V101.591H40V96.5908Z" fill="white"/>
<path d="M40 102.5H44.972V107.5H40V102.5Z" fill="white"/>
<path d="M45.989 114.545H50.961V119.545H45.989V114.545Z" fill="#1EBEE6"/>
<path d="M45.989 60.4546H50.961V65.4546H45.989V60.4546Z" fill="white"/>
<path d="M45.989 108.523H50.961V113.523H45.989V108.523Z" fill="white"/>
<path d="M45.989 66.4771H50.961V71.4771H45.989V66.4771Z" fill="white"/>
<path d="M45.989 72.5H50.961V77.5H45.989V72.5Z" fill="white"/>
<path d="M51.978 102.5H56.95V107.5H51.978V102.5Z" fill="white"/>
<path d="M45.989 78.5229H50.961V83.523H45.989V78.5229Z" fill="white"/>
<path d="M45.989 102.5H50.961V107.5H45.989V102.5Z" fill="white"/>
<path d="M45.989 96.5908H50.961V101.591H45.989V96.5908Z" fill="white"/>
<path d="M45.989 84.5454H50.961V89.5454H45.989V84.5454Z" fill="white"/>
<path d="M45.989 90.5684H50.961V95.5684H45.989V90.5684Z" fill="white"/>
<path d="M75.821 96.5908H80.793V101.591H75.821V96.5908Z" fill="white"/>
<path d="M87.799 90.5684H92.771V95.5684H87.799V90.5684Z" fill="white"/>
<path d="M87.799 96.5908H92.771V101.591H87.799V96.5908Z" fill="white"/>
<path d="M87.799 66.4771H92.771V71.4771H87.799V66.4771Z" fill="white"/>
<path d="M87.799 84.5454H92.771V89.5454H87.799V84.5454Z" fill="white"/>
<path d="M87.799 78.5229H92.771V83.523H87.799V78.5229Z" fill="white"/>
<path d="M87.799 72.5H92.771V77.5H87.799V72.5Z" fill="white"/>
<path d="M81.81 72.5H86.782V77.5H81.81V72.5Z" fill="white"/>
<path d="M81.81 66.4771H86.782V71.4771H81.81V66.4771Z" fill="white"/>
<path d="M81.81 60.4546H86.782V65.4546H81.81V60.4546Z" fill="white"/>
<path d="M93.788 84.5454H98.76V89.5454H93.788V84.5454Z" fill="white"/>
<path d="M93.788 72.5H98.76V77.5H93.788V72.5Z" fill="white"/>
<path d="M93.788 78.5229H98.76V83.523H93.788V78.5229Z" fill="white"/>
<path d="M87.799 60.4546H92.771V65.4546H87.799V60.4546Z" fill="#F36F21"/>
<path d="M93.788 90.5684H98.76V95.5684H93.788V90.5684Z" fill="white"/>
<path d="M69.832 60.4546H74.804V65.4546H69.832V60.4546Z" fill="white"/>
<path d="M69.832 66.4771H74.804V71.4771H69.832V66.4771Z" fill="white"/>
<path d="M69.832 96.5908H74.804V101.591H69.832V96.5908Z" fill="white"/>
<path d="M75.821 102.5H80.793V107.5H75.821V102.5Z" fill="#B64C9C"/>
<path d="M69.832 102.5H74.804V107.5H69.832V102.5Z" fill="white"/>
<path d="M75.821 60.4546H80.793V65.4546H75.821V60.4546Z" fill="white"/>
<path d="M81.81 96.5908H86.782V101.591H81.81V96.5908Z" fill="white"/>
<path d="M81.81 90.5684H86.782V95.5684H81.81V90.5684Z" fill="white"/>
<path d="M75.821 66.4771H80.793V71.4771H75.821V66.4771Z" fill="white"/>
<path d="M129.609 108.523H134.581V113.523H129.609V108.523Z" fill="white"/>
<path d="M129.609 114.545H134.581V119.545H129.609V114.545Z" fill="white"/>
<path d="M123.62 72.5H128.592V77.5H123.62V72.5Z" fill="white"/>
<path d="M123.62 66.4771H128.592V71.4771H123.62V66.4771Z" fill="white"/>
<path d="M123.62 60.4546H128.592V65.4546H123.62V60.4546Z" fill="#FDB81B"/>
<path d="M135.598 60.4546H140.57V65.4546H135.598V60.4546Z" fill="white"/>
<path d="M135.598 66.4771H140.57V71.4771H135.598V66.4771Z" fill="white"/>
<path d="M135.598 108.523H140.57V113.523H135.598V108.523Z" fill="white"/>
<path d="M129.609 60.4546H134.581V65.4546H129.609V60.4546Z" fill="white"/>
<path d="M129.609 66.4771H134.581V71.4771H129.609V66.4771Z" fill="white"/>
<path d="M135.598 114.545H140.57V119.545H135.598V114.545Z" fill="white"/>
<path d="M111.642 90.5684H116.614V95.5684H111.642V90.5684Z" fill="white"/>
<path d="M111.642 78.5229H116.614V83.523H111.642V78.5229Z" fill="white"/>
<path d="M111.642 72.5H116.614V77.5H111.642V72.5Z" fill="#E51B73"/>
<path d="M111.642 84.5454H116.614V89.5454H111.642V84.5454Z" fill="white"/>
<path d="M111.642 96.5908H116.614V101.591H111.642V96.5908Z" fill="white"/>
<path d="M111.642 102.5H116.614V107.5H111.642V102.5Z" fill="white"/>
<path d="M117.631 108.523H122.603V113.523H117.631V108.523Z" fill="#3D81C3"/>
<path d="M117.631 66.4771H122.603V71.4771H117.631V66.4771Z" fill="white"/>
<path d="M117.631 72.5H122.603V77.5H117.631V72.5Z" fill="white"/>
<path d="M123.62 108.523H128.592V113.523H123.62V108.523Z" fill="white"/>
<path d="M123.62 102.5H128.592V107.5H123.62V102.5Z" fill="white"/>
<path d="M123.62 114.545H128.592V119.545H123.62V114.545Z" fill="white"/>
<path d="M117.631 78.5229H122.603V83.523H117.631V78.5229Z" fill="white"/>
<path d="M117.631 102.5H122.603V107.5H117.631V102.5Z" fill="white"/>
<path d="M117.631 96.5908H122.603V101.591H117.631V96.5908Z" fill="white"/>
<path d="M117.631 84.5454H122.603V89.5454H117.631V84.5454Z" fill="white"/>
<path d="M117.631 90.5684H122.603V95.5684H117.631V90.5684Z" fill="white"/>
<path d="M159.441 90.5684H164.413V95.5684H159.441V90.5684Z" fill="white"/>
<path d="M159.441 96.5908H164.413V101.591H159.441V96.5908Z" fill="white"/>
<path d="M159.441 66.4771H164.413V71.4771H159.441V66.4771Z" fill="white"/>
<path d="M159.441 84.5454H164.413V89.5454H159.441V84.5454Z" fill="white"/>
<path d="M159.441 72.5H164.413V77.5H159.441V72.5Z" fill="white"/>
<path d="M159.441 102.5H164.413V107.5H159.441V102.5Z" fill="white"/>
<path d="M159.441 108.523H164.413V113.523H159.441V108.523Z" fill="white"/>
<path d="M153.452 72.5H158.424V77.5H153.452V72.5Z" fill="white"/>
<path d="M153.452 66.4771H158.424V71.4771H153.452V66.4771Z" fill="white"/>
<path d="M165.43 84.5454H170.402V89.5454H165.43V84.5454Z" fill="#5EBF85"/>
<path d="M141.587 114.545H146.559V119.545H141.587V114.545Z" fill="white"/>
<path d="M165.43 102.5H170.402V107.5H165.43V102.5Z" fill="#EE2830"/>
<path d="M165.43 90.5684H170.402V95.5684H165.43V90.5684Z" fill="white"/>
<path d="M165.43 96.5908H170.402V101.591H165.43V96.5908Z" fill="white"/>
<path d="M141.587 60.4546H146.559V65.4546H141.587V60.4546Z" fill="white"/>
<path d="M141.587 66.4771H146.559V71.4771H141.587V66.4771Z" fill="white"/>
<path d="M147.463 108.523H152.435V113.523H147.463V108.523Z" fill="white"/>
<path d="M141.587 84.5454H146.559V89.5454H141.587V84.5454Z" fill="white"/>
<path d="M147.463 114.545H152.435V119.545H147.463V114.545Z" fill="white"/>
<path d="M141.587 108.523H146.559V113.523H141.587V108.523Z" fill="white"/>
<path d="M153.452 84.5454H158.424V89.5454H153.452V84.5454Z" fill="white"/>
<path d="M141.587 90.5684H146.559V95.5684H141.587V90.5684Z" fill="white"/>
<path d="M147.463 60.4546H152.435V65.4546H147.463V60.4546Z" fill="white"/>
<path d="M153.452 102.5H158.424V107.5H153.452V102.5Z" fill="white"/>
<path d="M153.452 114.545H158.424V119.545H153.452V114.545Z" fill="#F04E23"/>
<path d="M153.452 108.523H158.424V113.523H153.452V108.523Z" fill="white"/>
<path d="M153.452 90.5684H158.424V95.5684H153.452V90.5684Z" fill="white"/>
<path d="M147.463 66.4771H152.435V71.4771H147.463V66.4771Z" fill="white"/>
<path d="M147.463 90.5684H152.435V95.5684H147.463V90.5684Z" fill="white"/>
<path d="M147.463 84.5454H152.435V89.5454H147.463V84.5454Z" fill="white"/>
<path d="M262.158 60H258.768H254.926V63.4091H258.768V76.0227H262.158V63.4091H266V60H262.158Z" fill="white"/>
<path d="M252.101 63.4091V60H240.688V63.4091V72.6136V76.0227H244.191H252.101V72.6136H244.191V69.7727H250.18V66.3636H244.191V63.4091H252.101Z" fill="white"/>
<path d="M207.353 62.0455V60H200.347V62.0455H197.974V73.9773H200.347V76.1364H207.353V73.9773H209.274V62.0455H207.353ZM205.884 72.7273H201.251V63.4091H205.884V72.7273Z" fill="white"/>
<path d="M193.341 62.0455V60H183.51V76.0227H186.9V70H193.341V68.0682H195.036V62.0455H193.341ZM191.646 66.5909H186.9V63.4091H191.646V66.5909Z" fill="white"/>
<path d="M237.863 66.0227V60H234.473V66.0227H229.727V60H226.337V76.0227H229.727V70H234.473V76.0227H237.863V70H236.055V66.0227H237.863Z" fill="white"/>
<path d="M223.512 66.0227V62.0455H221.591V60H214.472V62.0455H212.099V73.9773H214.472V76.0227H221.591V73.9773H223.512V70.1136H220.122V72.6136H215.489V63.4091H220.122V66.0227H223.512Z" fill="white"/>
<path d="M233.908 103.977H230.518H226.676V107.386H230.518V120H233.908V107.386H237.75V103.977H233.908Z" fill="white"/>
<path d="M207.466 106.023V103.977H200.46V106.023H198.087V117.954H200.46V120.113H207.466V117.954H209.387V106.023H207.466ZM205.997 116.704H201.364V107.5H205.997V116.704Z" fill="white"/>
<path d="M195.036 107.386V103.977H185.996V106.136H183.397V112.045H185.996V113.75H191.646V116.591H184.188V120H193.115V117.954H195.036V112.045H193.115V110.341H186.787V107.386H195.036Z" fill="white"/>
<path d="M223.738 107.386V103.977H212.325V107.386V116.591V120H215.715V116.591V113.75H221.817V110.341H215.715V107.386H223.738Z" fill="white"/>
<path d="M239.445 85.4545V82.0454H228.145V85.4545V94.659V98.0681H231.535H239.445V94.659H231.535V91.7045H237.637V88.2954H231.535V85.4545H239.445Z" fill="white"/>
<path d="M254.022 85.4545V82.0454H244.982V84.2045H242.383V90H244.982V91.7045H250.632V94.5454H243.174V98.0681H252.101V96.0227H254.022V90H252.101V88.2954H245.773V85.4545H254.022Z" fill="white"/>
<path d="M207.353 84.0909V82.0454H199.782V84.0909H197.748V98.0681H201.138V93.75H205.997V98.0681H209.387V84.0909H207.353ZM205.997 90.3409H201.251V85.4545H205.997V90.3409Z" fill="white"/>
<path d="M189.386 87.9545V91.3636H191.42V94.659H186.787V85.4545H191.42H193.341V83.9772V82.0454H192.889H185.77V83.9772H183.397V95.909H185.77V98.0681H192.889V95.909H194.81V91.3636V87.9545H189.386Z" fill="white"/>
<path d="M224.19 82.0454V83.9772H222.269H221.817V86.0227H220.235V88.0681H217.297V86.0227H215.715V83.9772H215.263H213.342V82.0454H212.325V98.0681H215.263H215.715V92.0454H217.297H218.201V94.0909H218.314H219.218V92.0454H220.235H221.817V98.0681H222.269H225.207V82.0454H224.19Z" fill="white"/>
</g>
<defs>
<clipPath id="clip0_715_5762">
<rect width="306" height="180" fill="white"/>
</clipPath>
</defs>
</svg>
