<svg width="306" height="180" viewBox="0 0 306 180" fill="none" xmlns="http://www.w3.org/2000/svg">
<path d="M71.116 73.269C70.11 73.754 69.12 74.247 68.161 74.753C57.017 80.325 51.444 86.826 50.516 94.442C49.402 105.401 61.289 120.26 88.221 122.117C102.337 123.046 116.082 123.417 142.272 116.916C139.114 117.102 67.976 126.017 68.161 93.327C68.161 90.927 68.861 88.309 70.176 85.67C69.719 84.085 69.461 82.419 69.461 80.697C69.461 78.056 70.065 75.544 71.116 73.269Z" fill="url(#paint0_linear_2_638)"/>
<path d="M138.385 72.753C138.32 72.552 138.262 72.349 138.186 72.152C135.028 63.794 122.212 61.008 106.239 63.236C102.711 63.728 99.374 64.316 96.195 64.982C96.852 65.352 97.476 65.769 98.081 66.215C115.025 62.177 124.93 69.87 127.786 77.166C130.944 85.153 124.628 99.455 114.041 109.856C121.656 104.284 127.972 98.526 132.244 92.768C135.718 88.174 137.964 83.717 138.718 79.638C138.253 77.319 138.127 74.997 138.385 72.753Z" fill="url(#paint1_linear_2_638)"/>
<path d="M152.859 111.53H151.373V120.817H152.859V111.53Z" fill="#40AA8B"/>
<path d="M163.818 118.402L158.431 111.53H156.945V120.817H158.431V114.13L163.632 120.817H165.304V111.53H163.818V118.402Z" fill="#40AA8B"/>
<path d="M168.461 113.016H171.247V120.817H172.733V113.016H175.705V111.53H168.461V113.016Z" fill="#40AA8B"/>
<path d="M179.977 116.73H184.435V115.43H179.977V113.016H184.992V111.53V111.344H178.491V120.631H185.178V119.145H179.977V116.73Z" fill="#40AA8B"/>
<path d="M195.951 114.687C195.951 113.573 195.58 112.83 195.022 112.458C194.465 111.901 193.536 111.715 192.05 111.715H188.521V121.002H190.007V117.844H192.05L194.279 121.002H196.322L193.907 117.659C195.208 117.102 195.951 116.173 195.951 114.687ZM192.05 116.359H190.193V113.016H192.236C192.979 113.016 193.536 113.202 193.908 113.388C194.279 113.759 194.465 114.131 194.465 114.688C194.465 115.245 194.279 115.802 193.908 115.988C193.537 116.174 192.979 116.359 192.05 116.359Z" fill="#40AA8B"/>
<path d="M202.266 111.53L198.18 120.817H199.852L200.781 118.774H205.424L206.353 120.817H208.025L203.939 111.53H202.266ZM201.523 117.288L203.195 113.387L204.867 117.288H201.523Z" fill="#40AA8B"/>
<path d="M215.082 113.387C215.454 113.387 216.011 113.387 216.382 113.573C216.754 113.759 217.311 114.13 217.682 114.502L218.611 113.388C217.682 112.274 216.568 111.716 215.082 111.716C213.596 111.716 212.482 112.088 211.553 113.016C210.624 113.945 210.067 115.245 210.067 116.545C210.067 117.845 210.438 118.96 211.367 119.888C212.296 120.816 213.41 121.188 214.896 121.188C216.196 121.188 217.496 120.631 218.425 119.516L217.496 118.402C216.939 118.773 216.567 119.145 216.196 119.331C215.825 119.517 215.453 119.517 214.896 119.517C213.967 119.517 213.224 119.145 212.667 118.96C212.11 118.217 211.738 117.474 211.738 116.545C211.738 115.616 212.109 114.873 212.667 114.316C213.411 113.759 214.154 113.387 215.082 113.387Z" fill="#40AA8B"/>
<path d="M221.026 113.016H223.812V120.817H225.298V113.016H228.27V111.53H221.026V113.016Z" fill="#40AA8B"/>
<path d="M232.542 111.53H231.056V120.817H232.542V111.53Z" fill="#40AA8B"/>
<path d="M239.786 118.402L237 111.53H235.328L239.043 120.817H240.714L244.244 111.53H242.572L239.786 118.402Z" fill="#40AA8B"/>
<path d="M247.03 120.631H253.716V119.145H248.701V116.73H253.159V115.43H248.701V113.016H253.716V111.53V111.344H247.03V120.631Z" fill="#40AA8B"/>
<path d="M71.116 73.269C70.065 75.544 69.462 78.056 69.462 80.697C69.462 82.419 69.72 84.085 70.177 85.67C73.238 79.525 79.684 73.265 88.779 69.367C92.087 67.93 95.183 66.907 98.08 66.217C97.476 65.771 96.851 65.353 96.194 64.984C86.38 67.037 78.156 69.876 71.116 73.269Z" fill="url(#paint2_linear_2_638)"/>
<path opacity="0.36" d="M71.116 73.269C70.065 75.544 69.462 78.056 69.462 80.697C69.462 82.419 69.72 84.085 70.177 85.67C73.238 79.525 79.684 73.265 88.779 69.367C92.087 67.93 95.183 66.907 98.08 66.217C97.476 65.771 96.851 65.353 96.194 64.984C86.38 67.037 78.156 69.876 71.116 73.269Z" fill="url(#paint3_linear_2_638)"/>
<path d="M98.623 99.457C96.388 99.457 94.283 98.924 92.406 97.997C90.834 98.454 89.184 98.714 87.479 98.714C85.093 98.714 82.829 98.239 80.754 97.402C83.357 102.378 88.483 105.772 94.351 105.772C101.38 105.772 107.268 101.117 109.139 94.71C106.554 97.628 102.808 99.457 98.623 99.457Z" fill="#A5CD39"/>
<path opacity="0.36" d="M78.945 90.509C78.944 90.582 78.934 90.653 78.934 90.726C78.934 90.653 78.944 90.583 78.945 90.511C78.945 90.511 78.945 90.51 78.945 90.509Z" fill="url(#paint4_linear_2_638)"/>
<path d="M78.945 90.512C78.944 90.584 78.934 90.654 78.934 90.727C78.985 93.092 79.564 95.321 80.53 97.32C80.603 97.351 80.68 97.373 80.753 97.402C79.672 95.334 79.024 92.998 78.945 90.512Z" fill="#A5CD39"/>
<path opacity="0.36" d="M78.945 90.512C78.944 90.584 78.934 90.654 78.934 90.727C78.985 93.092 79.564 95.321 80.53 97.32C80.603 97.351 80.68 97.373 80.753 97.402C79.672 95.334 79.024 92.998 78.945 90.512Z" fill="url(#paint5_linear_2_638)"/>
<path d="M86.784 77.339C86.8 77.313 86.814 77.286 86.831 77.261C82.173 79.857 79.024 84.795 78.945 90.51C78.945 90.511 78.945 90.512 78.945 90.512C79.025 84.85 82.2 79.955 86.784 77.339Z" fill="#A5CD39"/>
<path opacity="0.36" d="M86.784 77.339C86.8 77.313 86.814 77.286 86.831 77.261C82.173 79.857 79.024 84.795 78.945 90.51C78.945 90.511 78.945 90.512 78.945 90.512C79.025 84.85 82.2 79.955 86.784 77.339Z" fill="url(#paint6_linear_2_638)"/>
<path d="M92.406 97.997C87.73 95.687 84.507 90.854 84.507 85.155C84.507 82.253 85.349 79.577 86.785 77.339C82.201 79.955 79.025 84.85 78.946 90.512C79.024 92.998 79.673 95.335 80.754 97.402C82.829 98.239 85.093 98.714 87.479 98.714C89.184 98.714 90.834 98.454 92.406 97.997Z" fill="#A5CD39"/>
<path opacity="0.36" d="M92.406 97.997C87.73 95.687 84.507 90.854 84.507 85.155C84.507 82.253 85.349 79.577 86.785 77.339C82.201 79.955 79.025 84.85 78.946 90.512C79.024 92.998 79.673 95.335 80.754 97.402C82.829 98.239 85.093 98.714 87.479 98.714C89.184 98.714 90.834 98.454 92.406 97.997Z" fill="url(#paint7_linear_2_638)"/>
<path opacity="0.71" d="M109.255 94.58C109.26 94.574 109.266 94.568 109.271 94.562C109.583 93.335 109.767 92.054 109.767 90.727C109.767 92.061 109.577 93.347 109.255 94.58Z" fill="url(#paint8_linear_2_638)"/>
<path opacity="0.71" d="M109.767 90.727C109.767 90.664 109.758 90.604 109.758 90.541C109.758 90.542 109.758 90.542 109.758 90.543C109.759 90.605 109.767 90.665 109.767 90.727Z" fill="url(#paint9_linear_2_638)"/>
<path d="M109.138 94.709C109.176 94.666 109.216 94.624 109.254 94.58C109.576 93.347 109.767 92.061 109.767 90.726C109.767 90.664 109.758 90.604 109.758 90.542C109.741 91.99 109.525 93.386 109.138 94.709Z" fill="#A5CD39"/>
<path opacity="0.71" d="M109.138 94.709C109.176 94.666 109.216 94.624 109.254 94.58C109.576 93.347 109.767 92.061 109.767 90.726C109.767 90.664 109.758 90.604 109.758 90.542C109.741 91.99 109.525 93.386 109.138 94.709Z" fill="url(#paint10_linear_2_638)"/>
<path d="M105.465 80.108C108.087 82.855 109.709 86.541 109.758 90.543C109.758 90.542 109.758 90.542 109.758 90.541C109.71 86.45 108.085 82.759 105.461 80.032C105.462 80.058 105.464 80.082 105.465 80.108Z" fill="#A5CD39"/>
<path opacity="0.71" d="M105.465 80.108C108.087 82.855 109.709 86.541 109.758 90.543C109.758 90.542 109.758 90.542 109.758 90.541C109.71 86.45 108.085 82.759 105.461 80.032C105.462 80.058 105.464 80.082 105.465 80.108Z" fill="url(#paint11_linear_2_638)"/>
<path d="M105.465 80.108C105.472 80.305 105.495 80.498 105.495 80.697C105.495 88.835 99.904 95.817 92.406 97.997C94.283 98.924 96.388 99.457 98.623 99.457C102.808 99.457 106.554 97.628 109.139 94.71C109.525 93.387 109.741 91.991 109.758 90.543C109.709 86.541 108.086 82.855 105.465 80.108Z" fill="#A5CD39"/>
<path opacity="0.71" d="M105.465 80.108C105.472 80.305 105.495 80.498 105.495 80.697C105.495 88.835 99.904 95.817 92.406 97.997C94.283 98.924 96.388 99.457 98.623 99.457C102.808 99.457 106.554 97.628 109.139 94.71C109.525 93.387 109.741 91.991 109.758 90.543C109.709 86.541 108.086 82.855 105.465 80.108Z" fill="url(#paint12_linear_2_638)"/>
<path d="M105.465 80.108C105.464 80.083 105.462 80.058 105.461 80.033C102.66 77.123 98.729 75.311 94.351 75.311C98.731 75.31 102.664 77.173 105.465 80.108Z" fill="#A5CD39"/>
<path opacity="0.36" d="M105.465 80.108C105.464 80.083 105.462 80.058 105.461 80.033C102.66 77.123 98.729 75.311 94.351 75.311C98.731 75.31 102.664 77.173 105.465 80.108Z" fill="url(#paint13_linear_2_638)"/>
<path opacity="0.71" d="M105.465 80.108C105.464 80.083 105.462 80.058 105.461 80.033C102.66 77.123 98.729 75.311 94.351 75.311C98.731 75.31 102.664 77.173 105.465 80.108Z" fill="url(#paint14_linear_2_638)"/>
<path d="M86.831 77.261C86.814 77.286 86.8 77.314 86.784 77.339C89.036 76.054 91.62 75.31 94.35 75.31C91.614 75.31 89.054 76.022 86.831 77.261Z" fill="#A5CD39"/>
<path opacity="0.36" d="M86.831 77.261C86.814 77.286 86.8 77.314 86.784 77.339C89.036 76.054 91.62 75.31 94.35 75.31C91.614 75.31 89.054 76.022 86.831 77.261Z" fill="url(#paint15_linear_2_638)"/>
<path opacity="0.71" d="M86.831 77.261C86.814 77.286 86.8 77.314 86.784 77.339C89.036 76.054 91.62 75.31 94.35 75.31C91.614 75.31 89.054 76.022 86.831 77.261Z" fill="url(#paint16_linear_2_638)"/>
<path d="M92.406 97.997C99.904 95.817 105.495 88.836 105.495 80.697C105.495 80.498 105.471 80.305 105.465 80.108C102.664 77.173 98.731 75.311 94.351 75.311C91.621 75.311 89.037 76.055 86.785 77.34C85.349 79.578 84.507 82.254 84.507 85.156C84.506 90.853 87.73 95.687 92.406 97.997Z" fill="#A5CD39"/>
<path opacity="0.36" d="M92.406 97.997C99.904 95.817 105.495 88.836 105.495 80.697C105.495 80.498 105.471 80.305 105.465 80.108C102.664 77.173 98.731 75.311 94.351 75.311C91.621 75.311 89.037 76.055 86.785 77.34C85.349 79.578 84.507 82.254 84.507 85.156C84.506 90.853 87.73 95.687 92.406 97.997Z" fill="url(#paint17_linear_2_638)"/>
<path opacity="0.71" d="M92.406 97.997C99.904 95.817 105.495 88.836 105.495 80.697C105.495 80.498 105.471 80.305 105.465 80.108C102.664 77.173 98.731 75.311 94.351 75.311C91.621 75.311 89.037 76.055 86.785 77.34C85.349 79.578 84.507 82.254 84.507 85.156C84.506 90.853 87.73 95.687 92.406 97.997Z" fill="url(#paint18_linear_2_638)"/>
<path d="M186.592 80.236C186.566 80.393 186.55 80.557 186.527 80.716C186.564 80.719 186.602 80.722 186.639 80.726C186.621 80.563 186.606 80.4 186.592 80.236Z" fill="#A5CD39"/>
<path d="M215.639 91.655C214.616 92.459 213.529 93.134 212.404 93.696C213.977 95.809 215.152 98.102 215.847 100.525C217.717 99.551 219.382 98.273 220.84 96.67V83.804C219.957 86.823 218.271 89.575 215.639 91.655Z" fill="#A5CD39"/>
<path d="M227.155 65.466V72.524H227.377C227.634 69.999 228.304 67.608 229.391 65.466H227.155Z" fill="#A5CD39"/>
<path d="M151.187 102.428H166.37C161.316 102.428 155.971 100.821 151.187 97.648V102.428Z" fill="#A5CD39"/>
<path opacity="0.79" d="M151.187 102.428H166.37C161.316 102.428 155.971 100.821 151.187 97.648V102.428Z" fill="url(#paint19_linear_2_638)"/>
<path d="M178.491 102.428V98.696C175.084 101.182 170.846 102.427 166.373 102.428H178.491Z" fill="#A5CD39"/>
<path opacity="0.79" d="M178.491 102.428V98.696C175.084 101.182 170.846 102.427 166.373 102.428H178.491Z" fill="url(#paint20_linear_2_638)"/>
<path d="M190.379 89.241C188.161 86.53 186.984 83.635 186.64 80.726C186.603 80.722 186.565 80.72 186.528 80.716C186.385 81.725 186.293 82.762 186.293 83.854C186.293 89.24 188.15 93.884 191.865 97.413C195.58 100.942 200.223 102.799 205.61 102.799C209.56 102.799 212.953 102.033 215.848 100.525C215.154 98.102 213.978 95.809 212.405 93.696C204.953 97.419 195.704 95.857 190.379 89.241Z" fill="#A5CD39"/>
<path opacity="0.79" d="M190.379 89.241C188.161 86.53 186.984 83.635 186.64 80.726C186.603 80.722 186.565 80.72 186.528 80.716C186.385 81.725 186.293 82.762 186.293 83.854C186.293 89.24 188.15 93.884 191.865 97.413C195.58 100.942 200.223 102.799 205.61 102.799C209.56 102.799 212.953 102.033 215.848 100.525C215.154 98.102 213.978 95.809 212.405 93.696C204.953 97.419 195.704 95.857 190.379 89.241Z" fill="url(#paint21_linear_2_638)"/>
<path d="M237.557 75.71C237.922 75.387 238.283 75.061 238.672 74.753C244.183 70.344 250.782 68.665 256.317 69.707V65.466H229.392C228.305 67.609 227.635 69.999 227.378 72.524H237.557V75.71Z" fill="#A5CD39"/>
<path opacity="0.47" d="M237.557 75.71C237.922 75.387 238.283 75.061 238.672 74.753C244.183 70.344 250.782 68.665 256.317 69.707V65.466H229.392C228.305 67.609 227.635 69.999 227.378 72.524H237.557V75.71Z" fill="url(#paint22_linear_2_638)"/>
<path d="M194.717 82.243C194.954 79.486 195.903 77.057 197.809 75.31C200.038 73.267 202.638 72.152 205.796 72.152C207.282 72.152 208.954 72.338 210.254 72.895C211.74 73.452 213.226 74.381 214.897 75.867L219.169 69.738C215.268 66.209 210.811 64.537 205.424 64.537C200.223 64.537 195.58 66.394 191.865 70.109C188.993 72.981 187.245 76.304 186.593 80.236C186.607 80.399 186.621 80.563 186.641 80.726C189.449 80.994 192.158 81.506 194.717 82.243Z" fill="#A5CD39"/>
<path opacity="0.61" d="M194.717 82.243C194.954 79.486 195.903 77.057 197.809 75.31C200.038 73.267 202.638 72.152 205.796 72.152C207.282 72.152 208.954 72.338 210.254 72.895C211.74 73.452 213.226 74.381 214.897 75.867L219.169 69.738C215.268 66.209 210.811 64.537 205.424 64.537C200.223 64.537 195.58 66.394 191.865 70.109C188.993 72.981 187.245 76.304 186.593 80.236C186.607 80.399 186.621 80.563 186.641 80.726C189.449 80.994 192.158 81.506 194.717 82.243Z" fill="url(#paint23_linear_2_638)"/>
<path d="M212.482 83.483H212.296V93.513C212.289 93.517 212.281 93.52 212.275 93.523C212.319 93.581 212.362 93.639 212.405 93.697C213.53 93.135 214.617 92.46 215.64 91.656C218.271 89.575 219.958 86.824 220.841 83.804V83.483H212.482Z" fill="#A5CD39"/>
<path opacity="0.61" d="M212.482 83.483H212.296V93.513C212.289 93.517 212.281 93.52 212.275 93.523C212.319 93.581 212.362 93.639 212.405 93.697C213.53 93.135 214.617 92.46 215.64 91.656C218.271 89.575 219.958 86.824 220.841 83.804V83.483H212.482Z" fill="url(#paint24_linear_2_638)"/>
<path d="M205.238 95.185C202.266 95.185 199.851 94.071 197.808 92.027C195.765 89.984 194.65 87.012 194.65 83.669C194.65 83.185 194.676 82.711 194.716 82.244C192.157 81.507 189.449 80.994 186.639 80.727C186.983 83.636 188.16 86.531 190.378 89.242C195.703 95.858 204.952 97.42 212.404 93.698C212.361 93.64 212.318 93.582 212.274 93.524C210.42 94.63 208.014 95.185 205.238 95.185Z" fill="#A5CD39"/>
<path opacity="0.79" d="M205.238 95.185C202.266 95.185 199.851 94.071 197.808 92.027C195.765 89.984 194.65 87.012 194.65 83.669C194.65 83.185 194.676 82.711 194.716 82.244C192.157 81.507 189.449 80.994 186.639 80.727C186.983 83.636 188.16 86.531 190.378 89.242C195.703 95.858 204.952 97.42 212.404 93.698C212.361 93.64 212.318 93.582 212.274 93.524C210.42 94.63 208.014 95.185 205.238 95.185Z" fill="url(#paint25_linear_2_638)"/>
<path opacity="0.61" d="M205.238 95.185C202.266 95.185 199.851 94.071 197.808 92.027C195.765 89.984 194.65 87.012 194.65 83.669C194.65 83.185 194.676 82.711 194.716 82.244C192.157 81.507 189.449 80.994 186.639 80.727C186.983 83.636 188.16 86.531 190.378 89.242C195.703 95.858 204.952 97.42 212.404 93.698C212.361 93.64 212.318 93.582 212.274 93.524C210.42 94.63 208.014 95.185 205.238 95.185Z" fill="url(#paint26_linear_2_638)"/>
<path d="M237.557 102.428H245.73V101.713C242.87 100.576 240.09 98.883 237.557 96.684V102.428Z" fill="#A5CD39"/>
<path opacity="0.66" d="M237.557 102.428H245.73V101.713C242.87 100.576 240.09 98.883 237.557 96.684V102.428Z" fill="url(#paint27_linear_2_638)"/>
<path d="M238.671 74.753C238.282 75.061 237.921 75.387 237.556 75.71V96.684C240.088 98.883 242.868 100.577 245.729 101.713V72.524H256.316V69.707C250.782 68.665 244.182 70.344 238.671 74.753Z" fill="#A5CD39"/>
<path opacity="0.47" d="M238.671 74.753C238.282 75.061 237.921 75.387 237.556 75.71V96.684C240.088 98.883 242.868 100.577 245.729 101.713V72.524H256.316V69.707C250.782 68.665 244.182 70.344 238.671 74.753Z" fill="url(#paint28_linear_2_638)"/>
<path opacity="0.66" d="M238.671 74.753C238.282 75.061 237.921 75.387 237.556 75.71V96.684C240.088 98.883 242.868 100.577 245.729 101.713V72.524H256.316V69.707C250.782 68.665 244.182 70.344 238.671 74.753Z" fill="url(#paint29_linear_2_638)"/>
<path d="M138.385 72.753C138.128 74.997 138.253 77.319 138.716 79.639C139.169 77.189 139.078 74.877 138.385 72.753Z" fill="url(#paint30_linear_2_638)"/>
<path opacity="0.39" d="M138.385 72.753C138.128 74.997 138.253 77.319 138.716 79.639C139.169 77.189 139.078 74.877 138.385 72.753Z" fill="url(#paint31_linear_2_638)"/>
<path d="M176.077 80.918V80.511H159.546V72.896H177.934V65.466H151.187V94.869C155.886 87.684 165.095 82.378 176.077 80.918Z" fill="#A5CD39"/>
<path opacity="0.39" d="M176.077 80.918V80.511H159.546V72.896H177.934V65.466H151.187V94.869C155.886 87.684 165.095 82.378 176.077 80.918Z" fill="url(#paint32_linear_2_638)"/>
<path d="M159.546 95.185V87.57H176.077V80.919C165.095 82.379 155.886 87.685 151.188 94.87V97.649C155.972 100.823 161.317 102.429 166.371 102.429H166.374C170.847 102.429 175.085 101.183 178.492 98.697V95.185H159.546Z" fill="#A5CD39"/>
<path opacity="0.79" d="M159.546 95.185V87.57H176.077V80.919C165.095 82.379 155.886 87.685 151.188 94.87V97.649C155.972 100.823 161.317 102.429 166.371 102.429H166.374C170.847 102.429 175.085 101.183 178.492 98.697V95.185H159.546Z" fill="url(#paint33_linear_2_638)"/>
<path opacity="0.39" d="M159.546 95.185V87.57H176.077V80.919C165.095 82.379 155.886 87.685 151.188 94.87V97.649C155.972 100.823 161.317 102.429 166.371 102.429H166.374C170.847 102.429 175.085 101.183 178.492 98.697V95.185H159.546Z" fill="url(#paint34_linear_2_638)"/>
<defs>
<linearGradient id="paint0_linear_2_638" x1="111.387" y1="134.658" x2="74.5435" y2="70.8435" gradientUnits="userSpaceOnUse">
<stop stop-color="#00A48B"/>
<stop offset="0.9995" stop-color="#A5CD39"/>
</linearGradient>
<linearGradient id="paint1_linear_2_638" x1="141.394" y1="117.333" x2="104.551" y2="53.5185" gradientUnits="userSpaceOnUse">
<stop stop-color="#00A48B"/>
<stop offset="0.9995" stop-color="#A5CD39"/>
</linearGradient>
<linearGradient id="paint2_linear_2_638" x1="116.367" y1="131.782" x2="79.5236" y2="67.9683" gradientUnits="userSpaceOnUse">
<stop stop-color="#00A48B"/>
<stop offset="0.9995" stop-color="#A5CD39"/>
</linearGradient>
<linearGradient id="paint3_linear_2_638" x1="69.4615" y1="75.3261" x2="105.495" y2="75.3261" gradientUnits="userSpaceOnUse">
<stop stop-color="#0092C0"/>
<stop offset="0.9995" stop-color="#A5CD39"/>
</linearGradient>
<linearGradient id="paint4_linear_2_638" x1="69.4601" y1="90.618" x2="105.499" y2="90.618" gradientUnits="userSpaceOnUse">
<stop stop-color="#0092C0"/>
<stop offset="0.9995" stop-color="#A5CD39"/>
</linearGradient>
<linearGradient id="paint5_linear_2_638" x1="69.4615" y1="93.9565" x2="105.495" y2="93.9565" gradientUnits="userSpaceOnUse">
<stop stop-color="#0092C0"/>
<stop offset="0.9995" stop-color="#A5CD39"/>
</linearGradient>
<linearGradient id="paint6_linear_2_638" x1="69.4615" y1="83.886" x2="105.495" y2="83.886" gradientUnits="userSpaceOnUse">
<stop stop-color="#0092C0"/>
<stop offset="0.9995" stop-color="#A5CD39"/>
</linearGradient>
<linearGradient id="paint7_linear_2_638" x1="69.4615" y1="88.0262" x2="105.495" y2="88.0262" gradientUnits="userSpaceOnUse">
<stop stop-color="#0092C0"/>
<stop offset="0.9995" stop-color="#A5CD39"/>
</linearGradient>
<linearGradient id="paint8_linear_2_638" x1="117.176" y1="79.3819" x2="102.965" y2="103.997" gradientUnits="userSpaceOnUse">
<stop stop-color="#91C73E"/>
<stop offset="1" stop-color="#0092C0"/>
</linearGradient>
<linearGradient id="paint9_linear_2_638" x1="116.484" y1="78.9849" x2="102.27" y2="103.593" gradientUnits="userSpaceOnUse">
<stop stop-color="#91C73E"/>
<stop offset="1" stop-color="#0092C0"/>
</linearGradient>
<linearGradient id="paint10_linear_2_638" x1="117.131" y1="79.3556" x2="102.919" y2="103.97" gradientUnits="userSpaceOnUse">
<stop stop-color="#91C73E"/>
<stop offset="1" stop-color="#0092C0"/>
</linearGradient>
<linearGradient id="paint11_linear_2_638" x1="112.558" y1="76.7158" x2="98.347" y2="101.331" gradientUnits="userSpaceOnUse">
<stop stop-color="#91C73E"/>
<stop offset="1" stop-color="#0092C0"/>
</linearGradient>
<linearGradient id="paint12_linear_2_638" x1="112.222" y1="76.5215" x2="98.0105" y2="101.136" gradientUnits="userSpaceOnUse">
<stop stop-color="#91C73E"/>
<stop offset="1" stop-color="#0092C0"/>
</linearGradient>
<linearGradient id="paint13_linear_2_638" x1="69.4615" y1="77.709" x2="105.495" y2="77.709" gradientUnits="userSpaceOnUse">
<stop stop-color="#0092C0"/>
<stop offset="0.9995" stop-color="#A5CD39"/>
</linearGradient>
<linearGradient id="paint14_linear_2_638" x1="103.5" y1="71.4863" x2="89.2892" y2="96.1011" gradientUnits="userSpaceOnUse">
<stop stop-color="#91C73E"/>
<stop offset="1" stop-color="#0092C0"/>
</linearGradient>
<linearGradient id="paint15_linear_2_638" x1="69.4615" y1="76.3245" x2="105.495" y2="76.3245" gradientUnits="userSpaceOnUse">
<stop stop-color="#0092C0"/>
<stop offset="0.9995" stop-color="#A5CD39"/>
</linearGradient>
<linearGradient id="paint16_linear_2_638" x1="95.8958" y1="67.0958" x2="81.6846" y2="91.7106" gradientUnits="userSpaceOnUse">
<stop stop-color="#91C73E"/>
<stop offset="1" stop-color="#0092C0"/>
</linearGradient>
<linearGradient id="paint17_linear_2_638" x1="69.4615" y1="86.6534" x2="105.495" y2="86.6534" gradientUnits="userSpaceOnUse">
<stop stop-color="#0092C0"/>
<stop offset="0.9995" stop-color="#A5CD39"/>
</linearGradient>
<linearGradient id="paint18_linear_2_638" x1="102.26" y1="70.7702" x2="88.0489" y2="95.385" gradientUnits="userSpaceOnUse">
<stop stop-color="#91C73E"/>
<stop offset="1" stop-color="#0092C0"/>
</linearGradient>
<linearGradient id="paint19_linear_2_638" x1="148.03" y1="100.038" x2="216.382" y2="100.038" gradientUnits="userSpaceOnUse">
<stop stop-color="#0092C0"/>
<stop offset="0.9995" stop-color="#A5CD39"/>
</linearGradient>
<linearGradient id="paint20_linear_2_638" x1="148.03" y1="100.563" x2="216.382" y2="100.563" gradientUnits="userSpaceOnUse">
<stop stop-color="#0092C0"/>
<stop offset="0.9995" stop-color="#A5CD39"/>
</linearGradient>
<linearGradient id="paint21_linear_2_638" x1="148.03" y1="91.7581" x2="216.382" y2="91.7581" gradientUnits="userSpaceOnUse">
<stop stop-color="#0092C0"/>
<stop offset="0.9995" stop-color="#A5CD39"/>
</linearGradient>
<linearGradient id="paint22_linear_2_638" x1="249.19" y1="59.4767" x2="226.723" y2="88.2339" gradientUnits="userSpaceOnUse">
<stop stop-color="#0092C0"/>
<stop offset="0.9995" stop-color="#A5CD39"/>
</linearGradient>
<linearGradient id="paint23_linear_2_638" x1="191.667" y1="66.1099" x2="218.896" y2="88.16" gradientUnits="userSpaceOnUse">
<stop stop-color="#0092C0"/>
<stop offset="0.9995" stop-color="#A5CD39"/>
</linearGradient>
<linearGradient id="paint24_linear_2_638" x1="190.556" y1="67.4817" x2="217.785" y2="89.5318" gradientUnits="userSpaceOnUse">
<stop stop-color="#0092C0"/>
<stop offset="0.9995" stop-color="#A5CD39"/>
</linearGradient>
<linearGradient id="paint25_linear_2_638" x1="148.03" y1="88.1997" x2="216.382" y2="88.1997" gradientUnits="userSpaceOnUse">
<stop stop-color="#0092C0"/>
<stop offset="0.9995" stop-color="#A5CD39"/>
</linearGradient>
<linearGradient id="paint26_linear_2_638" x1="183.011" y1="76.7987" x2="210.241" y2="98.8488" gradientUnits="userSpaceOnUse">
<stop stop-color="#0092C0"/>
<stop offset="0.9995" stop-color="#A5CD39"/>
</linearGradient>
<linearGradient id="paint27_linear_2_638" x1="225.999" y1="89.4024" x2="250.486" y2="109.232" gradientUnits="userSpaceOnUse">
<stop stop-color="#0092C0"/>
<stop offset="0.9995" stop-color="#A5CD39"/>
</linearGradient>
<linearGradient id="paint28_linear_2_638" x1="258.687" y1="66.8964" x2="236.219" y2="95.6535" gradientUnits="userSpaceOnUse">
<stop stop-color="#0092C0"/>
<stop offset="0.9995" stop-color="#A5CD39"/>
</linearGradient>
<linearGradient id="paint29_linear_2_638" x1="237.321" y1="75.4206" x2="261.809" y2="95.2499" gradientUnits="userSpaceOnUse">
<stop stop-color="#0092C0"/>
<stop offset="0.9995" stop-color="#A5CD39"/>
</linearGradient>
<linearGradient id="paint30_linear_2_638" x1="157.074" y1="108.28" x2="120.231" y2="44.4658" gradientUnits="userSpaceOnUse">
<stop stop-color="#00A48B"/>
<stop offset="0.9995" stop-color="#A5CD39"/>
</linearGradient>
<linearGradient id="paint31_linear_2_638" x1="134.594" y1="79.4" x2="167.76" y2="52.5431" gradientUnits="userSpaceOnUse">
<stop stop-color="#0092C0"/>
<stop offset="0.9995" stop-color="#A5CD39"/>
</linearGradient>
<linearGradient id="paint32_linear_2_638" x1="143.058" y1="89.8523" x2="176.224" y2="62.9956" gradientUnits="userSpaceOnUse">
<stop stop-color="#0092C0"/>
<stop offset="0.9995" stop-color="#A5CD39"/>
</linearGradient>
<linearGradient id="paint33_linear_2_638" x1="148.03" y1="91.6733" x2="216.382" y2="91.6733" gradientUnits="userSpaceOnUse">
<stop stop-color="#0092C0"/>
<stop offset="0.9995" stop-color="#A5CD39"/>
</linearGradient>
<linearGradient id="paint34_linear_2_638" x1="154.694" y1="104.221" x2="187.859" y2="77.3639" gradientUnits="userSpaceOnUse">
<stop stop-color="#0092C0"/>
<stop offset="0.9995" stop-color="#A5CD39"/>
</linearGradient>
</defs>
</svg>
