<svg width="306" height="180" viewBox="0 0 306 180" fill="none" xmlns="http://www.w3.org/2000/svg">
<path d="M145.091 95.449C144.063 97.376 142.645 98.899 140.841 100.014C139.031 101.135 136.999 101.695 134.734 101.695C132.469 101.695 130.437 101.135 128.627 100.014C126.817 98.893 125.404 97.369 124.394 95.449C123.378 93.522 122.87 91.409 122.87 89.097C122.87 86.785 123.378 84.672 124.394 82.745C125.41 80.818 126.823 79.295 128.627 78.18C130.437 77.059 132.469 76.499 134.734 76.499C136.999 76.499 139.031 77.059 140.841 78.18C142.651 79.301 144.07 80.825 145.091 82.745C146.119 84.672 146.632 86.785 146.632 89.097C146.632 91.409 146.118 93.528 145.091 95.449ZM141.138 84.847C140.507 83.574 139.632 82.564 138.511 81.817C137.39 81.07 136.129 80.696 134.728 80.696C133.303 80.696 132.037 81.064 130.927 81.799C129.818 82.535 128.954 83.545 128.335 84.829C127.716 86.113 127.407 87.538 127.407 89.097C127.407 90.662 127.716 92.086 128.335 93.365C128.954 94.649 129.818 95.659 130.927 96.395C132.036 97.131 133.303 97.498 134.728 97.498C136.129 97.498 137.39 97.124 138.511 96.377C139.632 95.63 140.508 94.62 141.138 93.347C141.769 92.074 142.084 90.656 142.084 89.097C142.084 87.538 141.769 86.119 141.138 84.847Z" fill="white"/>
<path d="M164.695 84.3909C165.606 85.8039 166.061 87.7599 166.061 90.2529V99.6059C166.061 100.213 165.862 100.721 165.465 101.13C165.068 101.539 164.566 101.702 163.959 101.702C163.352 101.702 162.85 101.539 162.453 101.13C162.056 100.721 161.857 100.213 161.857 99.6059V90.2529C161.857 88.9689 161.588 87.9589 161.051 87.2229C160.514 86.4869 159.591 86.1199 158.284 86.1199C156.93 86.1199 155.867 86.5109 155.096 87.2929C154.325 88.0749 153.94 89.0619 153.94 90.2529V99.6059C153.94 100.213 153.742 100.721 153.345 101.13C152.948 101.539 152.446 101.702 151.839 101.702C151.232 101.702 150.73 101.539 150.333 101.13C149.936 100.721 149.737 100.213 149.737 99.6059V84.4089C149.737 83.8019 149.936 83.2939 150.333 82.8849C150.73 82.4759 151.232 82.2719 151.839 82.2719C152.446 82.2719 152.948 82.4759 153.345 82.8849C153.742 83.2939 153.94 83.8019 153.94 84.4089V85.3489C154.571 84.5079 155.394 83.7839 156.41 83.1769C157.426 82.5699 158.541 82.2659 159.755 82.2659C162.138 82.2719 163.785 82.9779 164.695 84.3909Z" fill="white"/>
<path d="M186.349 92.9149C185.929 93.2649 185.438 93.4399 184.878 93.4399H173.33C173.61 94.8179 174.252 95.8979 175.257 96.6799C176.262 97.4619 177.394 97.8529 178.655 97.8529C179.612 97.8529 180.36 97.7649 180.897 97.5899C181.434 97.4149 181.86 97.2279 182.176 97.0299C182.492 96.8319 182.707 96.6969 182.824 96.6269C183.244 96.4169 183.641 96.3119 184.015 96.3119C184.505 96.3119 184.926 96.4869 185.276 96.8369C185.626 97.1869 185.801 97.5959 185.801 98.0629C185.801 98.6939 185.474 99.2659 184.82 99.7789C184.166 100.316 183.29 100.771 182.193 101.145C181.096 101.519 179.986 101.705 178.865 101.705C176.903 101.705 175.193 101.296 173.739 100.479C172.279 99.6619 171.153 98.5349 170.359 97.0989C169.565 95.6629 169.168 94.0459 169.168 92.2529C169.168 90.2449 169.588 88.4869 170.429 86.9689C171.27 85.4509 172.379 84.2889 173.757 83.4839C175.135 82.6779 176.606 82.2749 178.165 82.2749C179.706 82.2749 181.16 82.6949 182.52 83.5359C183.886 84.3769 184.978 85.5089 185.789 86.9339C186.606 88.3589 187.015 89.8999 187.015 91.5519C186.991 92.1089 186.77 92.5649 186.349 92.9149ZM173.365 89.9379H182.537V89.6929C182.444 88.7119 181.965 87.8709 181.101 87.1709C180.237 86.4699 179.256 86.1199 178.159 86.1199C175.449 86.1249 173.85 87.3979 173.365 89.9379Z" fill="white"/>
<path d="M206 76.9179C206.397 77.2919 206.595 77.7819 206.595 78.3889C206.595 78.9959 206.396 79.4809 206 79.8429C205.604 80.2049 205.089 80.3859 204.459 80.3859H198.965V99.5529C198.965 100.16 198.743 100.668 198.299 101.077C197.855 101.486 197.307 101.69 196.653 101.69C195.999 101.69 195.462 101.486 195.042 101.077C194.622 100.668 194.411 100.16 194.411 99.5529V80.3859H188.917C188.286 80.3859 187.773 80.1989 187.376 79.8259C186.979 79.4519 186.781 78.9619 186.781 78.3549C186.781 77.7709 186.985 77.2919 187.394 76.9189C187.803 76.5449 188.311 76.3589 188.918 76.3589H204.459C205.09 76.3639 205.603 76.5509 206 76.9179Z" fill="white"/>
<path d="M221.892 97.0249C221.051 98.5079 219.901 99.6579 218.447 100.475C216.987 101.292 215.382 101.701 213.636 101.701C211.861 101.701 210.25 101.292 208.808 100.475C207.36 99.6579 206.216 98.5079 205.375 97.0249C204.534 95.5419 204.114 93.8719 204.114 92.0039C204.114 90.1359 204.534 88.4659 205.375 86.9829C206.216 85.4999 207.36 84.3439 208.808 83.5209C210.256 82.6919 211.867 82.2769 213.636 82.2769C215.387 82.2769 216.993 82.6919 218.447 83.5209C219.907 84.3499 221.057 85.5059 221.892 86.9829C222.733 88.4659 223.153 90.1409 223.153 92.0039C223.147 93.8719 222.733 95.5419 221.892 97.0249ZM218.231 88.9389C217.752 88.0399 217.11 87.3449 216.304 86.8549C215.498 86.3649 214.605 86.1189 213.624 86.1189C212.643 86.1189 211.75 86.3639 210.944 86.8549C210.138 87.3449 209.496 88.0399 209.017 88.9389C208.538 89.8379 208.299 90.8599 208.299 92.0039C208.299 93.1479 208.538 94.1639 209.017 95.0519C209.496 95.9389 210.138 96.6279 210.944 97.1189C211.75 97.6089 212.643 97.8549 213.624 97.8549C214.605 97.8549 215.498 97.6099 216.304 97.1189C217.11 96.6289 217.752 95.9399 218.231 95.0519C218.71 94.1649 218.949 93.1489 218.949 92.0039C218.95 90.8599 218.71 89.8379 218.231 88.9389Z" fill="white"/>
<path d="M241.637 82.891C242.034 83.3 242.232 83.808 242.232 84.415V93.651C242.232 96.173 241.537 98.141 240.148 99.565C238.759 100.99 236.779 101.702 234.216 101.702C231.647 101.702 229.68 100.99 228.302 99.565C226.924 98.14 226.235 96.167 226.235 93.651V84.409C226.235 83.802 226.433 83.294 226.83 82.885C227.227 82.476 227.729 82.272 228.336 82.272C228.943 82.272 229.445 82.476 229.842 82.885C230.239 83.294 230.437 83.802 230.437 84.409V93.651C230.437 95.076 230.752 96.132 231.383 96.821C232.014 97.51 232.959 97.854 234.22 97.854C235.504 97.854 236.462 97.51 237.092 96.821C237.722 96.132 238.038 95.075 238.038 93.651V84.409C238.038 83.802 238.237 83.294 238.633 82.885C239.03 82.476 239.532 82.272 240.139 82.272C240.738 82.278 241.24 82.482 241.637 82.891Z" fill="white"/>
<path d="M259.321 83.1999C260.535 83.8189 261.143 84.6419 261.143 85.6699C261.143 86.1839 260.991 86.6329 260.688 87.0189C260.384 87.4039 259.987 87.5969 259.497 87.5969C259.123 87.5969 258.82 87.5439 258.586 87.4389C258.352 87.3339 258.125 87.1939 257.903 87.0189C257.681 86.8439 257.465 86.6979 257.255 86.5809C257.021 86.4639 256.677 86.3589 256.222 86.2659C255.767 86.1729 255.399 86.1259 255.119 86.1259C253.368 86.1259 251.996 86.6689 251.009 87.7549C250.017 88.8409 249.52 90.2599 249.52 92.0049C249.52 93.6859 250.022 95.0819 251.026 96.1849C252.03 97.2939 253.315 97.8489 254.873 97.8489C256.017 97.8489 256.87 97.7089 257.43 97.4289C257.57 97.3589 257.763 97.2359 258.008 97.0609C258.253 96.8859 258.481 96.7519 258.691 96.6579C258.901 96.5639 259.158 96.5179 259.462 96.5179C260.046 96.5179 260.507 96.7049 260.846 97.0779C261.185 97.4509 261.354 97.9299 261.354 98.5139C261.354 99.0739 261.027 99.5999 260.373 100.09C259.719 100.58 258.855 100.972 257.781 101.263C256.707 101.555 255.562 101.701 254.354 101.701C252.556 101.701 250.974 101.281 249.613 100.44C248.247 99.5989 247.19 98.4369 246.443 96.9599C245.696 95.4769 245.322 93.8249 245.322 92.0089C245.322 90.1169 245.713 88.4359 246.495 86.9709C247.277 85.4999 248.369 84.3499 249.77 83.5209C251.171 82.6919 252.759 82.2769 254.528 82.2769C256.507 82.2719 258.106 82.5809 259.321 83.1999Z" fill="white"/>
<path d="M278.855 84.3909C279.742 85.8039 280.186 87.7599 280.186 90.2529V99.5529C280.186 100.16 279.988 100.668 279.591 101.077C279.194 101.486 278.692 101.69 278.085 101.69C277.478 101.69 276.976 101.486 276.579 101.077C276.182 100.668 275.984 100.16 275.984 99.5529V90.2529C275.984 88.9689 275.733 87.9589 275.231 87.2229C274.729 86.4869 273.847 86.1199 272.586 86.1199C271.278 86.1199 270.257 86.5109 269.521 87.2929C268.785 88.0749 268.418 89.0619 268.418 90.2529V99.5529C268.418 100.16 268.219 100.668 267.823 101.077C267.426 101.486 266.924 101.69 266.317 101.69C265.71 101.69 265.208 101.486 264.811 101.077C264.414 100.668 264.216 100.16 264.216 99.5529V78.4829C264.216 77.8759 264.414 77.3679 264.811 76.9589C265.208 76.5499 265.71 76.3459 266.317 76.3459C266.924 76.3459 267.426 76.5499 267.823 76.9589C268.22 77.3679 268.418 77.8759 268.418 78.4829V85.3199C269.049 84.4789 269.848 83.7609 270.817 83.1659C271.786 82.5709 272.866 82.2729 274.057 82.2729C276.368 82.2719 277.968 82.9779 278.855 84.3909Z" fill="white"/>
<path d="M72.446 98.817C71.43 99.664 71.29 101.176 72.137 102.191C72.984 103.207 74.496 103.347 75.511 102.5C79.51 99.166 81.81 94.274 81.81 89.072C81.81 79.439 73.975 71.604 64.342 71.604C54.709 71.604 46.875 79.44 46.875 89.073C46.875 94.392 49.257 99.36 53.402 102.693C54.435 103.522 55.942 103.359 56.771 102.325C57.6 101.291 57.437 99.785 56.403 98.956C47.12 91.495 52.38 76.391 64.337 76.391C76.189 76.393 81.519 91.269 72.446 98.817Z" fill="white"/>
<path d="M79.7319 110.517C86.3639 105.736 90.6789 97.924 90.6789 89.143C90.6789 87.818 89.6049 86.749 88.2849 86.749C86.9649 86.749 85.8909 87.823 85.8909 89.143C85.8909 96.365 82.3359 102.74 76.9289 106.634C75.8549 107.41 75.6149 108.905 76.3859 109.979C77.1639 111.048 78.6579 111.288 79.7319 110.517Z" fill="white"/>
<path d="M54.3479 55.65C53.0809 56.029 52.3569 57.361 52.7369 58.627C53.1159 59.894 54.4479 60.618 55.7139 60.238C74.9039 54.517 94.2049 68.96 94.2049 88.927C94.2049 90.252 95.2789 91.321 96.5989 91.321C97.9239 91.321 98.9929 90.247 98.9929 88.927C98.9979 65.797 76.6319 49.006 54.3479 55.65Z" fill="white"/>
<path d="M80.9758 68.716C63.8878 54.786 38.0068 66.941 38.0068 89.138C38.0068 103.663 49.8228 115.474 64.3428 115.474C65.6678 115.474 66.7368 114.4 66.7368 113.08C66.7368 111.755 65.6628 110.686 64.3428 110.686C52.4618 110.686 42.7938 101.018 42.7938 89.137C42.7938 70.951 63.9918 61.05 77.9458 72.428C78.9738 73.263 80.4798 73.111 81.3148 72.084C82.1548 71.057 81.9978 69.551 80.9758 68.716Z" fill="white"/>
<path d="M31.8711 86.925C30.5521 86.925 29.4771 87.999 29.4771 89.319C29.4771 108.544 45.1171 124.185 64.3431 124.185C72.5161 124.185 80.4681 121.295 86.7211 116.058C87.7371 115.206 87.8711 113.699 87.0191 112.684C86.1671 111.668 84.6601 111.534 83.6451 112.386C78.251 116.905 71.3961 119.398 64.3441 119.398C47.7641 119.398 34.2721 105.906 34.2721 89.326C34.2651 87.999 33.1961 86.925 31.8711 86.925Z" fill="white"/>
<path d="M127.716 109.402C128.136 109.834 128.352 110.394 128.352 111.089C128.352 111.544 128.259 111.959 128.066 112.327C127.873 112.695 127.605 112.987 127.254 113.197C126.903 113.407 126.501 113.506 126.045 113.506H123.383V117.061C123.383 117.125 123.354 117.184 123.301 117.23C123.248 117.277 123.19 117.306 123.126 117.306C123.05 117.306 122.992 117.283 122.945 117.23C122.898 117.183 122.869 117.125 122.869 117.061V108.998C122.869 108.934 122.892 108.875 122.945 108.829C122.992 108.782 123.05 108.753 123.114 108.753H126.045C126.735 108.76 127.29 108.976 127.716 109.402ZM127.349 112.479C127.676 112.117 127.839 111.656 127.839 111.095C127.839 110.534 127.676 110.085 127.354 109.752C127.033 109.419 126.595 109.25 126.04 109.25H123.378V113.021H126.04C126.584 113.022 127.022 112.841 127.349 112.479Z" fill="white"/>
<path d="M136.211 117.05C136.211 117.126 136.188 117.184 136.141 117.225C136.094 117.272 136.042 117.289 135.978 117.289C135.931 117.289 135.89 117.283 135.867 117.266C135.645 117.143 135.47 116.939 135.342 116.647C135.214 116.361 135.149 115.882 135.149 115.222C135.149 114.556 134.968 114.095 134.612 113.85C134.256 113.599 133.836 113.476 133.368 113.476H130.513V117.055C130.513 117.119 130.49 117.178 130.437 117.224C130.39 117.271 130.326 117.3 130.256 117.3C130.18 117.3 130.122 117.277 130.075 117.224C130.028 117.177 129.999 117.119 129.999 117.055V108.998C129.999 108.934 130.022 108.875 130.075 108.829C130.122 108.782 130.18 108.753 130.244 108.753H133.467C133.94 108.753 134.36 108.846 134.722 109.039C135.09 109.232 135.376 109.494 135.574 109.827C135.778 110.16 135.878 110.539 135.878 110.965C135.878 111.508 135.732 111.981 135.446 112.372C135.16 112.763 134.78 113.026 134.313 113.166C134.704 113.289 135.025 113.528 135.276 113.89C135.527 114.252 135.655 114.696 135.655 115.227C135.655 115.77 135.69 116.155 135.76 116.371C135.83 116.587 135.935 116.739 136.069 116.826C136.17 116.887 136.211 116.962 136.211 117.05ZM133.525 112.993C134.039 112.946 134.471 112.742 134.833 112.38C135.189 112.024 135.37 111.557 135.37 110.979C135.37 110.477 135.189 110.057 134.833 109.735C134.477 109.408 133.998 109.245 133.403 109.245H130.507V112.993H133.525V112.993Z" fill="white"/>
<path d="M143.001 116.892C143.048 116.939 143.077 116.997 143.077 117.061C143.077 117.137 143.054 117.195 143.001 117.236C142.954 117.283 142.896 117.306 142.832 117.306H138.226C138.162 117.306 138.103 117.283 138.057 117.23C138.01 117.183 137.981 117.125 137.981 117.061V108.998C137.981 108.934 138.004 108.875 138.057 108.829C138.104 108.782 138.162 108.753 138.226 108.753H142.832C142.896 108.753 142.955 108.776 143.001 108.829C143.048 108.876 143.077 108.934 143.077 108.998C143.077 109.074 143.054 109.132 143.001 109.173C142.954 109.22 142.896 109.243 142.832 109.243H138.494V112.653H142.277C142.341 112.653 142.4 112.676 142.446 112.729C142.493 112.776 142.522 112.834 142.522 112.898C142.522 112.974 142.499 113.032 142.446 113.073C142.399 113.12 142.341 113.143 142.277 113.143H138.494V116.821H142.832C142.896 116.817 142.954 116.84 143.001 116.892Z" fill="white"/>
<path d="M152.406 108.836C152.447 108.883 152.464 108.935 152.464 108.999V117.062C152.464 117.126 152.435 117.185 152.382 117.231C152.329 117.278 152.271 117.307 152.207 117.307C152.131 117.307 152.073 117.284 152.026 117.231C151.979 117.184 151.95 117.126 151.95 117.062V109.758L148.797 114.522C148.756 114.586 148.698 114.621 148.628 114.621C148.54 114.621 148.47 114.586 148.435 114.522L145.271 109.746V117.061C145.271 117.125 145.248 117.184 145.195 117.23C145.148 117.277 145.09 117.306 145.026 117.306C144.95 117.306 144.892 117.283 144.851 117.23C144.804 117.183 144.781 117.125 144.781 117.061V108.998C144.781 108.94 144.804 108.887 144.851 108.835C144.898 108.782 144.95 108.753 145.014 108.753C145.119 108.753 145.195 108.788 145.248 108.864L148.628 113.897L152.008 108.864C152.072 108.776 152.148 108.736 152.242 108.753C152.313 108.766 152.365 108.795 152.406 108.836Z" fill="white"/>
<path d="M155.214 117.231C155.167 117.278 155.109 117.307 155.045 117.307C154.963 117.307 154.899 117.284 154.858 117.231C154.811 117.184 154.788 117.12 154.788 117.05V109.017C154.788 108.941 154.811 108.883 154.864 108.836C154.911 108.789 154.975 108.76 155.045 108.76C155.121 108.76 155.179 108.783 155.226 108.836C155.273 108.883 155.302 108.947 155.302 109.017V117.05C155.29 117.12 155.267 117.184 155.214 117.231Z" fill="white"/>
<path d="M163.843 108.83C163.89 108.877 163.913 108.935 163.913 108.999V114.277C163.913 114.849 163.773 115.375 163.487 115.853C163.201 116.331 162.821 116.717 162.337 117.003C161.858 117.289 161.333 117.429 160.772 117.429C160.2 117.429 159.674 117.289 159.196 117.003C158.717 116.717 158.332 116.337 158.046 115.853C157.76 115.374 157.62 114.849 157.62 114.277V108.999C157.62 108.923 157.643 108.865 157.696 108.824C157.743 108.777 157.807 108.754 157.877 108.754C157.953 108.754 158.011 108.777 158.058 108.83C158.105 108.877 158.134 108.935 158.134 108.999V114.277C158.134 114.756 158.251 115.199 158.49 115.608C158.724 116.017 159.045 116.338 159.447 116.577C159.85 116.816 160.294 116.939 160.772 116.939C161.25 116.939 161.694 116.816 162.097 116.577C162.5 116.338 162.821 116.011 163.06 115.608C163.299 115.199 163.422 114.756 163.422 114.277V108.999C163.422 108.935 163.445 108.876 163.492 108.83C163.539 108.784 163.597 108.754 163.667 108.754C163.738 108.754 163.796 108.783 163.843 108.83Z" fill="white"/>
<path d="M173.85 108.836C173.891 108.883 173.908 108.935 173.908 108.999V117.062C173.908 117.126 173.879 117.185 173.826 117.231C173.773 117.278 173.715 117.307 173.651 117.307C173.575 117.307 173.517 117.284 173.47 117.231C173.423 117.184 173.394 117.126 173.394 117.062V109.758L170.241 114.522C170.2 114.586 170.142 114.621 170.072 114.621C169.984 114.621 169.914 114.586 169.879 114.522L166.715 109.746V117.061C166.715 117.125 166.692 117.184 166.639 117.23C166.592 117.277 166.534 117.306 166.47 117.306C166.394 117.306 166.336 117.283 166.295 117.23C166.248 117.183 166.225 117.125 166.225 117.061V108.998C166.225 108.94 166.248 108.887 166.295 108.835C166.342 108.782 166.394 108.753 166.458 108.753C166.563 108.753 166.639 108.788 166.692 108.864L170.072 113.897L173.452 108.864C173.516 108.776 173.592 108.736 173.686 108.753C173.756 108.766 173.809 108.795 173.85 108.836Z" fill="white"/>
<path d="M187.026 108.836C187.067 108.883 187.084 108.935 187.084 108.999V117.062C187.084 117.126 187.055 117.185 187.002 117.231C186.949 117.277 186.891 117.307 186.827 117.307C186.751 117.307 186.693 117.284 186.646 117.231C186.599 117.184 186.57 117.126 186.57 117.062V109.758L183.417 114.522C183.376 114.586 183.318 114.621 183.248 114.621C183.16 114.621 183.09 114.586 183.055 114.522L179.891 109.746V117.061C179.891 117.125 179.868 117.184 179.815 117.23C179.768 117.277 179.71 117.306 179.646 117.306C179.57 117.306 179.512 117.283 179.471 117.23C179.424 117.183 179.401 117.125 179.401 117.061V108.998C179.401 108.94 179.424 108.887 179.471 108.835C179.518 108.782 179.57 108.753 179.634 108.753C179.739 108.753 179.815 108.788 179.868 108.864L183.248 113.897L186.628 108.864C186.692 108.776 186.768 108.736 186.862 108.753C186.933 108.766 186.986 108.795 187.026 108.836Z" fill="white"/>
<path d="M196.438 115.316C196.094 115.982 195.609 116.501 194.99 116.875C194.371 117.243 193.665 117.43 192.877 117.43C192.089 117.43 191.382 117.243 190.764 116.875C190.145 116.507 189.661 115.988 189.316 115.316C188.972 114.65 188.796 113.886 188.796 113.033C188.796 112.181 188.971 111.416 189.316 110.75C189.66 110.084 190.145 109.565 190.764 109.191C191.383 108.823 192.089 108.636 192.877 108.636C193.665 108.636 194.372 108.823 194.99 109.191C195.609 109.559 196.093 110.078 196.438 110.75C196.782 111.416 196.958 112.18 196.958 113.033C196.957 113.886 196.782 114.651 196.438 115.316ZM195.994 110.99C195.69 110.395 195.27 109.933 194.727 109.612C194.184 109.285 193.571 109.122 192.876 109.122C192.181 109.122 191.568 109.285 191.025 109.612C190.482 109.939 190.062 110.4 189.758 110.99C189.454 111.585 189.308 112.263 189.308 113.028C189.308 113.793 189.46 114.476 189.758 115.066C190.062 115.661 190.482 116.123 191.025 116.444C191.568 116.771 192.181 116.934 192.876 116.934C193.571 116.934 194.184 116.771 194.727 116.444C195.27 116.117 195.69 115.656 195.994 115.066C196.298 114.471 196.444 113.793 196.444 113.028C196.443 112.269 196.292 111.586 195.994 110.99Z" fill="white"/>
<path d="M204.302 113.547C204.617 113.921 204.769 114.405 204.769 115.001C204.769 115.742 204.535 116.315 204.068 116.712C203.601 117.109 203.005 117.313 202.282 117.313H198.913C198.849 117.313 198.79 117.29 198.744 117.237C198.697 117.19 198.668 117.132 198.668 117.068V109C198.668 108.936 198.691 108.877 198.744 108.831C198.791 108.784 198.849 108.755 198.913 108.755H202.2C202.854 108.755 203.373 108.942 203.765 109.315C204.156 109.689 204.349 110.197 204.349 110.827C204.349 111.282 204.232 111.697 204.005 112.065C203.777 112.433 203.462 112.69 203.053 112.83C203.572 112.934 203.986 113.168 204.302 113.547ZM203.385 109.671C203.087 109.385 202.673 109.245 202.136 109.245H199.182V112.678H202.136C202.644 112.672 203.053 112.503 203.362 112.182C203.677 111.861 203.829 111.406 203.829 110.822C203.829 110.342 203.683 109.957 203.385 109.671ZM203.694 116.361C204.068 116.057 204.254 115.602 204.254 115.001C204.254 114.4 204.067 113.944 203.694 113.641C203.32 113.337 202.824 113.186 202.217 113.186H199.175V116.823H202.217C202.83 116.817 203.321 116.665 203.694 116.361Z" fill="white"/>
<path d="M206.905 117.231C206.858 117.278 206.8 117.307 206.736 117.307C206.654 117.307 206.59 117.284 206.549 117.231C206.502 117.184 206.479 117.12 206.479 117.05V109.017C206.479 108.941 206.502 108.883 206.555 108.836C206.602 108.789 206.666 108.76 206.736 108.76C206.812 108.76 206.87 108.783 206.917 108.836C206.964 108.883 206.993 108.947 206.993 109.017V117.05C206.987 117.12 206.958 117.184 206.905 117.231Z" fill="white"/>
<path d="M214.209 116.892C214.256 116.939 214.285 116.997 214.285 117.061C214.285 117.137 214.262 117.195 214.209 117.236C214.162 117.283 214.104 117.306 214.04 117.306H209.556C209.486 117.306 209.422 117.283 209.381 117.23C209.334 117.183 209.311 117.125 209.311 117.061V108.998C209.311 108.934 209.334 108.875 209.387 108.829C209.434 108.782 209.498 108.753 209.568 108.753C209.644 108.753 209.702 108.776 209.749 108.829C209.796 108.876 209.825 108.934 209.825 108.998V116.815H214.04C214.104 116.817 214.162 116.84 214.209 116.892Z" fill="white"/>
<path d="M220.584 116.892C220.631 116.939 220.654 116.997 220.654 117.061C220.654 117.137 220.631 117.195 220.584 117.236C220.537 117.283 220.479 117.306 220.415 117.306H215.809C215.745 117.306 215.686 117.283 215.64 117.23C215.593 117.183 215.564 117.125 215.564 117.061V108.998C215.564 108.934 215.587 108.875 215.64 108.829C215.687 108.782 215.745 108.753 215.809 108.753H220.415C220.479 108.753 220.538 108.776 220.584 108.829C220.631 108.876 220.654 108.934 220.654 108.998C220.654 109.074 220.631 109.132 220.584 109.173C220.537 109.22 220.479 109.243 220.415 109.243H216.077V112.653H219.86C219.924 112.653 219.983 112.676 220.029 112.729C220.076 112.776 220.105 112.834 220.105 112.898C220.105 112.974 220.082 113.032 220.029 113.073C219.982 113.12 219.924 113.143 219.86 113.143H216.077V116.821H220.415C220.479 116.817 220.538 116.84 220.584 116.892Z" fill="white"/>
<path d="M231.934 113.168C231.981 113.215 232.004 113.273 232.004 113.337V116.402C232.004 116.501 231.969 116.571 231.893 116.624C231.519 116.875 231.111 117.074 230.667 117.214C230.223 117.354 229.774 117.43 229.318 117.43C228.477 117.43 227.73 117.243 227.064 116.864C226.398 116.485 225.879 115.965 225.499 115.294C225.12 114.628 224.933 113.875 224.933 113.035C224.933 112.194 225.12 111.441 225.499 110.776C225.878 110.11 226.398 109.585 227.064 109.206C227.73 108.827 228.477 108.64 229.318 108.64C229.773 108.64 230.205 108.693 230.62 108.803C231.029 108.914 231.402 109.077 231.723 109.299C231.799 109.346 231.834 109.416 231.834 109.509C231.834 109.585 231.805 109.643 231.752 109.684C231.699 109.731 231.647 109.748 231.6 109.748C231.559 109.748 231.507 109.73 231.442 109.701C230.759 109.316 230.053 109.129 229.317 109.129C228.57 109.129 227.898 109.298 227.314 109.631C226.73 109.964 226.269 110.431 225.942 111.026C225.609 111.621 225.446 112.293 225.446 113.04C225.446 113.787 225.609 114.459 225.942 115.054C226.275 115.649 226.73 116.111 227.314 116.443C227.898 116.776 228.569 116.945 229.317 116.945C229.691 116.945 230.07 116.887 230.455 116.77C230.84 116.653 231.196 116.496 231.512 116.297V113.588H229.317C229.253 113.588 229.194 113.565 229.148 113.512C229.101 113.465 229.078 113.407 229.078 113.343C229.078 113.267 229.101 113.209 229.148 113.168C229.195 113.121 229.253 113.098 229.317 113.098H231.757C231.834 113.092 231.893 113.115 231.934 113.168Z" fill="white"/>
<path d="M240.171 117.073C240.171 117.149 240.148 117.201 240.095 117.242C240.048 117.283 239.984 117.3 239.914 117.3C239.856 117.3 239.809 117.288 239.762 117.259C239.715 117.23 239.686 117.195 239.669 117.142L238.641 114.626L238.653 114.649H234.56L233.567 117.142C233.526 117.247 233.45 117.3 233.345 117.3C233.269 117.3 233.211 117.282 233.17 117.242C233.123 117.201 233.1 117.154 233.088 117.096C233.082 117.061 233.082 117.02 233.1 116.973L236.387 108.887C236.41 108.823 236.44 108.782 236.48 108.759C236.515 108.741 236.562 108.73 236.62 108.73C236.743 108.73 236.824 108.783 236.865 108.888L240.152 116.974C240.171 117.003 240.171 117.033 240.171 117.073ZM234.765 114.166H238.466L236.598 109.56L234.765 114.166Z" fill="white"/>
<path d="M249.32 108.836C249.361 108.883 249.378 108.935 249.378 108.999V117.062C249.378 117.126 249.349 117.185 249.296 117.231C249.243 117.278 249.185 117.307 249.121 117.307C249.045 117.307 248.987 117.284 248.94 117.231C248.893 117.184 248.864 117.126 248.864 117.062V109.758L245.711 114.522C245.67 114.586 245.612 114.621 245.542 114.621C245.454 114.621 245.384 114.586 245.349 114.522L242.185 109.746V117.061C242.185 117.125 242.162 117.184 242.115 117.23C242.068 117.277 242.01 117.306 241.946 117.306C241.876 117.306 241.812 117.283 241.771 117.23C241.724 117.183 241.701 117.125 241.701 117.061V108.998C241.701 108.94 241.724 108.887 241.771 108.835C241.818 108.782 241.87 108.753 241.934 108.753C242.039 108.753 242.115 108.788 242.168 108.864L245.548 113.897L248.928 108.864C248.992 108.776 249.068 108.736 249.162 108.753C249.226 108.766 249.279 108.795 249.32 108.836Z" fill="white"/>
<path d="M256.723 116.892C256.77 116.939 256.793 116.997 256.793 117.061C256.793 117.137 256.77 117.195 256.723 117.236C256.676 117.283 256.618 117.306 256.554 117.306H251.948C251.884 117.306 251.825 117.283 251.779 117.23C251.732 117.183 251.703 117.125 251.703 117.061V108.998C251.703 108.934 251.726 108.875 251.779 108.829C251.826 108.782 251.884 108.753 251.948 108.753H256.554C256.618 108.753 256.677 108.776 256.723 108.829C256.77 108.876 256.793 108.934 256.793 108.998C256.793 109.074 256.77 109.132 256.723 109.173C256.676 109.22 256.618 109.243 256.554 109.243H252.216V112.653H255.999C256.063 112.653 256.122 112.676 256.168 112.729C256.215 112.776 256.244 112.834 256.244 112.898C256.244 112.974 256.221 113.032 256.168 113.073C256.121 113.12 256.063 113.143 255.999 113.143H252.216V116.821H256.554C256.617 116.817 256.67 116.84 256.723 116.892Z" fill="white"/>
<path d="M259.116 117.114C258.666 116.904 258.223 116.583 257.785 116.145C257.738 116.098 257.709 116.034 257.709 115.964C257.709 115.9 257.738 115.836 257.797 115.777C257.855 115.719 257.914 115.684 257.978 115.684C258.054 115.684 258.118 115.719 258.182 115.795C258.497 116.169 258.877 116.455 259.315 116.647C259.753 116.839 260.208 116.939 260.687 116.939C261.312 116.939 261.831 116.787 262.24 116.489C262.649 116.185 262.853 115.788 262.853 115.292C262.847 114.901 262.736 114.58 262.538 114.329C262.334 114.078 262.083 113.874 261.785 113.722C261.487 113.57 261.084 113.401 260.571 113.214C260.011 113.004 259.573 112.817 259.257 112.654C258.941 112.491 258.673 112.257 258.451 111.959C258.229 111.655 258.118 111.264 258.118 110.774C258.118 110.377 258.229 110.015 258.445 109.688C258.667 109.361 258.976 109.104 259.385 108.917C259.794 108.73 260.267 108.637 260.804 108.637C261.283 108.637 261.738 108.725 262.17 108.9C262.602 109.075 262.941 109.32 263.197 109.641C263.279 109.758 263.32 109.84 263.32 109.898C263.32 109.962 263.291 110.021 263.227 110.073C263.169 110.126 263.099 110.155 263.028 110.155C262.964 110.155 262.911 110.132 262.87 110.079C262.642 109.787 262.35 109.554 261.988 109.384C261.632 109.215 261.235 109.127 260.803 109.127C260.184 109.127 259.67 109.273 259.256 109.565C258.847 109.857 258.637 110.26 258.637 110.762C258.637 111.112 258.736 111.41 258.935 111.655C259.133 111.9 259.385 112.099 259.688 112.245C259.992 112.397 260.365 112.554 260.809 112.718C261.381 112.922 261.831 113.109 262.163 113.278C262.496 113.447 262.782 113.698 263.021 114.025C263.255 114.352 263.377 114.784 263.377 115.321C263.377 115.695 263.266 116.045 263.044 116.372C262.822 116.699 262.507 116.956 262.098 117.148C261.689 117.341 261.216 117.434 260.685 117.434C260.085 117.43 259.56 117.324 259.116 117.114Z" fill="white"/>
</svg>
