<svg width="306" height="180" viewBox="0 0 306 180" fill="none" xmlns="http://www.w3.org/2000/svg">
<g clip-path="url(#clip0_7_3524)">
<path fill-rule="evenodd" clip-rule="evenodd" d="M29.8421 67H65.9287V112H29.8421V67ZM38.5823 105.168V75.146H47.455C50.5671 75.146 53.017 75.8029 54.7385 77.1825C56.4601 78.562 57.3871 80.5985 57.3871 83.292C57.3871 84.6058 57.056 85.9197 56.4601 87.1022C55.798 88.219 54.8048 89.073 53.6129 89.5985C55.0696 89.8613 56.3939 90.781 57.1222 92.0292C57.9168 93.3431 58.3141 94.854 58.2479 96.365C58.2479 99.2555 57.4533 101.423 55.798 102.869C54.1426 104.314 51.7589 105.102 48.7131 105.102L38.5823 105.168ZM44.0781 91.8978V100.504H48.2496C49.309 100.569 50.3022 100.175 51.0306 99.4526C51.6927 98.5985 52.0238 97.4818 51.9576 96.365C52.0238 95.2482 51.7589 94.0657 51.163 93.0803C50.5671 92.292 49.6401 91.8321 48.6469 91.8978H44.0781ZM44.0781 87.8248H47.3226C48.382 87.8905 49.3752 87.4964 50.1036 86.7737C50.7657 85.9854 51.163 84.9343 51.0306 83.8832C51.0968 82.7664 50.7657 81.6496 50.0374 80.7956C49.2428 80.073 48.1171 79.7445 47.0577 79.8102H44.0781C44.0781 79.8759 44.0781 87.8248 44.0781 87.8248Z" fill="#FFCC29"/>
<path d="M102.677 111.934H100.559V67H102.677V111.934Z" fill="white"/>
<path d="M139.492 111.934H137.374V67H139.492V111.934Z" fill="white"/>
<path d="M176.241 111.934H174.122V67H176.241V111.934Z" fill="white"/>
<path d="M213.056 111.934H211.003V67H213.056V111.934Z" fill="white"/>
<path d="M249.937 111.934H247.818V67H249.937V111.934Z" fill="white"/>
<path d="M92.4805 100.175C91.6859 101.555 90.4941 102.672 89.1036 103.46C87.3158 104.511 85.1969 104.971 83.1443 104.905C79.966 104.905 77.3837 103.92 75.4635 102.015C73.5433 100.109 72.5501 97.416 72.5501 93.8686V85C72.5501 81.5182 73.4771 78.8248 75.3311 76.9197C77.1851 75.0146 79.635 74.0292 82.6808 74.0949C85.7929 74.0949 88.1104 74.8832 89.7657 76.3942C91.4211 77.9051 92.2818 80.073 92.4143 82.8978L92.3481 83.0292H88.3752C88.309 81.1241 87.8455 79.6788 86.9185 78.7591C85.9915 77.8394 84.601 77.3139 82.8132 77.3139C81.1579 77.2482 79.5026 77.9708 78.4431 79.2847C77.3837 80.5985 76.854 82.5036 76.854 85V93.9343C76.854 96.4963 77.4499 98.4671 78.5756 99.781C79.7012 101.095 81.4228 101.883 83.2105 101.818C84.4024 101.883 85.528 101.62 86.5874 101.095C87.3158 100.635 87.9779 99.9781 88.3752 99.2555V92.3577H83.2105V89.3358H92.6129V100.175H92.4805Z" fill="white"/>
<path d="M115.92 94.197H123.601L119.893 81.0583H119.761L115.92 94.197ZM124.594 97.4817H114.993L112.808 105.036H108.504L117.774 75.0802H121.879L131.083 105.036H126.779L124.594 97.4817Z" fill="white"/>
<path d="M149.689 75.0802L156.774 99.5182H156.907L163.992 75.0802H169.421V105.036H165.25V93.5401L165.581 82.0437L165.448 81.978L158.231 105.036H155.45L148.166 82.0437H148.1L148.431 93.5401V105.036H144.26V75.0802H149.689Z" fill="white"/>
<path d="M195.576 105.036H191.404V75.0802H195.576V105.036Z" fill="white"/>
<path d="M240.932 105.036H236.694L225.239 82.7663H225.107V105.036H220.935V75.0802H225.107L236.562 97.2846H236.694V75.0802H240.932V105.036Z" fill="white"/>
<path d="M276.158 100.372C275.297 101.752 274.171 102.869 272.781 103.657C270.993 104.708 268.874 105.168 266.822 105.102C263.643 105.102 261.127 104.182 259.141 102.277C257.221 100.372 256.228 97.6788 256.228 94.1313V85.1313C256.228 81.6496 257.155 78.9561 259.009 77.051C260.862 75.1459 263.312 74.1605 266.292 74.1605C269.404 74.1605 271.722 74.9488 273.377 76.4598C275.032 77.9707 275.893 80.1386 276.025 82.9634L275.959 83.0948H271.986C271.92 81.1897 271.457 79.8102 270.53 78.8248C269.603 77.8394 268.212 77.3795 266.424 77.3795C264.769 77.3138 263.114 78.0364 262.054 79.3503C260.995 80.6642 260.465 82.5693 260.465 85.0656V93.9999C260.465 96.562 261.061 98.5328 262.187 99.8467C263.312 101.161 265.034 101.949 266.822 101.883C268.014 101.949 269.139 101.686 270.199 101.161C270.927 100.701 271.589 100.044 271.986 99.3211V92.489H266.822V89.4671H276.158V100.372Z" fill="white"/>
</g>
<defs>
<clipPath id="clip0_7_3524">
<rect width="306" height="180" fill="white"/>
</clipPath>
</defs>
</svg>
