<svg width="306" height="180" viewBox="0 0 306 180" fill="none" xmlns="http://www.w3.org/2000/svg">
<path d="M230.179 133.109C229.799 132.95 229.39 132.976 228.997 132.946C225.157 132.652 221.457 131.774 217.895 130.316C213.155 128.375 208.99 125.572 205.435 121.889C200.337 116.609 197.062 110.364 195.64 103.157C195.209 100.972 194.999 98.766 194.97 96.5378C194.889 90.2262 196.268 84.2533 199.285 78.7134C204.361 69.3899 212.05 63.2716 222.265 60.3532C224.39 59.7462 226.564 59.3936 228.768 59.1993C230.739 59.0244 232.711 58.9948 234.682 59.1484C242.893 59.7878 250.142 62.7664 256.36 68.1768C261.569 72.7099 265.231 78.2831 267.348 84.8621C268.15 87.3559 268.641 89.9135 268.882 92.5192C268.914 92.8588 268.903 93.203 268.914 93.5444C268.916 93.6194 268.907 93.7017 269 93.7387C269 95.2933 269 96.8487 269 98.4033C268.869 98.4681 268.914 98.5921 268.914 98.6911C268.91 99.6728 268.779 100.642 268.642 101.611C268.1 105.443 266.943 109.083 265.218 112.542C262.947 117.093 259.877 121.025 255.997 124.317C251.799 127.88 247.037 130.377 241.716 131.805C239.718 132.341 237.686 132.695 235.628 132.896C234.654 132.992 233.676 133.04 232.7 133.109C231.858 133.109 231.019 133.109 230.179 133.109ZM232.028 62.9774C213.568 63.0338 199.028 77.8954 198.894 95.7828C198.757 114.314 213.773 128.959 231.657 129.135C250.303 129.318 265.179 114.047 265.127 95.9678C265.077 78.3155 250.735 63.0477 232.028 62.9774Z" fill="#F19224"/>
<path d="M37.6679 87.5822C37.976 87.4203 38.3092 87.4795 38.6349 87.4786C40.6872 87.4767 42.7396 87.4795 44.791 87.4767C45.8246 87.4749 46.8369 87.6081 47.8113 87.9607C49.6804 88.6362 50.8537 89.9353 51.3025 91.8785C51.5644 93.0157 51.5838 94.1529 51.3118 95.2938C50.8399 97.2712 49.6249 98.5676 47.7197 99.2366C46.8314 99.5485 45.9107 99.6826 44.9742 99.6974C43.8861 99.715 42.7979 99.7085 41.7097 99.7122C41.632 99.7122 41.5543 99.7085 41.4765 99.7095C41.037 99.715 41.0259 99.7252 41.013 100.144C41.0111 100.206 41.012 100.268 41.012 100.331C41.012 102.522 41.012 104.715 41.013 106.906C41.013 107.403 40.975 107.449 40.4948 107.452C39.749 107.455 39.0013 107.435 38.2564 107.466C38.0121 107.476 37.8733 107.3 37.667 107.267C37.6679 100.705 37.6679 94.1437 37.6679 87.5822ZM41.0204 93.5783C41.0204 94.573 41.0194 95.5687 41.0204 96.5634C41.0204 97.0186 41.0259 97.0214 41.4941 97.027C41.8985 97.0316 42.3019 97.0418 42.7063 97.0408C43.6853 97.0381 44.668 97.0917 45.6368 96.9067C46.8323 96.6781 47.6716 96.0202 48.026 94.8228C48.2471 94.0752 48.2194 93.3164 48.062 92.5623C47.827 91.4371 47.1247 90.7329 46.0402 90.4017C45.6534 90.2832 45.2537 90.2259 44.8493 90.1898C43.7306 90.0908 42.611 90.1796 41.4923 90.1648C41.0389 90.1592 41.0231 90.1814 41.0213 90.6404C41.0185 91.6194 41.0204 92.5993 41.0204 93.5783Z" fill="white"/>
<path d="M198.316 43.4216C204.727 43.925 209.577 47.0507 213.158 52.3917C213.214 52.1927 213.158 52.0696 213.135 51.9429C212.645 49.302 212.163 46.6602 211.776 44.0008C211.439 41.694 211.168 39.3816 210.984 37.0591C210.765 34.2989 210.709 31.5331 210.797 28.7654C210.813 28.2288 210.86 27.693 210.896 27.1221C211.164 27.1998 211.282 27.3839 211.411 27.5496C213.103 29.725 214.633 32.0087 216.026 34.3849C218.677 38.9097 220.97 43.6122 222.997 48.447C223.115 48.7283 223.204 49.0253 223.432 49.3233C223.532 49.1049 223.493 48.9236 223.495 48.7524C223.512 47.1016 223.638 45.4638 224.013 43.8509C224.97 39.7416 227.063 36.3401 230.338 33.6724C230.442 33.5873 230.531 33.4624 230.696 33.4809C230.792 33.5928 230.698 33.6854 230.658 33.777C229.629 36.1227 228.92 38.5627 228.537 41.0935C228.206 43.2828 228.136 45.4841 228.275 47.6947C228.429 50.1376 228.851 52.5342 229.444 54.9039C229.462 54.9779 229.477 55.0529 229.502 55.1695C229.028 55.2093 228.573 55.2518 228.117 55.2861C224.293 55.5711 220.603 56.4298 217.047 57.8594C215.285 58.5672 213.591 59.4121 211.959 60.3818C211.491 60.6603 211.457 60.6455 211.282 60.144C209.473 55.0075 206.635 50.5401 202.626 46.8342C201.413 45.7127 200.09 44.7328 198.685 43.8611C198.567 43.788 198.45 43.7112 198.337 43.6289C198.304 43.6048 198.287 43.5576 198.263 43.5215C198.282 43.4882 198.299 43.4549 198.316 43.4216Z" fill="#F19224"/>
<path d="M120.36 103.252C120.516 103.092 120.585 102.921 120.655 102.748C122.637 97.8759 124.623 93.0059 126.6 88.1322C126.701 87.8824 126.828 87.764 127.111 87.7677C128.137 87.7797 129.164 87.7658 130.19 87.7686C130.595 87.7695 130.681 87.8602 130.697 88.2581C130.7 88.3201 130.698 88.3821 130.698 88.445C130.696 94.6012 130.693 100.756 130.69 106.913C130.69 107.405 130.649 107.45 130.166 107.453C129.42 107.457 128.673 107.457 127.927 107.453C127.438 107.45 127.407 107.408 127.407 106.916C127.409 102.47 127.409 98.0249 127.408 93.5787C127.408 93.488 127.43 93.3918 127.361 93.2946C127.158 93.2955 127.15 93.4778 127.1 93.6055C126.594 94.9065 126.092 96.2103 125.59 97.5122C124.367 100.682 123.144 103.853 121.922 107.022C121.78 107.39 121.698 107.45 121.302 107.453C120.712 107.457 120.12 107.451 119.53 107.456C118.987 107.46 118.855 107.382 118.659 106.874C118.222 105.746 117.792 104.614 117.355 103.486C116.086 100.218 114.815 96.9496 113.544 93.6814C113.483 93.5241 113.44 93.3575 113.313 93.1901C113.196 93.3455 113.226 93.5111 113.226 93.6675C113.226 97.9888 113.227 102.311 113.227 106.632C113.227 106.802 113.214 106.974 113.205 107.144C113.195 107.353 113.082 107.45 112.875 107.446C112.797 107.445 112.72 107.452 112.642 107.452C111.911 107.454 111.181 107.457 110.45 107.454C110.024 107.452 109.969 107.39 109.97 106.964C109.97 101.663 109.972 96.363 109.973 91.0618C109.973 90.1448 109.969 89.2278 109.967 88.3108C109.967 88.2331 109.974 88.1554 109.973 88.0786C109.969 87.838 110.084 87.7584 110.321 87.7686C110.709 87.7853 111.098 87.7732 111.487 87.7732C112.125 87.7723 112.762 87.7704 113.4 87.7677C113.859 87.7658 113.895 87.7871 114.063 88.1924C115.069 90.614 116.074 93.0355 117.08 95.4571C118.098 97.9073 119.115 100.358 120.134 102.807C120.19 102.948 120.225 103.1 120.36 103.252Z" fill="white"/>
<path d="M102.925 96.5764C104.372 96.5764 105.818 96.5764 107.264 96.5764C107.388 96.5764 107.513 96.5755 107.637 96.5857C107.81 96.6005 107.932 96.6754 107.934 96.8735C107.949 98.4419 108.023 100.011 107.513 101.536C106.848 103.527 105.555 105.002 103.829 106.138C101.818 107.462 99.609 107.877 97.2411 107.574C96.1732 107.437 95.1304 107.199 94.144 106.764C91.7086 105.692 90.1679 103.802 89.2685 101.347C88.7753 100 88.6532 98.5936 88.667 97.1733C88.6828 95.6021 88.9669 94.0781 89.6516 92.6568C91.1543 89.5403 93.6369 87.772 97.0773 87.3797C98.8752 87.1742 100.646 87.3019 102.355 87.9506C104.906 88.9185 106.576 90.721 107.412 93.3082C107.417 93.323 107.425 93.3369 107.43 93.3517C107.576 93.8504 107.546 93.8902 107.043 93.8717C106.266 93.843 105.488 93.8393 104.712 93.8782C104.325 93.8976 104.099 93.7736 103.912 93.4081C103.2 92.0109 102.081 91.0837 100.567 90.6396C99.2203 90.2454 97.8684 90.1963 96.5249 90.609C94.5863 91.204 93.2354 92.4726 92.546 94.3695C91.7697 96.5033 91.7687 98.663 92.6098 100.791C93.5268 103.111 95.2933 104.326 97.7232 104.651C99.1426 104.84 100.506 104.691 101.8 104.026C103.685 103.058 104.716 101.482 105.125 99.4505C105.201 99.0748 105.141 99.0109 104.766 98.985C104.611 98.9749 104.455 98.9776 104.299 98.9776C102.341 98.9804 100.381 98.9832 98.4218 98.986C98.3755 98.986 98.3283 98.986 98.2821 98.9832C97.8842 98.9628 97.8758 98.9554 97.8731 98.5474C97.8694 98.0495 97.8675 97.5526 97.8675 97.0548C97.8675 96.6282 97.9129 96.5783 98.3542 96.5773C99.8773 96.5746 101.401 96.5764 102.925 96.5764Z" fill="white"/>
<path d="M68.4236 107.452C67.2567 107.452 66.1843 107.446 65.1128 107.456C64.7963 107.458 64.6427 107.276 64.4965 107.041C63.7674 105.867 63.0327 104.695 62.3007 103.523C61.5438 102.311 60.7832 101.102 60.0346 99.8838C59.8718 99.6192 59.6784 99.4813 59.3573 99.4952C58.8918 99.5146 58.4246 99.498 57.9582 99.5063C57.5649 99.5137 57.5353 99.5396 57.5316 99.9393C57.5251 100.842 57.5298 101.743 57.5298 102.645C57.5298 104.06 57.5307 105.475 57.5288 106.889C57.5279 107.403 57.4798 107.45 56.97 107.452C56.2232 107.455 55.4774 107.456 54.7307 107.451C54.3152 107.448 54.2736 107.408 54.2717 107C54.2671 105.989 54.2699 104.979 54.2699 103.967C54.2699 98.6809 54.2699 93.3945 54.2699 88.1082C54.2699 87.4669 54.2708 87.4753 54.9 87.4762C57.1088 87.4799 59.3166 87.4762 61.5253 87.479C62.7171 87.4808 63.883 87.6446 64.9768 88.1415C66.9829 89.0529 68.0423 90.6537 68.2653 92.8153C68.3662 93.7952 68.2959 94.7714 67.9628 95.7134C67.3891 97.3364 66.2389 98.3718 64.651 98.9539C64.3318 99.0714 63.9987 99.1528 63.6684 99.2389C63.2427 99.349 63.2251 99.3767 63.462 99.745C64.8407 101.887 66.2213 104.028 67.601 106.17C67.8601 106.571 68.1164 106.974 68.4236 107.452ZM57.5298 93.7406C57.5298 94.7353 57.527 95.7291 57.5316 96.7238C57.5335 97.0949 57.5779 97.1541 57.9156 97.1541C59.2981 97.1532 60.6814 97.2244 62.062 97.093C63.5767 96.9496 64.5789 96.077 64.874 94.6141C65.0267 93.8572 64.9869 93.1003 64.7343 92.3628C64.4512 91.5365 63.9108 90.9489 63.1011 90.6204C62.595 90.415 62.0685 90.2873 61.517 90.2864C60.3668 90.2845 59.2166 90.2799 58.0674 90.279C57.5723 90.279 57.5325 90.3169 57.5316 90.8036C57.527 91.7826 57.5298 92.7616 57.5298 93.7406Z" fill="white"/>
<path d="M191.747 100.705C190.676 104.454 188.291 106.693 184.538 107.449C182.474 107.864 180.458 107.683 178.5 106.899C176.254 106.001 174.613 104.462 173.703 102.216C172.523 99.3023 172.357 96.3376 173.449 93.3506C173.749 92.5308 174.151 91.7609 174.649 91.0429C175.66 89.5809 176.985 88.5103 178.668 87.9246C180.994 87.114 183.354 87.0224 185.718 87.7543C188.764 88.6991 190.662 90.7875 191.626 93.7818C191.645 93.8411 191.653 93.9031 191.672 93.9623C191.733 94.1529 191.65 94.2223 191.467 94.2112C191.436 94.2093 191.405 94.2112 191.373 94.2112C190.456 94.2112 189.538 94.2056 188.621 94.2149C188.39 94.2167 188.254 94.1455 188.155 93.9253C188.016 93.6153 187.852 93.3118 187.665 93.0268C186.671 91.5074 185.247 90.6589 183.469 90.373C182.453 90.2092 181.456 90.2814 180.471 90.5682C179.029 90.9883 177.916 91.8442 177.201 93.1619C175.707 95.9147 175.654 98.7166 177.087 101.503C178.107 103.486 179.805 104.46 182.016 104.566C182.767 104.602 183.508 104.529 184.234 104.339C185.817 103.924 187.01 102.992 187.836 101.584C187.953 101.383 188.061 101.177 188.172 100.972C188.259 100.808 188.387 100.706 188.578 100.706C189.616 100.704 190.654 100.705 191.747 100.705Z" fill="white"/>
<path d="M69.7655 107.452C69.7322 107.28 69.7886 107.184 69.8266 107.083C72.1787 100.793 74.5309 94.5014 76.884 88.2111C77.0496 87.7688 77.0561 87.7706 77.5197 87.7716C78.4524 87.7725 79.3851 87.7716 80.3178 87.7725C80.7888 87.7734 80.7888 87.7743 80.9517 88.212C83.2317 94.3312 85.5107 100.45 87.7907 106.569C87.8666 106.773 87.9517 106.973 88.0147 107.18C88.0628 107.341 88.0128 107.453 87.8148 107.452C86.8506 107.45 85.8874 107.45 84.9232 107.451C84.6761 107.451 84.5734 107.296 84.5012 107.089C84.2912 106.489 84.0756 105.891 83.8618 105.293C83.6795 104.781 83.4963 104.27 83.3122 103.759C83.0883 103.137 83.0883 103.134 82.4128 103.131C81.6818 103.127 80.9517 103.13 80.2207 103.13C78.6819 103.13 77.1431 103.13 75.6033 103.13C75.4941 103.13 75.3859 103.128 75.2767 103.131C74.7067 103.144 74.7002 103.145 74.5115 103.676C74.1432 104.713 73.7768 105.752 73.4159 106.792C73.2021 107.408 73.1429 107.453 72.4785 107.452C71.5773 107.452 70.676 107.452 69.7655 107.452ZM75.644 100.549C77.8389 100.549 79.9764 100.549 82.1565 100.549C81.0803 97.5161 80.0236 94.5162 78.9465 91.5228C78.9123 91.5256 78.878 91.5293 78.8438 91.5321C77.7834 94.5209 76.723 97.5096 75.644 100.549Z" fill="white"/>
<path d="M151.318 107.41C151.131 107.489 150.943 107.449 150.759 107.45C149.981 107.455 149.204 107.454 148.427 107.452C147.979 107.451 147.934 107.421 147.785 107.001C147.411 105.949 147.042 104.894 146.672 103.841C146.636 103.739 146.596 103.638 146.566 103.533C146.486 103.257 146.311 103.133 146.018 103.137C145.335 103.145 144.651 103.132 143.966 103.132C142.225 103.13 140.484 103.133 138.743 103.129C138.078 103.127 138 103.179 137.777 103.824C137.42 104.849 137.059 105.873 136.699 106.899C136.536 107.365 136.417 107.451 135.916 107.453C135.123 107.456 134.33 107.455 133.538 107.453C133.062 107.452 133.025 107.397 133.195 106.942C133.733 105.503 134.271 104.065 134.811 102.627C136.58 97.9063 138.349 93.1853 140.118 88.4634C140.151 88.3764 140.191 88.2913 140.215 88.2016C140.301 87.8814 140.504 87.7611 140.835 87.7685C141.487 87.7852 142.14 87.7741 142.794 87.7731C143.027 87.7731 143.26 87.7676 143.493 87.7676C144.004 87.7667 144.138 87.8536 144.322 88.3404C144.607 89.0945 144.884 89.8533 145.165 90.6092C147.135 95.9012 149.107 101.192 151.075 106.485C151.184 106.782 151.393 107.06 151.318 107.41ZM142.274 91.5198C142.24 91.5198 142.206 91.5188 142.172 91.5188C141.104 94.5215 140.037 97.5232 138.955 100.566C141.152 100.566 143.29 100.566 145.482 100.566C144.404 97.5251 143.339 94.5224 142.274 91.5198Z" fill="white"/>
<path d="M156.362 98.756C156.362 96.0356 156.362 93.3161 156.362 90.5956C156.362 90.1681 156.317 90.1098 155.885 90.108C154.921 90.1043 153.957 90.1126 152.993 90.1135C152.418 90.1144 151.843 90.1135 151.267 90.1107C150.902 90.1089 150.849 90.0654 150.846 89.7203C150.843 89.0827 150.855 88.4461 150.849 87.8085C150.847 87.5726 150.934 87.4578 151.178 87.4764C151.27 87.4838 151.365 87.4773 151.457 87.4773C155.888 87.4754 160.319 87.4745 164.749 87.4727C165.158 87.4727 165.222 87.5235 165.228 87.9159C165.236 88.4905 165.234 89.0661 165.229 89.6407C165.225 90.0219 165.144 90.1163 164.761 90.1098C163.285 90.083 161.808 90.1496 160.332 90.0784C159.776 90.0515 159.592 90.2042 159.632 90.7353C159.714 91.8069 159.661 92.8784 159.661 93.9499C159.663 97.4004 159.674 100.851 159.678 104.301C159.679 105.187 159.668 106.073 159.658 106.959C159.654 107.401 159.618 107.444 159.18 107.449C158.418 107.458 157.657 107.455 156.894 107.451C156.408 107.449 156.363 107.399 156.363 106.916C156.363 104.196 156.363 101.476 156.363 98.756C156.364 98.756 156.363 98.756 156.362 98.756Z" fill="white"/>
<path d="M170.17 97.5222C170.17 100.582 170.17 103.642 170.17 106.702C170.17 106.811 170.172 106.92 170.169 107.029C170.159 107.395 170.125 107.445 169.775 107.449C168.951 107.457 168.128 107.458 167.305 107.449C166.987 107.445 166.923 107.37 166.915 107.061C166.907 106.782 166.911 106.502 166.911 106.223C166.914 100.351 166.916 94.4797 166.918 88.6076C166.918 88.3282 166.912 88.0487 166.917 87.7693C166.919 87.5639 167.017 87.4723 167.239 87.4741C168.078 87.4815 168.916 87.4676 169.756 87.4713C170.121 87.4732 170.166 87.5315 170.17 87.922C170.174 88.3106 170.17 88.6983 170.17 89.0869C170.17 91.899 170.17 94.7101 170.17 97.5222Z" fill="white"/>
<path d="M242.296 83.2308C240.523 83.2197 238.796 82.9467 237.153 82.2703C234.725 81.2701 232.753 79.7164 231.46 77.3948C230.801 76.2113 230.408 74.9381 230.462 73.5649C230.527 71.9095 231.21 70.5641 232.578 69.6101C233.645 68.8661 234.852 68.4895 236.142 68.3572C237.794 68.1869 239.436 68.2545 241.049 68.6496C244.365 69.462 246.986 71.2775 248.823 74.1691C249.51 75.2499 249.884 76.4584 249.926 77.7363C249.981 79.4398 249.299 80.812 247.897 81.8067C247.244 82.2703 246.519 82.5905 245.751 82.7996C244.621 83.1077 243.466 83.2447 242.296 83.2308Z" fill="#F19224"/>
<path d="M231.174 107.453C231.435 106.742 231.672 106.089 231.915 105.438C234.047 99.7431 236.18 94.0487 238.314 88.3542C238.346 88.2673 238.381 88.1812 238.412 88.0924C238.491 87.861 238.627 87.7583 238.896 87.7639C239.875 87.7824 240.855 87.7713 241.834 87.7731C242.262 87.7741 242.263 87.7768 242.423 88.2043C243.503 91.096 244.584 93.9876 245.663 96.8801C246.861 100.092 248.058 103.305 249.253 106.518C249.339 106.75 249.478 106.963 249.501 107.217C249.514 107.358 249.481 107.455 249.306 107.454C248.342 107.45 247.379 107.454 246.415 107.449C246.126 107.448 246.029 107.231 245.948 107.003C245.697 106.286 245.445 105.569 245.192 104.852C245.036 104.413 244.873 103.977 244.723 103.537C244.633 103.269 244.472 103.122 244.176 103.137C243.99 103.146 243.803 103.131 243.616 103.131C241.392 103.13 239.17 103.13 236.946 103.131C236.185 103.131 236.184 103.133 235.93 103.852C235.579 104.847 235.231 105.843 234.883 106.838C234.687 107.398 234.61 107.452 234.006 107.452C233.089 107.452 232.172 107.453 231.174 107.453ZM237.225 100.562C239.394 100.562 241.496 100.562 243.645 100.562C242.565 97.5195 241.499 94.516 240.397 91.4115C239.2 94.4688 238.12 97.4594 237.225 100.562Z" fill="white"/>
<path d="M203.629 97.4493C203.629 94.3717 203.629 91.295 203.629 88.2174C203.629 88.1239 203.627 88.0305 203.629 87.938C203.64 87.5012 203.654 87.4799 204.072 87.479C206.372 87.4771 208.674 87.4679 210.974 87.4836C212.054 87.491 213.11 87.6789 214.101 88.1249C216.005 88.9799 217.061 90.4622 217.315 92.5275C217.46 93.699 217.422 94.8538 217.007 95.9734C216.304 97.8713 214.887 98.9372 212.976 99.4258C212.096 99.6507 211.199 99.7043 210.296 99.708C209.347 99.7127 208.399 99.7117 207.451 99.7154C206.915 99.7173 206.87 99.7515 206.869 100.3C206.865 102.491 206.867 104.683 206.867 106.875C206.867 106.952 206.872 107.03 206.874 107.108C206.879 107.337 206.769 107.454 206.537 107.452C206.242 107.449 205.947 107.446 205.651 107.446C205.139 107.446 204.625 107.455 204.113 107.451C203.683 107.448 203.633 107.4 203.632 106.962C203.629 105.625 203.631 104.288 203.631 102.952C203.629 101.117 203.629 99.2833 203.629 97.4493ZM206.866 93.6074C206.866 94.5087 206.866 95.4099 206.866 96.3112C206.866 96.4046 206.863 96.4981 206.867 96.5906C206.885 96.9737 206.928 97.0172 207.302 97.0265C207.659 97.0348 208.017 97.0311 208.374 97.0422C209.415 97.0755 210.457 97.094 211.487 96.9099C212.682 96.6961 213.543 96.0715 213.903 94.8668C214.102 94.1996 214.131 93.5204 214.011 92.8375C213.771 91.4727 212.997 90.602 211.619 90.317C211.315 90.254 211.005 90.2207 210.696 90.192C209.611 90.0921 208.523 90.1902 207.436 90.1569C206.955 90.1421 206.869 90.2253 206.867 90.7176C206.864 91.6809 206.866 92.6441 206.866 93.6074Z" fill="white"/>
<path d="M246.062 87.5225C246.209 87.442 246.368 87.4809 246.518 87.48C247.389 87.4763 248.26 87.5003 249.13 87.4689C249.542 87.4541 249.77 87.5771 249.957 87.9602C251.194 90.4984 252.457 93.0245 253.713 95.5534C253.87 95.8708 254.036 96.1845 254.194 96.4926C254.41 96.4695 254.458 96.3131 254.526 96.1743C255.865 93.4613 257.209 90.751 258.541 88.0342C258.735 87.641 259 87.4494 259.452 87.4615C260.353 87.4855 261.254 87.4735 262.155 87.479C262.247 87.48 262.339 87.4929 262.432 87.5013C262.456 87.7132 262.354 87.8732 262.269 88.037C260.281 91.8299 258.294 95.6237 256.298 99.4129C256.031 99.9209 255.897 100.441 255.902 101.017C255.917 102.912 255.908 104.808 255.908 106.704C255.908 106.814 255.913 106.923 255.906 107.031C255.882 107.383 255.823 107.446 255.438 107.449C254.645 107.458 253.853 107.458 253.06 107.449C252.662 107.445 252.61 107.391 252.605 106.98C252.597 106.157 252.601 105.333 252.603 104.51C252.607 103.329 252.615 102.148 252.618 100.967C252.619 100.463 252.518 99.9829 252.28 99.5323C250.265 95.719 248.252 91.9039 246.239 88.0888C246.146 87.9112 246.02 87.7437 246.062 87.5225Z" fill="white"/>
<path d="M219.662 97.3116C219.662 94.2959 219.662 91.2803 219.662 88.2656C219.662 88.1564 219.658 88.0482 219.663 87.939C219.681 87.4884 219.69 87.48 220.148 87.4791C220.879 87.4772 221.609 87.4782 222.34 87.4791C222.915 87.48 222.916 87.48 222.917 88.0361C222.918 88.9531 222.917 89.8701 222.917 90.7871C222.917 95.2481 222.917 99.7091 222.917 104.17C222.917 104.263 222.915 104.357 222.917 104.449C222.926 104.887 222.958 104.923 223.401 104.923C225.314 104.925 227.226 104.924 229.138 104.924C229.247 104.924 229.356 104.929 229.465 104.924C229.694 104.913 229.813 105.006 229.81 105.248C229.804 105.87 229.805 106.492 229.808 107.113C229.809 107.353 229.679 107.444 229.457 107.447C229.333 107.448 229.209 107.452 229.085 107.452C226.255 107.452 223.425 107.452 220.596 107.452C220.549 107.452 220.502 107.452 220.456 107.452C219.743 107.444 219.664 107.372 219.663 106.637C219.66 103.529 219.662 100.42 219.662 97.3116Z" fill="white"/>
</svg>
