<svg width="306" height="180" viewBox="0 0 306 180" fill="none" xmlns="http://www.w3.org/2000/svg">
<g clip-path="url(#clip0_413_1107)">
<mask id="mask0_413_1107" style="mask-type:alpha" maskUnits="userSpaceOnUse" x="109" y="76" width="174" height="28">
<path d="M109.031 76.3337H282.344V103.301H109.031V76.3337Z" fill="white"/>
</mask>
<g mask="url(#mask0_413_1107)">
<path fill-rule="evenodd" clip-rule="evenodd" d="M282.341 100.591C282.277 100.322 280.499 93.3505 276.891 90.0504C278.661 88.3854 282.266 85.0904 281.066 77.6037C281.027 77.3708 280.901 77.1615 280.713 77.0184C280.526 76.8753 280.29 76.8092 280.056 76.8336L275.304 77.367C275.18 77.3808 275.06 77.4195 274.952 77.4808C274.843 77.5421 274.748 77.6247 274.672 77.7237C274.598 77.8232 274.544 77.9365 274.514 78.057C274.484 78.1774 274.479 78.3026 274.497 78.4253C274.509 78.5003 275.477 83.912 271.796 87.1654L271.886 77.937C271.886 77.8072 271.859 77.6788 271.807 77.56C271.754 77.4412 271.678 77.3346 271.582 77.247C271.485 77.1608 271.371 77.096 271.247 77.0566C271.124 77.0173 270.993 77.0044 270.864 77.0186L266.112 77.5487C265.884 77.5748 265.673 77.6853 265.522 77.8585C265.37 78.0318 265.289 78.2553 265.294 78.4853L265.849 101.584C265.851 101.706 265.878 101.826 265.928 101.937C265.977 102.048 266.048 102.148 266.137 102.232C266.225 102.315 266.33 102.38 266.444 102.423C266.558 102.466 266.679 102.485 266.8 102.481C266.822 102.481 266.847 102.481 266.87 102.477L270.891 102.027C271.107 102.003 271.308 101.902 271.457 101.744C271.607 101.586 271.695 101.38 271.707 101.162L272.044 93.9455C273.309 95.2622 275.442 98.6205 275.781 101.437C275.809 101.678 275.932 101.898 276.122 102.049C276.312 102.199 276.555 102.268 276.796 102.241L281.546 101.711C281.675 101.697 281.799 101.656 281.911 101.59C282.024 101.524 282.12 101.436 282.195 101.33C282.271 101.224 282.322 101.103 282.348 100.976C282.373 100.848 282.37 100.717 282.341 100.591ZM254.997 77.2853C253.667 77.3687 249.305 78.152 248.944 84.5737C248.897 85.3904 248.852 86.1671 248.807 86.9037C248.54 91.2738 248.354 94.4321 248.914 97.1672C249.25 98.8005 250.619 102.602 256.03 102.602C256.365 102.602 256.717 102.586 257.069 102.557C259.325 102.371 260.999 101.647 262.045 100.406C263.529 98.6405 263.329 96.3772 263.224 95.1622L263.202 94.9222C263.184 94.6843 263.074 94.4629 262.895 94.3046C262.717 94.1464 262.484 94.0636 262.245 94.0738L258.832 94.2238C258.703 94.2298 258.576 94.2629 258.461 94.3209C258.345 94.3789 258.243 94.4605 258.16 94.5605C258.079 94.6619 258.02 94.7792 257.986 94.905C257.953 95.0307 257.946 95.1621 257.967 95.2905C258.042 95.7472 258.119 97.2122 257.522 97.9272C257.372 98.1105 257.09 98.3605 256.449 98.3672L256.402 98.3705C255.91 98.3705 255.54 98.2239 255.249 97.9138C254.749 97.3888 254.189 96.1105 254.349 92.9738C254.387 92.2471 254.42 91.3988 254.457 90.4954C254.549 88.1521 254.655 85.4937 254.874 83.8254L254.877 83.7704C255.044 82.5004 255.285 81.9637 256.345 81.9154C257.107 81.882 257.635 82.0387 257.917 82.3737C258.27 82.8037 258.232 83.537 258.187 83.777C258.161 83.9095 258.164 84.0463 258.196 84.1774C258.228 84.3086 258.289 84.431 258.375 84.5359C258.46 84.6408 258.567 84.7256 258.689 84.7843C258.81 84.843 258.944 84.8741 259.079 84.8754L263.189 84.9321C263.428 84.9328 263.659 84.8412 263.833 84.6765C264.006 84.5117 264.11 84.2863 264.122 84.047C264.125 83.9404 264.192 81.4304 262.299 79.4737C260.699 77.817 258.235 77.0736 254.999 77.2853H254.997ZM245.67 76.6186L241.287 77.1836C241.065 77.2113 240.861 77.3188 240.714 77.486C240.566 77.6533 240.484 77.8687 240.484 78.092L240.444 100.882C240.444 101.006 240.469 101.129 240.518 101.243C240.567 101.357 240.638 101.46 240.728 101.546C240.818 101.632 240.924 101.699 241.04 101.743C241.156 101.787 241.28 101.807 241.404 101.802H241.43L246.2 101.447C246.434 101.431 246.653 101.326 246.811 101.154C246.97 100.982 247.056 100.755 247.052 100.521L246.707 77.517C246.705 77.3873 246.676 77.2595 246.621 77.142C246.566 77.0245 246.487 76.92 246.389 76.8353C246.292 76.7499 246.178 76.6863 246.054 76.6489C245.93 76.6115 245.8 76.6012 245.672 76.6186H245.67ZM234.189 90.9238C235.519 89.1704 238.885 85.1037 238.535 77.9803C238.53 77.8584 238.5 77.7388 238.448 77.6286C238.395 77.5183 238.321 77.4196 238.231 77.3383C238.14 77.257 238.033 77.1946 237.918 77.1549C237.802 77.1152 237.68 77.0989 237.559 77.107L233.727 77.362C233.606 77.3698 233.489 77.4014 233.38 77.4548C233.272 77.5083 233.176 77.5826 233.096 77.6735C233.017 77.7644 232.956 77.8701 232.917 77.9846C232.879 78.099 232.863 78.2199 232.872 78.3403C233.005 80.357 231.672 84.6621 229.755 87.3721L230.03 78.6153C230.033 78.4918 230.011 78.3689 229.965 78.2541C229.919 78.1393 229.851 78.0349 229.764 77.947C229.677 77.8592 229.573 77.7897 229.459 77.7427C229.345 77.6958 229.222 77.6723 229.098 77.6737L224.167 77.7503C223.922 77.7535 223.688 77.8536 223.517 78.0287C223.348 78.206 223.257 78.4425 223.262 78.687L223.757 101.946C223.758 102.075 223.787 102.202 223.842 102.32C223.897 102.437 223.976 102.541 224.074 102.625C224.172 102.71 224.287 102.772 224.411 102.809C224.535 102.845 224.665 102.855 224.793 102.837L228.638 102.329C228.858 102.3 229.059 102.194 229.206 102.028C229.353 101.863 229.435 101.65 229.437 101.429L229.497 94.6122C230.278 95.0822 232.563 98.3972 232.955 101.671C232.981 101.895 233.088 102.103 233.258 102.253C233.427 102.403 233.646 102.485 233.872 102.484L237.927 102.467L237.985 102.464C238.221 102.448 238.442 102.342 238.602 102.167C238.761 101.992 238.847 101.762 238.84 101.526C238.824 100.686 237.44 93.5421 234.19 90.9254L234.189 90.9238ZM216.098 87.5054C215.27 88.3954 213.848 88.6621 212.945 88.7371V82.1137C213.237 82.0487 213.538 82.0187 213.828 82.0187C215.058 82.0187 216.565 82.5687 216.767 85.2071C216.842 86.1871 216.622 86.9387 216.1 87.5054H216.098ZM221.912 84.3354C221.682 81.1137 220.565 76.832 213.555 76.832C212.048 76.832 210.282 77.0286 208.31 77.4153C208.099 77.4573 207.908 77.572 207.773 77.7394C207.637 77.9068 207.564 78.1165 207.567 78.332L207.887 100.804C207.895 101.281 208.262 101.671 208.733 101.709L211.953 101.959C212.08 101.971 212.207 101.955 212.327 101.914C212.447 101.873 212.556 101.806 212.648 101.719C212.742 101.633 212.817 101.529 212.867 101.413C212.918 101.296 212.944 101.171 212.943 101.044L212.945 93.7971L214.588 93.7088L216.41 101.467C216.449 101.678 216.56 101.868 216.725 102.005C216.89 102.142 217.097 102.217 217.312 102.217C217.335 102.217 217.362 102.217 217.387 102.214L220.603 101.962C220.731 101.951 220.855 101.914 220.968 101.853C221.08 101.792 221.179 101.708 221.257 101.606C221.335 101.505 221.392 101.388 221.423 101.264C221.454 101.14 221.458 101.01 221.437 100.884L219.153 92.2505C220.748 91.0254 222.232 88.8121 221.912 84.3337V84.3354ZM205.185 97.8055L199.802 98.2289L199.553 93.1988L203.037 93.0071C203.254 92.9936 203.459 92.9035 203.616 92.7527C203.773 92.6019 203.871 92.4003 203.893 92.1838L204.22 89.0938C204.235 88.9609 204.22 88.8265 204.178 88.6998C204.135 88.5731 204.065 88.4573 203.973 88.3604C203.881 88.2636 203.769 88.188 203.645 88.1391C203.52 88.0901 203.387 88.069 203.253 88.0771L199.477 88.2704V82.812H205.067C205.206 82.8141 205.343 82.7844 205.469 82.7251C205.595 82.6658 205.705 82.5785 205.792 82.47C205.879 82.3614 205.94 82.2344 205.97 82.0987C206 81.963 205.999 81.8222 205.967 81.687L205.655 78.412C205.632 78.1792 205.522 77.9638 205.347 77.8091C205.171 77.6544 204.944 77.5721 204.71 77.5787L194.485 77.8287C194.243 77.8356 194.014 77.9372 193.847 78.1114C193.679 78.2857 193.587 78.5187 193.59 78.7603L193.915 101.732C193.921 102.236 194.331 102.641 194.835 102.641L205.177 102.644C205.416 102.643 205.646 102.549 205.818 102.382C205.989 102.215 206.089 101.988 206.097 101.749L206.178 98.7489C206.181 98.6201 206.157 98.4922 206.108 98.3731C206.059 98.254 205.986 98.1465 205.893 98.0572C205.799 97.9689 205.687 97.901 205.565 97.8577C205.443 97.8144 205.314 97.7967 205.185 97.8055ZM186.048 92.1288C185.555 96.0538 184.328 96.3005 182.98 96.7655L183.613 82.182C184.08 82.3037 184.675 82.2904 185.433 83.302C186.536 84.7737 186.526 88.2954 186.048 92.1288ZM179.915 76.8286C179.626 76.8286 179.336 76.832 179.036 76.8403C178.802 76.8462 178.579 76.9415 178.413 77.1067C178.247 77.2719 178.15 77.4945 178.143 77.7287L177.403 100.954C177.395 101.19 177.479 101.421 177.636 101.597C177.794 101.774 178.014 101.882 178.25 101.901C178.271 101.901 178.793 101.942 179.61 101.942C182.493 101.942 189.378 101.419 190.966 96.5772C192.291 92.5488 192.078 87.0471 191.745 84.4337C191.088 79.317 187.218 76.8303 179.915 76.8303V76.8286ZM174.425 77.3037L170.331 77.5003C170.085 77.5147 169.854 77.6255 169.688 77.8087C169.525 77.995 169.442 78.2383 169.458 78.4853L170.136 89.8254L165.886 78.1087C165.815 77.9169 165.681 77.7544 165.507 77.6467C165.333 77.539 165.128 77.4922 164.925 77.5137L160.818 77.967C160.59 77.9918 160.38 78.1005 160.228 78.2718C160.076 78.443 159.994 78.6647 159.996 78.8937L160.674 101.247C160.675 101.478 160.763 101.701 160.921 101.87C161.078 102.039 161.294 102.142 161.524 102.159L165.645 102.462C165.774 102.471 165.905 102.452 166.027 102.407C166.149 102.361 166.26 102.291 166.353 102.199C166.446 102.108 166.518 101.998 166.566 101.877C166.613 101.756 166.634 101.626 166.628 101.496L165.986 91.7121L169.538 101.874C169.601 102.041 169.711 102.187 169.854 102.293C169.998 102.399 170.17 102.461 170.348 102.472L174.681 102.467C174.807 102.474 174.933 102.454 175.051 102.411C175.169 102.367 175.277 102.3 175.368 102.214C175.46 102.127 175.533 102.021 175.582 101.905C175.631 101.788 175.656 101.662 175.655 101.536L175.391 78.2137C175.389 78.0899 175.363 77.9677 175.313 77.8544C175.263 77.7411 175.191 77.6388 175.101 77.5537C175.012 77.4679 174.905 77.4015 174.789 77.3585C174.672 77.3155 174.549 77.2968 174.425 77.3037ZM157.071 76.337L153.121 76.637C152.891 76.6542 152.675 76.7576 152.518 76.9265C152.36 77.0955 152.272 77.3176 152.271 77.5487C152.271 77.5487 152.311 92.6521 152.254 94.6322C152.221 95.8038 152.378 97.7722 151.098 97.8305C150.216 97.8705 149.904 96.5738 149.886 94.7472C149.868 92.6921 150.038 78.6403 150.039 78.4953C150.042 78.2669 149.96 78.0457 149.808 77.8749C149.657 77.7041 149.447 77.5961 149.219 77.572L144.736 77.092C144.607 77.0778 144.476 77.0913 144.352 77.1316C144.228 77.1718 144.115 77.238 144.018 77.3257C143.922 77.4134 143.846 77.5205 143.794 77.64C143.743 77.7595 143.717 77.8885 143.719 78.0187C143.719 78.0187 143.891 95.7188 143.903 96.3455C143.954 98.6389 145.726 102.762 150.703 102.621C156.286 102.471 157.296 99.1472 157.639 95.2688C157.783 93.6521 158.046 78.9003 158.061 77.2636C158.062 77.1361 158.037 77.0098 157.986 76.8927C157.936 76.7756 157.861 76.6704 157.768 76.5836C157.675 76.4965 157.565 76.4296 157.445 76.3871C157.325 76.3447 157.198 76.3276 157.071 76.337ZM140.983 78.367L136.644 78.1287C136.406 78.1245 136.176 78.2133 136.003 78.376C135.83 78.5388 135.727 78.7628 135.716 79.0003L135.649 88.5721L133.761 88.9804L133.283 78.1237C133.272 77.8887 133.173 77.6665 133.004 77.5028C132.835 77.3392 132.609 77.2464 132.374 77.2436L128.099 77.352C127.976 77.3511 127.854 77.3747 127.74 77.4216C127.627 77.4684 127.523 77.5374 127.437 77.6246C127.35 77.7119 127.281 77.8155 127.235 77.9295C127.189 78.0436 127.166 78.1656 127.168 78.2887L127.951 102.429C127.958 102.924 128.359 103.329 128.861 103.334L133.134 103.226C133.384 103.226 133.619 103.132 133.794 102.959C133.88 102.873 133.948 102.77 133.994 102.657C134.04 102.545 134.063 102.424 134.063 102.302L133.596 94.2171L135.274 94.3338L135.571 101.571C135.566 101.694 135.585 101.816 135.629 101.932C135.672 102.047 135.738 102.152 135.822 102.242C135.907 102.331 136.009 102.403 136.122 102.452C136.235 102.501 136.356 102.527 136.479 102.529L140.944 102.839H140.999C141.229 102.827 141.447 102.729 141.608 102.564C141.77 102.4 141.864 102.181 141.873 101.951L141.893 79.317C141.898 79.1943 141.878 79.0718 141.834 78.957C141.791 78.8421 141.725 78.7372 141.64 78.6485C141.555 78.5598 141.453 78.4892 141.34 78.4408C141.227 78.3925 141.105 78.3673 140.983 78.367ZM124.271 77.1753L109.921 77.622C109.797 77.6257 109.675 77.6544 109.563 77.7064C109.451 77.7583 109.35 77.8324 109.267 77.9243C109.184 78.0161 109.12 78.1238 109.08 78.2409C109.04 78.3579 109.024 78.4819 109.032 78.6053L109.294 82.5054C109.327 82.9954 109.739 83.3737 110.224 83.3654L114.124 83.317L115.004 101.671C115.01 101.793 115.041 101.912 115.093 102.022C115.146 102.133 115.22 102.231 115.311 102.313C115.402 102.394 115.509 102.457 115.624 102.497C115.74 102.537 115.862 102.553 115.984 102.546L120.389 102.249C120.626 102.233 120.848 102.125 121.008 101.949C121.168 101.773 121.254 101.542 121.247 101.304L120.736 83.227L124.596 83.177C124.846 83.177 125.084 83.0654 125.254 82.882C125.34 82.7905 125.406 82.6822 125.447 82.5641C125.489 82.4459 125.506 82.3204 125.497 82.1954L125.219 78.0287C125.202 77.7916 125.093 77.5704 124.916 77.4114C124.74 77.2524 124.508 77.1678 124.271 77.1753Z" fill="#FFFFFE"/>
</g>
<path fill-rule="evenodd" clip-rule="evenodd" d="M82.5437 95.2304L68.3702 95.6138L67.8602 111.592L67.0952 121.052L54.7484 120.924V111.851L53.7268 96.0004L38.9183 96.6388L38.4083 81.2986L60.2185 81.1703L82.7987 80.532L83.1821 82.577L82.5437 95.2321V95.2304ZM93.3605 104.739L95.8055 87.612L85.5704 66.1185L78.617 68.5068L69.5419 58.7568L53.5084 50L50.0001 62.9868L47.5234 56.1684L35.2083 68.2235L28.3199 80.287L28.0165 92.7871L23.1631 90.4687L26.4715 110.496L33.9716 123.391L51.6717 129.471L66.1719 129.999L91.1705 120.844L98.3639 103.019L93.3588 104.736L93.3605 104.739Z" fill="#FFFFFE"/>
</g>
<defs>
<clipPath id="clip0_413_1107">
<rect width="306" height="180" fill="white"/>
</clipPath>
</defs>
</svg>
