<svg width="306" height="180" viewBox="0 0 306 180" fill="none" xmlns="http://www.w3.org/2000/svg">
<path fill-rule="evenodd" clip-rule="evenodd" d="M49.664 105.609L23.915 79.911C22.915 78.911 23.615 77.261 25.015 77.261H50.763C51.613 77.261 52.313 77.961 52.313 78.811V104.51C52.313 105.859 50.663 106.559 49.664 105.609Z" fill="white"/>
<path fill-rule="evenodd" clip-rule="evenodd" d="M55.463 104.509V78.811C55.463 77.961 56.163 77.261 57.013 77.261H82.762C84.162 77.261 84.862 78.911 83.862 79.911L58.114 105.61C57.113 106.559 55.463 105.859 55.463 104.509Z" fill="white"/>
<path fill-rule="evenodd" clip-rule="evenodd" d="M87.011 104.509V78.811C87.011 77.961 87.711 77.261 88.561 77.261H114.309C115.709 77.261 116.409 78.911 115.409 79.911L89.661 105.61C88.661 106.559 87.011 105.859 87.011 104.509Z" fill="white"/>
<path fill-rule="evenodd" clip-rule="evenodd" d="M151.208 77.211V94.96L145.008 82.411H141.458L135.159 95.11V77.211H129.559V106.059H135.109L143.158 90.36L151.258 106.059H156.757V77.211H151.208Z" fill="white"/>
<path d="M172.306 85.511L175.556 95.66H169.006L172.306 85.511ZM169.507 77.211L159.458 106.009H165.708L167.458 100.559H177.107L178.857 106.009H185.107L175.058 77.211H169.507Z" fill="white"/>
<path fill-rule="evenodd" clip-rule="evenodd" d="M186.256 77.211V82.211H198.005L186.256 102.21V106.059H205.754V101.11H193.705L205.354 81.061V77.211H186.256Z" fill="white"/>
<path d="M225.053 93.51V89.76C225.053 84.81 223.703 82.21 219.803 82.21H215.403V101.109H219.803C223.703 101.11 225.053 98.51 225.053 93.51ZM209.554 106.059V77.261H219.803C226.353 77.261 230.902 80.611 230.902 89.81V93.56C230.902 102.709 226.352 106.109 219.803 106.109H209.554V106.059Z" fill="white"/>
<path d="M244.702 85.511L247.952 95.66H241.402L244.702 85.511ZM241.902 77.211L231.853 106.009H238.103L239.853 100.559H249.502L251.252 106.009H257.502L247.503 77.211H241.902Z" fill="white"/>
<path fill-rule="evenodd" clip-rule="evenodd" d="M276.45 77.211V95.31L265.151 77.211H260.301V106.059H265.851V88.21L277.1 106.059H282V77.211H276.45Z" fill="white"/>
</svg>
