<svg width="306" height="180" viewBox="0 0 306 180" fill="none" xmlns="http://www.w3.org/2000/svg">
<g clip-path="url(#clip0_413_1104)">
<path d="M39 77.0084H46.6504V95.9361H39V77.0084ZM60.6335 77.0084H68.2839V95.9361H60.6335V77.0084ZM140.479 89.1006V95.9374H118.238V77.0084H125.888V89.1006H140.479ZM149.194 77.0084H156.844V95.9361H149.194V77.0084ZM166.064 77.0084H173.715V95.9361H166.064V77.0084ZM189.674 77.0084H197.325V95.9361H189.674V77.0084ZM213.283 77.0084H220.933V95.9361H213.283V77.0084ZM228.736 77.0084H236.386V95.9361H228.736V77.0084ZM228.736 59.8641H236.386V75.0178H228.736V59.8641ZM149.194 59.8641H156.844V75.0178H149.194V59.8641ZM118.238 59.8641H125.888V75.0178H118.238V59.8641ZM268 59.8641V67.6194H260.197V75.0178H252.496V67.6194H244.694V59.8641H268ZM252.497 77.0071H260.147V95.9374H252.497V77.0084V77.0071ZM82.5202 75.0191C82.9258 70.5798 86.6742 67.1102 91.1327 67.1102H94.4257C98.9353 67.1102 102.634 70.5798 103.039 75.0191H110.639C110.182 66.3452 103.091 59.456 94.3758 59.456H91.0815C82.3667 59.456 75.2741 66.3439 74.8174 75.0178H82.519L82.5202 75.0191ZM103.19 77.0097V80.02C103.19 84.8162 99.2897 88.745 94.528 88.745H91.2337C86.4721 88.745 82.5714 84.8162 82.5714 80.02V77.0097H74.9722V80.02C74.9709 89.0495 82.2669 96.3967 91.2325 96.3967H94.5267C103.495 96.3967 110.79 89.0495 110.79 80.0187V77.0084H103.19V77.0097ZM68.2839 75.0178H60.6846C60.6846 73.0284 60.0757 71.5482 58.7592 70.3226C55.9217 67.723 50.45 67.0591 46.6504 66.958V75.0191H39.0512V59.813L42.4964 59.4547C43.9638 59.3038 56.8339 58.233 63.9265 64.6616C66.764 67.3149 68.2839 70.8868 68.2839 75.0191V75.0178ZM220.882 75.0178H213.283C213.283 70.5785 209.686 66.9567 205.278 66.9567C200.871 66.9567 197.274 70.5785 197.274 75.0178H189.674C189.674 70.5785 186.077 66.9567 181.67 66.9567C177.261 66.9567 173.665 70.5785 173.665 75.0178H166.066C166.066 66.3439 173.056 59.3025 181.67 59.3025C186.381 59.3025 190.587 61.3942 193.474 64.7627C196.361 61.4454 200.567 59.3025 205.278 59.3025C213.891 59.3025 220.882 66.3439 220.882 75.0178Z" fill="#FFFE00"/>
<path d="M88.8939 114.384V114.231C88.8939 110.5 91.1915 107.911 94.3592 107.911C96.1464 107.911 97.1673 108.48 98.0871 109.361L97.1161 111.018C96.2999 110.293 95.4824 109.827 94.3592 109.827C92.4184 109.827 90.9881 111.536 90.9881 114.229V114.385C90.9881 117.078 92.4184 118.788 94.3592 118.788C95.5336 118.788 96.2999 118.322 97.1673 117.544L98.1383 119.046C97.1161 120.082 95.9929 120.704 94.2056 120.704C91.1915 120.704 88.8939 118.166 88.8939 114.384ZM131.488 108.065H133.531V120.497H131.488V108.065ZM170.149 109.982H166.933V108.065H175.411V109.982H172.194V120.498H170.15V109.982H170.149ZM211.977 115.524L207.841 108.065H210.138L212.999 113.4L215.858 108.065H218.106L214.02 115.524V120.497H211.977V115.524Z" fill="white"/>
</g>
<defs>
<clipPath id="clip0_413_1104">
<rect width="306" height="180" fill="white"/>
</clipPath>
</defs>
</svg>
